<?xml version="1.0" encoding="utf-8"?>
<!-- Generator: Adobe Illustrator 25.2.0, SVG Export Plug-In . SVG Version: 6.00 Build 0)  -->
<svg version="1.1" id="Layer_1" xmlns="http://www.w3.org/2000/svg" xmlns:xlink="http://www.w3.org/1999/xlink" x="0px" y="0px"
	 viewBox="0 0 1920 400" style="enable-background:new 0 0 1920 400;" xml:space="preserve">
<style type="text/css">
	.st0{fill:#F7E3CA;}
	.st1{enable-background:new    ;}
	.st2{fill:#231F20;}
	.st3{fill:#E66538;}
	.st4{fill:#F0C651;}
	.st5{fill:#665570;}
	.st6{fill:#FFFFFF;}
	.st7{fill:none;}
	.st8{fill:none;stroke:#231F20;stroke-width:2.587;stroke-miterlimit:10;}
	.st9{fill:#F5D1C1;}
	.st10{fill:#899AB6;}
	.st11{fill:#173B63;}
	.st12{fill:#3D5858;}
	.st13{fill:#C0C1A3;}
</style>
<g id="Layer_2_1_">
	<rect class="st0" width="1920" height="400"/>
	<g class="st1">
		<path class="st2" d="M1257.5,329.6v15.7c0,1.9,0,3.7,0,5.3c0,3.6-1.2,6.4-3.3,8.3c-1.1,1-2.5,1.6-4.4,1.8
			c-0.6,0.1-1.2,0.1-1.9,0.1c-1.1,0-2.5-0.1-4.2-0.4l0.3-1.7c1.7,0.3,3.1,0.4,4.2,0.4c2,0,3.8-0.6,5.2-1.8c1.6-1.4,2.4-3.6,2.5-6.8
			c0-0.3,0-0.6,0-1.1v-2.5v-1.2c-0.5,0.7-1.1,1.4-1.9,2c-1.6,1.4-3.4,2.1-5.4,2.1c-2.5,0-4.5-1-6.1-3.1c-1.4-1.9-2.1-4.1-2.1-6.7
			c0-0.7,0-1.3,0.1-2c0.5-2.8,1.7-5.1,3.7-6.8c1.9-1.6,4.1-2.4,6.7-2.2C1252.6,329.2,1254.8,329.3,1257.5,329.6z M1255.8,331.1
			c-2.9-0.2-4.7-0.3-5.4-0.3c-2-0.1-3.8,0.5-5.3,1.9c-1,0.8-1.7,2-2.2,3.4c-0.5,1.4-0.7,2.7-0.7,4.1c0,1.7,0.4,3.2,1.1,4.5
			c1.4,2.3,3.1,3.5,5.2,3.5c1.7,0,3.2-0.6,4.7-1.9c1.8-1.6,2.7-3.7,2.7-6.4C1255.8,334.6,1255.8,331.7,1255.8,331.1z"/>
		<path class="st2" d="M1273.5,326.2h-1.7v-1.7h1.7V326.2z M1273.5,329.5v19.7h-1.7v-19.7H1273.5z"/>
		<path class="st2" d="M1303.5,329.7v19.5h-1.7V347v-1.2c-0.5,0.7-1.1,1.4-1.8,2c-1.6,1.4-3.4,2.1-5.4,2.1c-2.4,0-4.5-1-6-3.1
			c-1.4-1.9-2.1-4.1-2.1-6.6c0-0.7,0.1-1.3,0.2-2c0.5-2.8,1.7-5.1,3.6-6.8c1.8-1.6,4-2.4,6.6-2.2
			C1298.6,329.3,1300.9,329.4,1303.5,329.7z M1301.8,339.9v-8.7c-2.9-0.2-4.7-0.3-5.3-0.3c-2-0.1-3.8,0.5-5.3,1.9
			c-0.9,0.8-1.7,2-2.2,3.4c-0.5,1.3-0.7,2.7-0.7,4.1c0,1.7,0.4,3.2,1.1,4.5c1.4,2.3,3.1,3.4,5.2,3.4c1.7,0,3.2-0.6,4.7-1.9
			C1300.9,344.7,1301.8,342.6,1301.8,339.9z"/>
		<path class="st2" d="M1334.2,338.6v10.6h-1.8v-10.6c0-2.2-0.3-3.8-1-4.9c-0.5-0.9-1.1-1.6-1.7-2c-0.6-0.4-1.6-0.7-2.8-0.9
			c-0.2,0-0.5-0.1-0.7-0.1c-1.7,0-3.2,0.6-4.7,1.9c-1.8,1.6-2.7,3.5-2.7,5.8v10.7h-1.7v-19.7h1.7v3.5c0.8-1.2,1.9-2.2,3.2-3
			c1.3-0.7,2.6-1.1,4.1-1.1c0.4,0,0.8,0,1.2,0.1c1.5,0.2,2.7,0.6,3.5,1.2c0.8,0.5,1.6,1.4,2.2,2.5
			C1333.8,334.1,1334.2,336,1334.2,338.6z"/>
		<path class="st2" d="M1365.1,338.6v10.6h-1.8v-10.6c0-2.2-0.3-3.8-1-4.9c-0.5-0.9-1.1-1.6-1.7-2c-0.6-0.4-1.6-0.7-2.8-0.9
			c-0.2,0-0.5-0.1-0.7-0.1c-1.7,0-3.2,0.6-4.7,1.9c-1.8,1.6-2.7,3.5-2.7,5.8v10.7h-1.7v-19.7h1.7v3.5c0.8-1.2,1.9-2.2,3.2-3
			c1.3-0.7,2.6-1.1,4.1-1.1c0.4,0,0.8,0,1.2,0.1c1.5,0.2,2.7,0.6,3.5,1.2c0.8,0.5,1.6,1.4,2.2,2.5
			C1364.7,334.1,1365.1,336,1365.1,338.6z"/>
		<path class="st2" d="M1394.4,329.7v19.5h-1.7V347v-1.2c-0.5,0.7-1.1,1.4-1.8,2c-1.6,1.4-3.4,2.1-5.4,2.1c-2.4,0-4.5-1-6-3.1
			c-1.4-1.9-2.1-4.1-2.1-6.6c0-0.7,0.1-1.3,0.2-2c0.5-2.8,1.7-5.1,3.6-6.8c1.8-1.6,4-2.4,6.6-2.2
			C1389.5,329.3,1391.7,329.4,1394.4,329.7z M1392.7,339.9v-8.7c-2.9-0.2-4.7-0.3-5.3-0.3c-2-0.1-3.8,0.5-5.3,1.9
			c-0.9,0.8-1.7,2-2.2,3.4c-0.5,1.3-0.7,2.7-0.7,4.1c0,1.7,0.4,3.2,1.1,4.5c1.4,2.3,3.1,3.4,5.2,3.4c1.7,0,3.2-0.6,4.7-1.9
			C1391.8,344.7,1392.7,342.6,1392.7,339.9z"/>
		<path class="st2" d="M1435.4,329.6l-6.9,19.6h-1.8l-6.2-17.1l-6,17.1h-1.8l-7.1-19.6h1.8l6.2,17.1l6-17.1h1.8h0l6.2,17.1l6-17.1
			H1435.4z"/>
		<path class="st2" d="M1462.9,329.7v19.5h-1.7V347v-1.2c-0.5,0.7-1.1,1.4-1.8,2c-1.6,1.4-3.4,2.1-5.4,2.1c-2.4,0-4.5-1-6-3.1
			c-1.4-1.9-2.1-4.1-2.1-6.6c0-0.7,0.1-1.3,0.2-2c0.5-2.8,1.7-5.1,3.6-6.8c1.8-1.6,4-2.4,6.6-2.2
			C1458.1,329.3,1460.3,329.4,1462.9,329.7z M1461.2,339.9v-8.7c-2.9-0.2-4.7-0.3-5.3-0.3c-2-0.1-3.8,0.5-5.3,1.9
			c-0.9,0.8-1.7,2-2.2,3.4c-0.5,1.3-0.7,2.7-0.7,4.1c0,1.7,0.4,3.2,1.1,4.5c1.4,2.3,3.1,3.4,5.2,3.4c1.7,0,3.2-0.6,4.7-1.9
			C1460.3,344.7,1461.2,342.6,1461.2,339.9z"/>
		<path class="st2" d="M1476.7,317.9h1.7v31.3h-1.7V317.9z"/>
		<path class="st2" d="M1508.5,318.1v31.1h-1.7V347v-1.2c-0.5,0.7-1.1,1.4-1.9,2c-1.6,1.4-3.4,2.1-5.4,2.1c-2.4,0-4.5-1-6-3.1
			c-1.4-1.9-2.1-4.1-2.1-6.6c0-0.7,0.1-1.3,0.2-2c0.5-2.8,1.7-5.1,3.6-6.8c1.7-1.5,3.9-2.2,6.6-2.2c1.2,0,2.8,0.1,5,0.3v-11.5
			H1508.5z M1506.9,331.2c-2.9-0.2-4.7-0.3-5.4-0.3c-2-0.1-3.7,0.5-5.3,1.9c-1,0.8-1.7,2-2.2,3.4c-0.5,1.3-0.7,2.7-0.7,4.1
			c0,1.7,0.4,3.2,1.1,4.5c1.3,2.3,3.1,3.4,5.2,3.4c1.6,0,3.2-0.6,4.7-1.9c1.8-1.6,2.7-3.7,2.7-6.3
			C1506.9,334.7,1506.9,331.8,1506.9,331.2z"/>
		<path class="st2" d="M1529.1,329.5v1.7c-0.9,0.3-1.7,0.8-2.5,1.4c-1.5,1.3-2.4,3.2-2.9,5.7c-0.1,0.8-0.2,1.3-0.2,1.5v9.2h-1.7
			v-19.7h1.7v4.4c0.6-1,1.3-1.9,2.1-2.6C1526.6,330.5,1527.7,329.9,1529.1,329.5z"/>
		<path class="st2" d="M1555.4,332.2c1.8,2,2.7,4.4,2.7,7.2c0,3.2-0.8,5.7-2.4,7.5c-1.6,1.8-3.8,2.7-6.6,2.7c-2.7,0-4.9-0.9-6.6-2.8
			c-1.7-1.8-2.5-4.3-2.5-7.5c0-2.8,0.9-5.2,2.7-7.2c1.8-2,3.9-3,6.3-3C1551.5,329.1,1553.6,330.1,1555.4,332.2z M1554.4,345.6
			c1.4-1.6,2-3.6,2-6.2c0-2.3-0.7-4.3-2.2-6c-1.5-1.7-3.2-2.5-5.1-2.5s-3.6,0.8-5.1,2.5c-1.5,1.7-2.2,3.7-2.2,6c0,2.7,0.7,4.7,2,6.3
			c1.3,1.5,3.1,2.3,5.3,2.3C1551.3,348,1553.1,347.2,1554.4,345.6z"/>
		<path class="st2" d="M1588.2,338.6v10.6h-1.8v-10.6c0-2.2-0.3-3.8-1-4.9c-0.5-0.9-1.1-1.6-1.7-2s-1.6-0.7-2.8-0.9
			c-0.2,0-0.5-0.1-0.7-0.1c-1.7,0-3.2,0.6-4.7,1.9c-1.8,1.6-2.7,3.5-2.7,5.8v10.7h-1.7v-19.7h1.7v3.5c0.8-1.2,1.9-2.2,3.2-3
			c1.3-0.7,2.6-1.1,4.1-1.1c0.4,0,0.8,0,1.2,0.1c1.5,0.2,2.7,0.6,3.5,1.2c0.8,0.5,1.6,1.4,2.2,2.5
			C1587.8,334.1,1588.2,336,1588.2,338.6z"/>
		<path class="st2" d="M1623.7,341.8h-8.4c0-0.7,0-1.2,0-1.3c-1.1,1.1-2.4,1.7-3.8,1.7c-1.6,0-2.9-0.6-3.8-1.9
			c-0.9-1.2-1.4-2.5-1.4-4.2c0-0.4,0-0.8,0.1-1.2c0.3-1.7,1-3.1,2.2-4.1s2.6-1.6,4.3-1.5c1.7,0.1,3,0.2,4,0.3l0.3,0v10.7h5.2
			c0.4-1.4,0.6-2.9,0.6-4.5c0-3.3-0.9-6.2-2.8-8.6c-2-2.7-4.6-4-7.9-4s-5.8,1.3-7.6,4c-1.6,2.4-2.4,5.2-2.4,8.6
			c0,3.4,0.8,6.2,2.4,8.6c1.8,2.7,4.4,4,7.6,4c2.7,0,4.9-0.9,6.8-2.8l1.7,0.7c-2.3,2.4-5.2,3.7-8.5,3.7c-3.7,0-6.6-1.5-8.8-4.4
			c-2-2.7-3-5.9-3-9.7c0-3.8,1-7.1,3-9.8c2.2-3,5.1-4.5,8.8-4.5c3.7,0,6.8,1.5,9.1,4.4c2.2,2.7,3.3,6,3.3,9.9
			C1624.7,338,1624.4,340,1623.7,341.8L1623.7,341.8z M1615.3,336.1c0-0.2,0-1.1,0-2.7v-2.1c-1.4-0.1-2.3-0.1-2.8-0.2
			c-1.1-0.1-2,0.3-2.8,1c-1.1,0.9-1.6,2.3-1.6,4.1c0,1,0.2,1.8,0.6,2.4c0.7,1.2,1.6,1.8,2.7,1.8c1.1,0,2.1-0.5,2.8-1.4
			c0.7-0.9,1.1-1.9,1.1-3.1L1615.3,336.1z"/>
		<path class="st2" d="M1653.5,329.6v15.7c0,1.9,0,3.7,0,5.3c0,3.6-1.2,6.4-3.3,8.3c-1.1,1-2.5,1.6-4.4,1.8
			c-0.6,0.1-1.2,0.1-1.9,0.1c-1.1,0-2.5-0.1-4.2-0.4l0.3-1.7c1.7,0.3,3.1,0.4,4.2,0.4c2,0,3.8-0.6,5.2-1.8c1.6-1.4,2.4-3.6,2.5-6.8
			c0-0.3,0-0.6,0-1.1v-2.5v-1.2c-0.5,0.7-1.1,1.4-1.9,2c-1.6,1.4-3.4,2.1-5.4,2.1c-2.5,0-4.5-1-6.1-3.1c-1.4-1.9-2.1-4.1-2.1-6.7
			c0-0.7,0-1.3,0.1-2c0.5-2.8,1.7-5.1,3.7-6.8c1.9-1.6,4.1-2.4,6.7-2.2C1648.6,329.2,1650.8,329.3,1653.5,329.6z M1651.8,331.1
			c-2.9-0.2-4.7-0.3-5.4-0.3c-2-0.1-3.8,0.5-5.3,1.9c-1,0.8-1.7,2-2.2,3.4c-0.5,1.4-0.7,2.7-0.7,4.1c0,1.7,0.4,3.2,1.1,4.5
			c1.4,2.3,3.1,3.5,5.2,3.5c1.7,0,3.2-0.6,4.7-1.9c1.8-1.6,2.7-3.7,2.7-6.4C1651.8,334.6,1651.8,331.7,1651.8,331.1z"/>
		<path class="st2" d="M1697.3,338.5v10.7h-1.8v-10.7c0-2.2-0.4-3.9-1-5.2c-0.8-1.8-2.4-2.7-4.8-2.7c-1.5,0-3,0.6-4.5,1.9
			c-1.1,1-1.8,2.3-2.1,4.1c0,0.5,0,1.1,0,1.9v10.7h-1.8v-10.7c0-2.2-0.4-3.9-1-5.2c-0.8-1.8-2.4-2.7-4.8-2.7c-1.5,0-3,0.6-4.5,1.9
			c-0.8,0.7-1.3,1.5-1.7,2.5v14.2h-1.7v-19.7h1.7v2.2c1.7-1.9,3.7-2.9,6.1-2.9c0.4,0,0.8,0,1.2,0.1c3,0.4,4.9,1.9,5.8,4.3
			c0.5-0.9,1.1-1.6,1.9-2.3c1.6-1.4,3.3-2.1,5.2-2.1c0.4,0,0.8,0,1.2,0.1c2.6,0.4,4.4,1.4,5.3,3.2
			C1696.9,333.7,1697.3,335.8,1697.3,338.5z"/>
		<path class="st2" d="M1726.7,329.7v19.5h-1.7V347v-1.2c-0.5,0.7-1.1,1.4-1.8,2c-1.6,1.4-3.4,2.1-5.4,2.1c-2.4,0-4.5-1-6-3.1
			c-1.4-1.9-2.1-4.1-2.1-6.6c0-0.7,0.1-1.3,0.2-2c0.5-2.8,1.7-5.1,3.6-6.8c1.8-1.6,4-2.4,6.6-2.2
			C1721.8,329.3,1724,329.4,1726.7,329.7z M1725,339.9v-8.7c-2.9-0.2-4.7-0.3-5.3-0.3c-2-0.1-3.8,0.5-5.3,1.9
			c-0.9,0.8-1.7,2-2.2,3.4c-0.5,1.3-0.7,2.7-0.7,4.1c0,1.7,0.4,3.2,1.1,4.5c1.4,2.3,3.1,3.4,5.2,3.4c1.7,0,3.2-0.6,4.7-1.9
			C1724.1,344.7,1724.9,342.6,1725,339.9z"/>
		<path class="st2" d="M1742,326.2h-1.7v-1.7h1.7V326.2z M1742,329.5v19.7h-1.7v-19.7H1742z"/>
		<path class="st2" d="M1756.7,317.9h1.7v31.3h-1.7V317.9z"/>
		<path class="st2" d="M1773.4,346.8h2.4v2.4h-2.4V346.8z"/>
		<path class="st2" d="M1804.5,348.2c0,0.3,0,0.5,0,0.4c-1.5,0.4-2.9,0.7-4.4,0.9c-0.6,0.1-1.2,0.1-1.8,0.1c-2.6,0-4.7-0.7-6.4-2.2
			c-2-1.7-3.2-4.2-3.5-7.3c0-0.3,0-0.6,0-0.7c0-0.3,0-0.6,0-0.7c0-0.2,0-0.4,0-0.5c0.1-3,1.2-5.3,3.1-7c1.5-1.3,3.7-1.9,6.8-1.9
			c1.1,0,2.7,0.1,4.8,0.3v1.7c-2.3-0.2-4-0.3-5.2-0.3c-2.4,0-4.2,0.6-5.4,1.7c-1.4,1.3-2.2,3.3-2.3,5.8c0,0.2,0,0.6,0,1.1
			c0,0.3,0,0.6,0.1,0.9c0.4,2.7,1.3,4.6,2.6,5.7c1.5,1.3,3.2,1.9,5.1,1.9c1.4,0.1,2.6,0,3.7-0.3c0.4-0.1,1.3-0.3,2.8-0.7
			C1804.5,347.5,1804.5,347.9,1804.5,348.2z"/>
		<path class="st2" d="M1830.6,332.2c1.8,2,2.7,4.4,2.7,7.2c0,3.2-0.8,5.7-2.4,7.5c-1.6,1.8-3.8,2.7-6.6,2.7c-2.7,0-4.9-0.9-6.6-2.8
			c-1.7-1.8-2.5-4.3-2.5-7.5c0-2.8,0.9-5.2,2.7-7.2c1.8-2,3.9-3,6.3-3C1826.7,329.1,1828.8,330.1,1830.6,332.2z M1829.6,345.6
			c1.4-1.6,2-3.6,2-6.2c0-2.3-0.7-4.3-2.2-6c-1.5-1.7-3.2-2.5-5.1-2.5s-3.6,0.8-5.1,2.5c-1.5,1.7-2.2,3.7-2.2,6c0,2.7,0.7,4.7,2,6.3
			c1.3,1.5,3.1,2.3,5.3,2.3C1826.5,348,1828.2,347.2,1829.6,345.6z"/>
		<path class="st2" d="M1875.8,338.5v10.7h-1.8v-10.7c0-2.2-0.4-3.9-1-5.2c-0.8-1.8-2.4-2.7-4.8-2.7c-1.5,0-3,0.6-4.5,1.9
			c-1.1,1-1.8,2.3-2.1,4.1c0,0.5,0,1.1,0,1.9v10.7h-1.8v-10.7c0-2.2-0.4-3.9-1-5.2c-0.8-1.8-2.4-2.7-4.8-2.7c-1.5,0-3,0.6-4.5,1.9
			c-0.8,0.7-1.3,1.5-1.7,2.5v14.2h-1.7v-19.7h1.7v2.2c1.7-1.9,3.7-2.9,6.1-2.9c0.4,0,0.8,0,1.2,0.1c3,0.4,4.9,1.9,5.8,4.3
			c0.5-0.9,1.1-1.6,1.9-2.3c1.6-1.4,3.3-2.1,5.2-2.1c0.4,0,0.8,0,1.2,0.1c2.6,0.4,4.4,1.4,5.3,3.2
			C1875.4,333.7,1875.8,335.8,1875.8,338.5z"/>
	</g>
	<g>
		<path class="st3" d="M155.9,59.8c1.6-0.7,3.9-1.8,5.9-3.8c5-5,5.3-11.9,6.3-11.8c0.4,0,0.8,1.1,0.9,5.4c1.3-1.8,1.8-2.2,1.9-2.1
			c0.4,0.2-0.3,2.6-1.2,4.4c-0.4,0.8-0.9,1.6-1.3,2.1c-0.2,0.3-0.5,0.7-0.5,0.7c-0.2,0.3-0.4,0.5-0.6,0.7c0.6-0.3,1.2-0.7,1.8-1
			c0,0.9-0.2,1.6-0.4,2.1c-1.5,3.7-6.7,4.3-7.1,4.3c0.5,0.3,0.7,0.6,0.7,0.8c-0.1,0.5-1.6,0.8-4.5,0.8c-0.5-0.1-1-0.2-1.5-0.3
			C156.1,61.4,156,60.6,155.9,59.8z"/>
		<path class="st3" d="M130.9,25.5c1.4-1.2,3.5-2.6,6.3-3.4c7.1-2,13.9,1.5,14.2,0.5c0.1-0.4-0.7-1.3-4.8-3.8
			c2.4-0.2,2.9-0.5,2.9-0.7c0-0.5-2.6-1.1-4.8-1.3c-0.9-0.1-2,0-2.7,0.1c-0.4,0-0.9,0.1-0.9,0.1c-0.4,0.1-0.7,0.1-0.9,0.2
			c0.6-0.4,1.2-0.8,1.8-1.2c-0.9-0.5-1.6-0.7-2.2-0.8c-4.3-0.6-7.1,4-7.4,4.4c-0.1-0.6-0.2-1-0.4-1.1c-0.5-0.2-1.4,1.1-2.8,3.8
			c-0.1,0.5-0.3,1.1-0.4,1.6C129.5,24.4,130.2,24.9,130.9,25.5z"/>
		<path class="st2" d="M89.1,42.6c1.3-2.3,0.3-3.4,1.3-6.9c0.6-2.1,1.3-3.1,1.4-5.5c0-1.1-0.1-1.7-0.5-2.2c-0.7-0.8-2.2-1-3.7-0.4
			c-0.2,5.8-0.4,11.5-0.6,17.2C87.6,44.5,88.4,43.8,89.1,42.6z"/>
		<path class="st2" d="M119.8,93.1c2.6-0.1,3.2,1.3,6.7,2c2.1,0.4,3.3,0.2,5.5,1.3c1,0.5,1.5,0.9,1.7,1.5c0.4,1-0.1,2.4-1.4,3.5
			c-5.2-2.5-10.4-4.9-15.6-7.4C117.5,93.6,118.5,93.2,119.8,93.1z"/>
		<path class="st4" d="M104.4,98c-2.7-1.1-4.3-3.4-7.3-8.1c-2.2-3.3-4.9-8.3-7.3-14.8c-5.5-3.8-8.6-8.1-10.2-10.7
			c-2.1-3.4-4.4-7-3.8-10.9c0.4-2.7,2.1-4.5,6.9-8c5.8-4.2,9.5-6.1,23.6-13.3c2.7-1.4,5.7-2.9,10.1-3.7c1.6-0.3,5.1-0.9,8.8-0.2
			c7.5,1.3,12.6,6.8,15.1,9.6c6,6.5,14.6,20,10.8,30.9c-1.3,3.7-3.5,5.9-7.2,9.7c-3.4,3.4-6.9,5.5-13.8,9.7
			c-2.9,1.8-7.1,4.1-12.4,6.6C108.2,99,105.9,98.6,104.4,98z"/>
		<g>
			<path class="st2" d="M39,77.3c0.3,4.2,1.6,8.4,3.8,12.1c0.3,0,0.3-0.4,0.3-0.7c-0.4-2-1.2-3.9-1-5.9c0.2-2.2,0.2-4.2,0.8-6.3
				c0.9-3.2,2.1-6.3,3.6-9.2c0.2-0.4,0.5-1.4,0.9-1.7c1-0.7,2.1,1.9,2.5,2.8c1.1,2.5,2.5,4.9,4.1,7.2c0.2,0.2,0.4,0.5,0.6,0.4
				c0.5-0.2-1.1-2.9-1.2-3.6c-0.3-1.7-0.6-3.3-0.9-5c-0.3-2.2-1.2-6.1,0.9-7.5c2.2-1.4,6.4-4.7,10.3-3.8c2.2,0.5,4.1,1.2,5.4,1.8
				c0.8,0.4,1.1,1.4,0.5,2.1l-1.3,1.7c0,0-0.1,0.1-0.1,0.1c-0.3,0.5-1.7,3.1-0.6,5.8c1.1,2.8,3.3,6.2,3.7,6.7c0,0.1,0.1,0.1,0.1,0.1
				l1.7,2c0.1,0.1,0.1,0.1,0.1,0.2l10.4,17c0,0.1,0.1,0.1,0.1,0.2c0.3,0.7,2.3,5.2,4.3,6.6c2.1,1.6,5.3,3.1,6.5,2.9s1.9-0.3,4.3-1.2
				l0.5-0.2c0.8-0.3,1.8,0.4,1.8,1.3c0,0.5,0,0.9,0,1c0,1.5,0.5,3.1,0,4.4c-0.2,0.4-0.4,0.8-0.6,1.2c-0.6,1-0.8,2.2-1.5,3
				c-0.7,0.8-1.7,1.3-2.5,1.9c-0.9,0.6-1.9,1.2-2.9,1.8c-0.2,0.1-0.5,0.2-0.7,0.1l-4.3-0.5c-0.1,0-0.1,0-0.2,0l-8.2-2.1
				c0,0-1.4,0.1,0.7,1.6c1.3,0.9,4.5,2.2,6.8,3.2c0.8,0.3,1.1,1.2,0.8,1.9c-0.4,1-1.4,1.1-2.3,1.2c-0.8,0.1-1.4,0.4-2.1,0.8
				c-2.7,1.3-6.1,1.3-9,0c-0.7-0.3-1.3-0.7-2-0.9c-1-0.3-2.1-0.2-3.1-0.3c-2.2-0.1-4-0.8-6.1-1.4c-1.4-0.4-3,0.1-1,1.2
				c1.2,0.6,2.4,1.2,3.6,1.8c1,0.5,2.2,0.7,3.2,1.2c0.2,0.1,1.5,0.8,1.7,0.7l-5.6,2.6c0,0-1.9,0.6-5,3.1c-3.1,2.6-4.9,5.1-4.9,5.1
				s-1.3,1.4,0.6,1c4-2.5,10.5-6.1,11.5-6.7c0.1,0,0.2-0.1,0.2-0.1c0.8-0.2,5.8-1.6,9.2-2c2.3-0.2,4.7-0.6,6.9-1.1
				c2.2-0.5,4.2-0.6,6.2-1.8c2.3-1.4,4.7-2.8,7-4.3c1.2-0.8,2.3-1.5,3.2-2.6c1.7-1.9,2.4-4.5,3.4-6.8c0.9-2.2,1.6-4.7,1-7.2
				c-0.2-0.9-1.4-3.4-1.1-4.2c0.2-0.6,1.8-1.1,2.3-1.4c0,0-0.5,1.8-6.7-6.7c-2.2-3-10.2-13.4-6.1-16.5c0.6-0.4,1.3-0.8,1.9-1.1
				c15.9-9.6,31.9-19.2,47.9-28.8c-10.5,5.3-21,10.7-31.6,16c-5.3,2.7-10.5,5.3-15.8,8c-1.9,0.9-4.9,3.4-7,3.1
				c-2.2-0.3-4.3-3.4-5.5-5.1c-3.1-4.2-5.8-8.7-7.1-13.8c0.2,0.6-1.8,2.6-2.4,2.6c-0.9,0.1-2.6-1.4-3.5-1.8
				c-2.6-1.1-5.5-1.2-8.2-1.5c0,0-0.1,0-0.1,0c-0.7,0-7.4-0.2-11.7,4.5c-4.5,4.9-8.6,12.6-11.9,16.6c-1.4,1.7-2.9,3.3-4.4,5
				c-0.9,0.9-1.7,1.9-2.6,2.8c-0.7,0.8-1.3,1.8-2.1,2.5c-1.3,1.1-2.5,2.3-3.6,3.7c2.2,0,4.6-1,6.2-2.4c2-1.7,4.2-4.2,5.7-5.9
				c0.7-0.8,2-0.4,2.2,0.7l0.7,3.3c0,0.1,0.1,0.2,0.1,0.3l2.9,6.2c-0.4-2.2-0.9-4.4-1.3-6.6"/>
			<path class="st2" d="M83.5,93.3C80,87.5,76.5,81.8,73,76c-0.7-0.4-2-1.1-3.6-1.2c-4.9-0.4-8.7,4.4-8.3,4.9
				c0.1,0.1,0.5-0.1,2.3-0.6c2.3-0.6,3.7-1,5.4-0.7c0.6,0.1,1.6,0.3,2.8,1.1c2.7,4.4,5.4,8.9,8.1,13.3c0,0.8-0.1,1.9-0.5,3
				c-1.3,3.9-5,5.2-4.7,5.8c0.2,0.4,2.8,0.1,4.9-1.4C82.3,98,83.2,94.8,83.5,93.3z"/>
		</g>
		<ellipse transform="matrix(0.854 -0.5202 0.5202 0.854 -19.4943 81.5218)" class="st3" cx="135.5" cy="75.5" rx="4.3" ry="2.9"/>
		<ellipse transform="matrix(0.854 -0.5202 0.5202 0.854 -12.6992 84.4199)" class="st3" cx="144.1" cy="64.8" rx="2.3" ry="1.7"/>
		<ellipse transform="matrix(0.854 -0.5202 0.5202 0.854 -14.2698 80.4995)" class="st3" cx="136.3" cy="65.7" rx="1.5" ry="1.6"/>
		<ellipse transform="matrix(0.854 -0.5202 0.5202 0.854 -14.6229 53.7245)" class="st3" cx="88.4" cy="52.9" rx="4.1" ry="3.2"/>
		<ellipse transform="matrix(0.854 -0.5202 0.5202 0.854 -5.895 57.8658)" class="st3" cx="100.2" cy="39.4" rx="2.7" ry="2.2"/>
		<ellipse transform="matrix(0.854 -0.5202 0.5202 0.854 -11.1158 60.2214)" class="st3" cx="101.8" cy="49.9" rx="1.4" ry="1.5"/>
		<ellipse transform="matrix(0.854 -0.5202 0.5202 0.854 -26.5934 64.1775)" class="st3" cx="101.1" cy="79.5" rx="2.7" ry="2.3"/>
		<ellipse transform="matrix(0.854 -0.5202 0.5202 0.854 -20.4913 67.2696)" class="st3" cx="109.6" cy="70.1" rx="1.7" ry="1.2"/>
		<ellipse transform="matrix(0.854 -0.5202 0.5202 0.854 -1.0909 75.1128)" class="st3" cx="133.3" cy="39.5" rx="1.6" ry="1.8"/>
		<path class="st3" d="M129.6,97.5c-0.3,0.6-0.2,1.4,0.1,2c0.7,1.3,3.6,3.3,20.6-0.6c-0.7-0.5-1.4-1.1-2.1-1.6
			c0.7-0.5,1.6-1.3,2.4-2.7c0.9-1.6,1.4-3.7,1-3.9c-0.2-0.1-0.7,0.2-2.1,2.2c0.4-0.8,0.9-2.2,0.7-4c-0.2-1.2-0.8-2.6-1.1-2.5
			c-0.4,0-0.1,1.8-0.5,3.4c-1,3.6-5.5,5.1-7.1,5.6C135.4,97.3,130.6,95.2,129.6,97.5z"/>
		<path class="st2" d="M129.5,29.5c-1.2,0.1-2.2-1-2.3-1.1c-0.1-0.5-0.3-1.3-0.2-2.3c0-0.4,0.3-2.3,1.2-2.5c0.3,0,0.7,0.2,1.6,0.8
			c0.8,0.5,1.1,0.8,1.3,1C131.8,26.6,131.1,29.3,129.5,29.5z"/>
		<path class="st3" d="M89.6,31.3c-0.7-0.1-1.5-0.5-1.8-1.1c-0.9-1.2-1.6-5,9.5-18.4c0.2,0.9,0.4,1.8,0.6,2.7c0.8-0.4,2-0.8,3.6-0.8
			c1.9,0,4.1,0.6,4.1,1.1c0,0.2-0.5,0.5-3,0.8c0.9,0.1,2.5,0.3,4.1,1.5c1.1,0.8,2.1,2,1.9,2.3c-0.2,0.3-1.8-0.9-3.4-1.3
			c-3.8-0.9-7.2,2.4-8.3,3.6C92.3,26.1,92.2,31.5,89.6,31.3z"/>
		<path class="st2" d="M152,58.7c-0.7,1-0.1,2.4-0.1,2.6c0.4,0.4,1.1,0.8,1.9,1.2c0.4,0.1,2.2,0.8,2.8,0.1c0.2-0.2,0.1-0.8,0-1.8
			c-0.1-0.9-0.2-1.3-0.3-1.6C155.6,58,152.9,57.4,152,58.7z"/>
	</g>
	<g>
		<circle class="st5" cx="1493" cy="301" r="5"/>
		<circle class="st5" cx="1509" cy="301" r="5"/>
		<circle class="st5" cx="1525" cy="301" r="5"/>
	</g>
	<g>
		<path class="st4" d="M452.5,10.5c17.8-4,41.7-8.2,69.4-9.7c24-1.3,81.4-2.3,145.9,21.2c29.5,10.7,65.6,23.9,100.4,57.5
			c46,44.6,65,101.4,73.4,140.9c7.2,12.4,14.3,24.7,21.5,37c-4,0.6-8.5,0.9-13.4,0.6c-14.5-1-24.5-7.2-30.1-11.8
			c-14.2,1-30,1.1-47-0.4c-9.1-0.8-19.6,2.5-27.1-3.8c-3-2.5-6.8-7.3-9.5-13.5c-2.7-6.2-2-8.6-3.9-12.1c-4-7.5-13.2-8.6-20.8-9.1
			c-24.3-1.6-33.8,2.8-43.8,1.8c-34.5-3.7-31.7-68.2-52.7-63.8c-10.6,2.2-23,21.1-25.5,35.4c-1.7,9.8,1.6,15.5,0,16.7
			c-3.5,2.6-20.1-23-33.4-49.8c-9.6-19.3-16.2-36.6-20.6-49.5c-0.8,2.8-2.6,7.6-6.5,11.2c0,0-6.5,5.9-18.6,4.3
			c-22.5-3.1-60.1-85.4-62.5-90.7C449.4,18.8,451,14.6,452.5,10.5z"/>
		<path class="st3" d="M807.6,220.4c-5.6-5.8-10.7-9-11.3-9.4c-17.4-11.1-39-34.7-36.9-37.6c1.5-2.1,14.3,8.7,23.5,3.6
			c3.3-1.8,6-5.6,5.1-7.7c-0.2-0.7-1.2-2-13.4-3.4c-7.2-0.8-9.6-0.7-10.5-2.4c-1.4-2.8,3.9-6.3,2.6-9.4c-1.4-3.2-9-3.2-14.5-3.2
			c-5.7,0-7.1,0.9-11.1,0c-1-0.2-3.7-0.9-8.5-3.9c-0.8-0.5-14-8.6-12.8-11.3c1.2-2.8,16,4.6,36.3,1.1c6.4-1.1,12.8-3.2,12.8-5.3
			c0-2.8-11.1-2-19.8-10.5c-4.7-4.5-3.8-6.9-7.9-11.8c-2.8-3.3-6-5.3-25.6-11.6c-29.2-9.3-33.8-8.4-36.5-7.7
			c-4.9,1.3-9,3.7-11.3,1.7c-2.3-2-1.8-7.8,1.1-11.3c4.5-5.5,13.6-3.5,13.9-5.5c0.3-2-8-3.7-18.5-9.6c-8.2-4.6-8.3-6.4-14.1-9.4
			c-8.5-4.5-16.3-4.8-27.1-5.2c-23.9-0.7-31.1,5.4-37.8-0.3c-6.6-5.6-2.3-13.7-9.2-18.2c-7.1-4.6-13.2,2.8-26.7-0.2
			c-8.2-1.9-7.4-5-19-9c-8-2.8-14.4-3.4-21.3-4.1c-11.7-1.2-12.5,0.3-25.6-0.5c-16.4-0.9-24-3.7-25.2-1.1
			c-0.7,1.6,1.8,3.5,10.2,12.4c12.6,13.3,13.4,15.9,17.7,16.5c7.4,1,10.5-6,17.5-4c4.8,1.4,4.4,5,10,8.5c8.5,5.4,13.8-0.4,22.4,3.9
			c7.3,3.6,10.9,11.2,15.1,20.3c4.6,9.8,5.3,17,7.2,16.9c3.1-0.2,2.8-19.6,8.1-20.5c3-0.5,4.3,5.4,11.1,8.3
			c6.8,2.9,10.5-0.8,14.1,1.1c11.5,6.2-8,56.4,1,60.8c2.7,1.3,7.1-1.8,9.2-4c7.7-8.3,1.7-23.8,4.5-24.8c2.5-0.8,6.2,12.1,11.3,12.2
			c9.2,0.1,14.7-42.1,19.5-41.6c3.9,0.4,4.9,29.2,5.3,40.6c0.1,3.5,0.2,6.9,0.2,6.9c0,1.4,0,2.3,0,2.4c0.1,6.9,9.9,22.3,10.9,23.9
			c7.2,11.5,7.8,14.6,9,14.3c4.7-1.2-9.6-56-1.2-59.1c2.7-1,7,3.5,11.3,9.4c4.2-3.1,7.2-3.5,9.4-3c14.5,3.3,13.9,50.6,13.8,55.5
			c1.3,0.8,6.4,3.9,9.8,1.9c3.8-2.2,3.2-9.4,2.8-14.3c-1.1-12.6-6.4-18.9-4.7-20.2c1.9-1.4,11.3,3.7,13.4,11.8
			c1.8,6.6-2.7,10-0.2,15.6c2.4,5.5,7.6,4,10.7,9c5.5,8.9-6.3,21.4-1.3,26.9c2.5,2.8,8.3,2.7,11.7,0.4c7.4-4.9,4.6-20.6,6.4-20.7
			c1.5-0.1,1,11.3,8.3,16.6c5,3.7,8.7,0.9,12,4.3c0,0,3.2,3.4-1.3,26.9c0,0,6,3.2,8.8,2.1c5.6-2.1-0.6-21.4,5.2-24.3
			c5.8-3,18.4,13.6,21.3,18.1c6.3,2.8,16.1,7.4,17.7,5.2C818.1,231.2,808.8,221.6,807.6,220.4z"/>
		<path class="st6" d="M397,10.6c0.3-1.1,16.7,2.2,16.7,2.2c73.4,14.8,110.1,22.2,158.1,41.5c26,10.4,52.4,20.9,84.7,41.5
			c2.5,1.6,5.2,3.3,7.9,5.2c25.3,16.9,61.8,45.3,96.5,88.4c3.9,4.9,7,8.9,9.1,11.7c-1.9-5.2-5.9-15.8-12.4-28.2
			C671.9,10.6,396.5,12.4,397,10.6z"/>
	</g>
	<rect x="-11" y="-187" class="st7" width="787" height="187"/>
</g>
<g id="Layer_1_1_">
	<g>
		<polyline class="st8" points="476.4,300.6 454.9,292.8 442.9,306 428.6,304.3 		"/>
		<polyline class="st8" points="535.3,346.9 544.5,368.3 532.5,381.5 535.2,396 		"/>
		<ellipse transform="matrix(0.5224 -0.8527 0.8527 0.5224 -8.0595 591.5272)" class="st9" cx="524" cy="303" rx="57.2" ry="26.7"/>
		<path class="st3" d="M563.2,224.7c0,0,4.2,1.8,11.8,9s7.5,7.2,7.5,7.2s17.7-23,14.7-27.7c0,0,7.3,2.5,1.2,19.7
			c-6.1,17.2-8.2,17.5-8.2,17.5s3.2,4.4,1.8,8s-3.7,7.1-5.7,9.2s5.8,1.1,1,17.4c-4.8,16.3,3.2,22.5-23.5,44.9
			c-22.6,19-57,38-61.2,32.4c-1-1.4,0.1-3.9,0.9-5.5c13.6-28.1,55.6-96.4,54-97.9c-0.4-0.4-3.6,0.8-3.6,0.8l0,0c0,0-6,6.6-6.1,6.8
			c-3.2,3.6-18.9,21.4-66.5,75.7c0,0-4.6,6-6-14.4s-2.6-39.6,5-55c7.6-15.4,13.3-31.6,31.3-38.4c18-6.8,25.5-3.6,25.5-3.6
			s3.1-5.4,8.5-8.3c5.3-2.9,5.3-2.9,5.3-2.9c2.6-3.5,7.6-8.9,15.6-12.2c2.8-1.1,5.4-1.8,7.7-2.2c3.8,0.5,7.7,1,11.5,1.5
			c0,0-3.7,2.6-3.8,2.6l-2.1,1.5c0,0-3.6,1.9-3.6,1.9c0,0-6,3.1-6,3.2C568.1,218.8,565.6,221.7,563.2,224.7z"/>
		<path class="st2" d="M550.9,245.4c10.7,11,21,19.8,35.5,23.4c-0.3-0.4-0.5-0.8,0-1.3c1.9-2.1,4.3-5.7,5.7-9.2
			c1.4-3.5-1.8-7.9-1.8-7.9s2-0.3,8.2-17.5s-1.2-19.7-1.2-19.7c3,4.6-14.7,27.7-14.7,27.7s0,0-7.5-7.2s-11.8-9-11.8-9
			c2.4-3,4.9-6,7.3-9c0,0,6-3.1,6-3.2c0,0,3.6-1.9,3.6-1.9l2.1-1.5c0,0,3.7-2.6,3.8-2.6c-3.8-0.5-7.7-1-11.5-1.5
			c-2.3,0.4-4.9,1.1-7.7,2.2c-8,3.3-13,8.7-15.6,12.2c0,0,0,0-5.3,2.9c-4.8,2.6-7.8,7.2-8.4,8.1
			C542.1,235.4,546.2,240.6,550.9,245.4z"/>
		
			<ellipse transform="matrix(0.4916 -0.8708 0.8708 0.4916 34.5493 641.1219)" class="st2" cx="566.4" cy="291" rx="11.6" ry="8.7"/>
		
			<ellipse transform="matrix(0.6153 -0.7883 0.7883 0.6153 -10.4866 558.7012)" class="st9" cx="567.2" cy="290.1" rx="7.4" ry="6.5"/>
		<ellipse transform="matrix(0.623 -0.7822 0.7822 0.623 -14.0836 552.6969)" class="st6" cx="566.4" cy="291" rx="5.8" ry="5"/>
		<g>
			<ellipse transform="matrix(0.86 -0.5103 0.5103 0.86 -57.2103 303.2209)" class="st2" cx="524" cy="255.9" rx="11.5" ry="8.8"/>
			
				<ellipse transform="matrix(0.6311 -0.7757 0.7757 0.6311 -3.9452 501.2337)" class="st9" cx="525" cy="254.8" rx="7.7" ry="6.5"/>
			<ellipse transform="matrix(0.623 -0.7822 0.7822 0.623 -2.6155 506.3396)" class="st6" cx="524" cy="255.9" rx="5.8" ry="5"/>
			
				<ellipse transform="matrix(0.8291 -0.5591 0.5591 0.8291 -53.8836 336.5413)" class="st2" cx="523.6" cy="256.4" rx="2.2" ry="2.3"/>
		</g>
		
			<ellipse transform="matrix(0.8291 -0.5591 0.5591 0.8291 -66.7952 366.143)" class="st2" cx="565.5" cy="292.3" rx="2.2" ry="2.3"/>
		<g>
			
				<ellipse transform="matrix(0.8488 -0.5288 0.5288 0.8488 -68.9352 304.1573)" class="st2" cx="497.2" cy="272.6" rx="5" ry="2.3"/>
			
				<ellipse transform="matrix(0.8488 -0.5288 0.5288 0.8488 -65.8686 300.7288)" class="st2" cx="492.8" cy="265.5" rx="5" ry="2.3"/>
			
				<ellipse transform="matrix(0.8488 -0.5288 0.5288 0.8488 -71.6213 307.1508)" class="st2" cx="501.1" cy="278.8" rx="5" ry="2.3"/>
			
				<ellipse transform="matrix(0.8488 -0.5288 0.5288 0.8488 -74.7063 310.5897)" class="st2" cx="505.6" cy="285.9" rx="5" ry="2.3"/>
			
				<ellipse transform="matrix(0.8488 -0.5288 0.5288 0.8488 -77.9093 314.1664)" class="st2" cx="510.3" cy="293.3" rx="5" ry="2.3"/>
		</g>
		<g>
			<ellipse transform="matrix(0.3737 -0.9275 0.9275 0.3737 48.505 699.9324)" class="st2" cx="542.6" cy="314" rx="5.1" ry="2.2"/>
			
				<ellipse transform="matrix(0.3737 -0.9275 0.9275 0.3737 47.0905 690.8119)" class="st2" cx="535.1" cy="310.5" rx="5.1" ry="2.2"/>
			
				<ellipse transform="matrix(0.3737 -0.9275 0.9275 0.3737 49.7489 707.9207)" class="st2" cx="549.1" cy="317.1" rx="5.1" ry="2.2"/>
			
				<ellipse transform="matrix(0.3737 -0.9275 0.9275 0.3737 51.1715 717.0781)" class="st2" cx="556.6" cy="320.6" rx="5.1" ry="2.2"/>
			
				<ellipse transform="matrix(0.3737 -0.9275 0.9275 0.3737 52.6529 726.6042)" class="st2" cx="564.4" cy="324.3" rx="5.1" ry="2.2"/>
		</g>
		<g>
			
				<ellipse transform="matrix(0.1798 -0.9837 0.9837 0.1798 106.503 734.3359)" class="st2" cx="493.6" cy="303.3" rx="6.6" ry="7.8"/>
			
				<ellipse transform="matrix(0.7423 -0.6701 0.6701 0.7423 -75.385 409.1569)" class="st9" cx="494.2" cy="302.6" rx="4.7" ry="5.4"/>
			
				<ellipse transform="matrix(0.733 -0.6802 0.6802 0.733 -74.5279 416.7246)" class="st6" cx="493.6" cy="303.3" rx="3.6" ry="4.2"/>
			
				<ellipse transform="matrix(0.7048 -0.7094 0.7094 0.7048 -69.7317 439.5687)" class="st2" cx="493.3" cy="303.6" rx="1.3" ry="1.9"/>
		</g>
		<g>
			
				<ellipse transform="matrix(0.1798 -0.9837 0.9837 0.1798 109.753 796.1785)" class="st2" cx="532.3" cy="332.3" rx="6.6" ry="7.8"/>
			
				<ellipse transform="matrix(0.7423 -0.6701 0.6701 0.7423 -84.82 442.5619)" class="st9" cx="532.9" cy="331.6" rx="4.7" ry="5.4"/>
			
				<ellipse transform="matrix(0.733 -0.6802 0.6802 0.733 -83.9001 450.7897)" class="st6" cx="532.3" cy="332.3" rx="3.6" ry="4.2"/>
			
				<ellipse transform="matrix(0.7048 -0.7094 0.7094 0.7048 -78.8584 475.5877)" class="st2" cx="532" cy="332.5" rx="1.3" ry="1.9"/>
		</g>
		<g>
			
				<ellipse transform="matrix(0.1798 -0.9837 0.9837 0.1798 88.5346 798.1996)" class="st2" cx="522.9" cy="346" rx="6.6" ry="7.8"/>
			
				<ellipse transform="matrix(0.7423 -0.6701 0.6701 0.7423 -96.4445 439.8034)" class="st9" cx="523.5" cy="345.3" rx="4.7" ry="5.4"/>
			<ellipse transform="matrix(0.733 -0.6802 0.6802 0.733 -95.7508 448.0625)" class="st6" cx="522.9" cy="346" rx="3.6" ry="4.2"/>
			
				<ellipse transform="matrix(0.7048 -0.7094 0.7094 0.7048 -91.3749 472.9743)" class="st2" cx="522.6" cy="346.3" rx="1.3" ry="1.9"/>
		</g>
		<g>
			
				<ellipse transform="matrix(0.1798 -0.9837 0.9837 0.1798 84.6155 738.7334)" class="st2" cx="485.3" cy="318.6" rx="6.6" ry="7.8"/>
			
				<ellipse transform="matrix(0.7423 -0.6701 0.6701 0.7423 -87.7912 407.5416)" class="st9" cx="485.9" cy="317.9" rx="4.7" ry="5.4"/>
			
				<ellipse transform="matrix(0.733 -0.6802 0.6802 0.733 -87.1664 415.1662)" class="st6" cx="485.3" cy="318.6" rx="3.6" ry="4.2"/>
			
				<ellipse transform="matrix(0.7048 -0.7094 0.7094 0.7048 -83.0544 438.2079)" class="st2" cx="485" cy="318.9" rx="1.3" ry="1.9"/>
		</g>
		<path class="st8" d="M585.9,292.2c6,1.2,12,2.5,17.9,3.7c3-7.6,5.9-15.2,8.9-22.8c7.1-2.1,14.2-4.3,21.2-6.4"/>
		<polyline class="st8" points="503.1,238.9 494.8,220.1 512.8,200.3 510.6,178.8 		"/>
		<path class="st8" d="M574.7,319.7c0,0,16.8,16.2,0.9,32.2s-15.9,16-15.9,16l5.5,3.4"/>
		<path class="st8" d="M490.1,253.8c0,0-17.8-14.3-35.7,12.9l-6,8.6l-4.2-5.3"/>
	</g>
	<g>
		<path class="st7" d="M886.8,397.6c14.4,2.2,3.4-6.1,2-10.6c-1.4-4.5-27.4-0.6-65-5c-37.6-4.4-47.2,7.8-47.2,7.8l-8,10.3h16.6
			c13.5-5.5,30.4-7.4,30.4-7.4S872.4,395.4,886.8,397.6z"/>
		<path class="st7" d="M1107,387.5c0,0-13-9.8-20.6-9.8c-0.7,2-1.9,2.8-3.2,2.9c-0.7,4.4,3.3,12.3,3.3,12.3l6.4,7.1h28.1l-0.9-2.7
			L1107,387.5z"/>
		<path class="st7" d="M601,200v200h160.4c6.7-18.7,17.8-47,25.3-53.5c11.6-9.9,34.2-10.8,34.2-10.8l57.5,0.5
			c0,0,32.9,18.8,52.8,28.5s21.9-7.7,21.9-7.7l-0.1-0.1c0,0,0,0-0.1,0l-0.1-0.1c0,0-0.1-0.1-0.2-0.1l-0.2-0.1
			c-0.1-0.1-0.2-0.1-0.3-0.2l-1.7-1.1c-0.1,0-0.2-0.1-0.2-0.1l-1.9-1.2c-0.2-0.1-0.4-0.3-0.6-0.4l-3.2-2c-0.3-0.2-0.6-0.4-1-0.6
			l-7.7-5c-0.8-0.5-1.8-1.1-2.7-1.7l-1.8-1.2c-0.9-0.5-1.8-1.1-2.7-1.7l-3.6-2.3c0,0-0.1-0.1-0.2-0.1c-1-0.6-7.1-4.2-14.4-6.8
			c-4-1.3-8-2.2-12-2.8l0,0c-7.2-0.5-20.2-0.4-29.8-0.3c-8.1,0.5-15.7,0.8-22.5-0.4c-0.7-0.1-1.4-0.2-2.2-0.3l-8.7-0.6l-61,4.3
			c0,0,0,0,16.4-9.9s19.8-23.6,19.8-23.6s8.2-16.7,32.1-22.9c23.9-6.2,75.3,20.1,84.9,25.4s36.3,28.6,55.5,34.6s7.5-12.1,7.5-12.1
			l-28.1-15.8c0,0-45.2-27.1-60.3-32.3s-51.3-7.4-51.3-7.4l33.5-10.8l6.8-7.6c0,0,8.2-13.7,40.3-11.5c32.2,2.1,43.8,20.3,43.8,20.3
			s24.7,31.7,39.2,45.3c14.4,13.6,12.3-2.3,12.3-5.4s-28.9-36.2-37.1-43c-8.2-6.8-24.7-10.5-24.7-10.5l-34.3-19.5
			c0,0,38.3,0.6,72-2.6c33.7-3.2,31.3,3.6,39.5,11.2c8.2,7.5,9.7,34.8,11.8,44.6s0.1,31,0.1,31s18.4-14.5,19.7-26.6
			c1.3-12.1-8.3-24.2-25.5-54.4s50.7,21.8,65.8,45.2s-5.3,52.3-5.3,52.3l-28.7,16.8l36.2-0.2c36.9-0.2,47.9,14.2,52.8,25.5
			c3.1,7.3,1.7,21.3-0.4,31.7H1271V200H601z"/>
		<path class="st9" d="M966.3,400h28.2c-1.1-5.8-1.9-10.2-1.9-10.2L966.3,400z"/>
		<path class="st9" d="M844,328.5c0.8,0.1,1.5,0.2,2.2,0.3c6.8,1.2,14.3,0.8,22.5,0.4c-6.9,0.1-12,0.3-12,0.3L844,328.5z"/>
		<path class="st9" d="M936.2,391.1l-8.5-2.8l-12.3-6.8l-13-4.5c0,0-10.3-4.5-36.9-10.6S847,361,847,361c18.2-3,60.3,9.1,76,14
			c-2.2-1-4.7-1.9-7.5-2.6c-26-6.8-33.5-15.1-71.8-15.9s-38.3-0.8-38.3-0.8s35.6-9.9,45.1-7.6c9.6,2.3,38.3,4.5,54.7,11.4
			s36.2,17.8,36.2,17.8s15.1,6.4,16.5,0s-4.9-20.1-4.9-20.1s-2,17.4-21.9,7.7s-52.8-28.5-52.8-28.5l-57.5-0.5
			c0,0-22.6,0.9-34.2,10.8c-7.6,6.5-18.6,34.8-25.3,53.5h7.3l8-10.3c0,0,9.5-12.2,47.2-7.8c37.6,4.4,63.6,0.5,65,5
			c1.4,4.5,12.4,12.8-2,10.6c-14.4-2.2-71.2-5-71.2-5s-16.9,2-30.4,7.4h150.6C936.4,396.9,936.6,393.9,936.2,391.1z"/>
		<path class="st9" d="M1008.5,383c-2.5,1.6-4.6,2.6-6.7,3.2l3.4,13.8h28.1l-10.4-20.9C1016.6,379.9,1011.4,381,1008.5,383z"/>
		<path class="st9" d="M967.4,368.6c-0.5,4.5,7.2,2,12.4-0.1c-4.6-5.5-9.1-8.2-9.1-8.2l-12.3-12.1c0,0-3.4-1.8-9.1-4.7
			c1.9,1,3,1.6,3,1.6S968.1,361.7,967.4,368.6z"/>
		<path class="st9" d="M1056.5,377.9c-5.8,0-12.6,0-19.3,0.2c2.5,5.9,5.9,14.1,9.1,21.9h27.4c-1-0.9-1.9-1.7-2.9-2.7
			C1065.2,392.3,1060.3,384.8,1056.5,377.9z"/>
		<path class="st9" d="M1083.2,380.6c-3.8,0.3-9.3-4.8-11.8-3.4c-0.2,0.1-0.6,0.2-1.2,0.3l16.7,22.5h6l-6.4-7.1
			C1086.5,392.9,1082.6,385,1083.2,380.6z"/>
		<path class="st9" d="M1169.2,368.3c-4.8-11.3-15.8-25.7-52.8-25.5l-36.2,0.2l28.7-16.8c0,0,20.4-28.9,5.3-52.3s-83-75.4-65.8-45.2
			s26.8,42.3,25.5,54.4c-1.3,12.1-19.7,26.6-19.7,26.6s2-21.2-0.1-31s-3.6-37.1-11.8-44.6c-8.2-7.5-5.8-14.4-39.5-11.2
			c-33.7,3.2-72,2.6-72,2.6l34.3,19.5c0,0,16.4,3.7,24.7,10.5s37.1,40,37.1,43s2.1,18.9-12.3,5.4c-14.4-13.6-39.2-45.3-39.2-45.3
			s-11.7-18.1-43.8-20.3c-32.2-2.1-40.3,11.5-40.3,11.5l-6.8,7.6l-33.5,10.8c0,0,36.3,2.1,51.3,7.4c15.1,5.2,60.3,32.3,60.3,32.3
			l28.1,15.8c0,0,11.7,18.1-7.5,12.1s-45.9-29.3-55.5-34.6s-61-31.5-84.9-25.4c-23.9,6.2-32.1,22.9-32.1,22.9s-3.4,13.6-19.8,23.6
			s-16.4,9.9-16.4,9.9l56.6-11.3c0,0,36.6,3.8,43.5,3s26-3,39.7,2.3c2,0.8,4.3,1.8,6.7,2.9c-8.3-4.2-17.3-8.5-26-12.7
			c-30.1-14.4,63.6,22.7,79.3,31.8c5.5,3.1,10.6,6.9,15,10.6l10.4-16.7v-12.1c0,0,2.6,0.8,4.1,0.4c-6.1-7.6-12.8-15.7-18.6-23
			c-15.8-12-31.3-17.6-31.3-17.6l-12.4-12.1c0,0,18.4,9,33.1,16.2c-1.9-2.6-3.5-4.8-4.4-6.3c-3.3-5.7,5.7,1.8,17.3,12.7
			c1.3,0.7,2.5,1.2,3.3,1.7c7.8,4,27.7,24.3,31.1,32.8c1.3,1.5,2.4,2.7,3,3.5c0.6,0.8,1.1,1.5,1.6,2.2c2.8-0.6,6-2.7,6.7-6
			c0.4-2.2,1.8-5.9,3-10.5c-0.4-3.6-0.7-7.3-1-10.8c-1-12.7-3.8-23.9-5.3-28.9c-10.3-17.2-22-40-22-40s2-18.2,8.9-7.6
			c6.8,10.6,10.3,23.5,12.3,18.2c2.1-5.3,2.7-15.1,2.7-15.1s6.9-4.5,6.6,0.8c-0.4,5.3-3,18.2,0,22.7c3,4.5,2.3,13.6,5.1,21.2
			c2.7,7.6,5.5,25,4.8,34.8c-0.7,9.9,0.7,18,6.2,9.4c3-4.8,8.3-6.4,13.4-9c6.2-16.5,9.8-38.2,9.8-38.2v-24.2
			c3.6,2.3,5.6,12.6,6.8,23.4c2.1-13.7,3.7-25.5,5.6-19.6c3.4,10.6,4.8,31.8,4.8,31.8s-7.5,28-11.6,31.8c0,0-0.1,0.1-0.1,0.1
			l18.5-7.7l-29.4,25.8l-5.5,4.9c2.4,2.7,7.3,4.9,11.1,4.9c6.8,0,7.5,2.3,17.1,9.1s17.1-6.2,28,15.5c3.2,6.3,5.5,14.4,7.2,22.8h13.8
			c0.4-5.4,1.6-11.3,4.3-16.9c6.4-13.3,0.2-24.2-3-28.6c-1-1.3-1.7-2-1.7-2s0.7,0.7,1.7,2c5.8,7.2,24.4,32,18.8,45.2
			c0,0.1-0.1,0.2-0.1,0.3h5C1170.9,389.6,1172.3,375.6,1169.2,368.3z M850.8,299.7c-15-3.5-25.8,1.8-29.9,4.4
			c-1.2,0.8-1.9,1.3-1.9,1.3s0.7-0.5,1.9-1.3c6.8-4.6,30.5-19.8,45.3-16.9c17.4,3.4,24.6,11.3,24.6,11.3S870.3,304.2,850.8,299.7z
			 M914.9,260.8c-15-3.5-25.8,1.8-29.9,4.4c-1.2,0.8-1.9,1.3-1.9,1.3s0.7-0.5,1.9-1.3c6.8-4.6,30.5-19.8,45.3-16.9
			c17.4,3.4,24.6,11.3,24.6,11.3S934.4,265.4,914.9,260.8z"/>
		<path class="st9" d="M1120.2,397.3c0,0-30.9-27.1-33.7-19.5c7.5,0,20.6,9.8,20.6,9.8L1120.2,397.3z"/>
		<path class="st9" d="M952.7,356.9l-0.2-0.1C952.5,356.8,952.6,356.9,952.7,356.9z"/>
		<path class="st9" d="M935.7,346l-2.7-1.7C933.9,344.9,934.8,345.5,935.7,346z"/>
		<path class="st9" d="M952.9,357L952.9,357C952.8,357,952.8,357,952.9,357z"/>
		<path class="st9" d="M931.2,343.1l-2.7-1.7C929.4,342,930.3,342.5,931.2,343.1z"/>
		<path class="st9" d="M944.3,351.6l-1-0.6C943.7,351.2,944,351.4,944.3,351.6z"/>
		<path class="st9" d="M950.3,355.4l-0.2-0.1C950.1,355.3,950.2,355.3,950.3,355.4z"/>
		<path class="st9" d="M948.2,354l-0.6-0.4C947.7,353.8,948,353.9,948.2,354z"/>
		<path class="st9" d="M924.9,339.1c0,0,0,0-0.2-0.1C924.8,339,924.8,339,924.9,339.1z"/>
		<path class="st9" d="M952.2,356.6l-0.3-0.2C952,356.5,952.2,356.6,952.2,356.6z"/>
		<path class="st9" d="M910.4,332.2c-3.8-1.4-8-2.5-12-2.8C902.4,330,906.4,330.9,910.4,332.2z"/>
		<path class="st3" d="M1022.9,379.1l-1.5-3l-19.8,9.1l0.2,1c2.1-0.6,4.2-1.6,6.7-3.2C1011.4,381,1016.6,379.9,1022.9,379.1z"/>
		<path class="st3" d="M1022.8,358.7c0.9-2.7-8.1-14.8-19-28.4c-1.6,0.4-4.1-0.4-4.1-0.4V342l-10.4,16.7c8.5,7,14.6,13.6,16.4,15.1
			C1008.4,376.1,1020.7,364.8,1022.8,358.7z"/>
		<path class="st3" d="M957.9,377.2c-1.4,6.4-16.5,0-16.5,0s-19.7-10.9-36.2-17.8s-45.1-9.1-54.7-11.4s-45.1,7.6-45.1,7.6
			s0,0,38.3,0.8s45.8,9.1,71.8,15.9c2.8,0.8,5.3,1.6,7.5,2.6c3.8,1.2,6.1,1.9,6.1,1.9s36.2,9.1,52,7.6c15.7-1.5,8.2-1.5,2.7-10.6
			c-1.2-2-2.6-3.9-3.9-5.4c-5.2,2.2-12.9,4.6-12.4,0.1c0.7-6.8-15-23.5-15-23.5s-1.1-0.6-3-1.6c-6.9-3.5-17.2-8.8-28.6-14.4
			c-2.4-1.1-4.7-2.1-6.7-2.9c-13.7-5.3-32.8-3-39.7-2.3c-6.8,0.8-43.5-3-43.5-3l-56.6,11.3l61-4.3l8.7,0.6l12.6,1
			c0,0,5.1-0.1,12-0.3c9.6-0.2,22.6-0.2,29.8,0.3l0,0c4,0.3,8.1,1.4,12,2.8c7.3,2.6,13.4,6.2,14.4,6.8c0.1,0.1,0.2,0.1,0.2,0.1
			l3.6,2.3l2.7,1.7l1.8,1.2l2.7,1.7l7.7,5l1,0.6l3.2,2l0.6,0.4l1.9,1.2l0.2,0.1l1.7,1.1l0.3,0.2l0.2,0.1l0.2,0.1l0.1,0.1l0.1,0
			l0.1,0.1C953,357.1,959.2,370.8,957.9,377.2z"/>
		<path class="st3" d="M936.2,391.1c0.4,2.9,0.2,5.9-0.3,8.9h2.5c2.5-1.3,5.6-3,9.7-4.9L936.2,391.1z"/>
		<path class="st3" d="M1094.7,361.7c-9.6-6.8-10.3-9.1-17.1-9.1c-3.7,0-8.7-2.2-11.1-4.9l-8.9,7.9l10.9,19.7l1.6,2.1
			c0.6-0.1,1-0.2,1.2-0.3c2.5-1.4,8,3.6,11.8,3.4c1.4-0.1,2.5-0.9,3.2-2.9c2.8-7.6,33.7,19.5,33.7,19.5l0.9,2.7h8.9
			c-1.7-8.4-4.1-16.5-7.2-22.8C1111.8,355.6,1104.2,368.6,1094.7,361.7z"/>
		<path class="st3" d="M1048.7,361.7l-15.1,8.3c0,0,1.4,3.2,3.4,8c6.7-0.2,13.6-0.2,19.3-0.2
			C1051.7,369.3,1048.7,361.7,1048.7,361.7z"/>
		<path class="st3" d="M1079.5,326.1l3.4-1.4c0,0,0.1-0.1,0.1-0.1c4.1-3.8,11.6-31.8,11.6-31.8s-1.4-21.2-4.8-31.8
			c-1.9-5.9-3.6,5.9-5.6,19.6c1.4,13.7,1.4,28.1,1.4,28.1L1079.5,326.1z"/>
		<path class="st3" d="M1021.8,334.7c-3.4-8.5-23.3-28.8-31.1-32.8c-0.8-0.4-2-1-3.3-1.7C999.7,311.8,1014.9,327,1021.8,334.7z"/>
		<path class="st3" d="M1041.9,298.9l5.5,28c0,0,0,19.7,11.6,8.3c3.3-3.2,6.2-9,8.7-15.5c-5.1,2.6-10.4,4.2-13.4,9
			c-5.5,8.6-6.8,0.5-6.2-9.4c0.7-9.9-2.1-27.3-4.8-34.8s-2.1-16.7-5.1-21.2c-3-4.5-0.4-17.4,0-22.7s-6.6-0.8-6.6-0.8
			s-0.7,9.9-2.7,15.1c-2.1,5.3-5.5-7.6-12.3-18.2c-6.8-10.6-8.9,7.6-8.9,7.6s11.7,22.8,22,40c-0.5-1.9-0.9-2.9-0.9-2.9L1041.9,298.9
			z"/>
		<path class="st3" d="M941.4,277.7l12.4,12.1c0,0,15.6,5.6,31.3,17.6c-4.1-5.1-7.8-9.7-10.6-13.5
			C959.8,286.6,941.4,277.7,941.4,277.7z"/>
		<path class="st3" d="M1037.8,354.9c1.6-1.8-0.2-16.3-1.7-30.9c-1.2,4.5-2.5,8.2-3,10.5c-0.7,3.4-3.9,5.5-6.7,6
			C1032.3,348.9,1035.9,357,1037.8,354.9z"/>
		<path class="st6" d="M1068.6,375.4l-10.9-19.7l8.9-7.9l5.5-4.9l29.4-25.8l-18.5,7.7l-3.4,1.4l6.2-17.4c0,0,0-14.4-1.4-28.1
			c-1.1-10.8-3.2-21.1-6.8-23.4v24.2c0,0-3.5,21.7-9.8,38.2c-2.5,6.6-5.4,12.3-8.7,15.5c-11.6,11.4-11.6-8.3-11.6-8.3l-5.5-28
			l-13-17.4c0,0,0.3,1,0.9,2.9c1.4,5.1,4.3,16.2,5.3,28.9c0.3,3.5,0.6,7.1,1,10.8c1.5,14.6,3.4,29.1,1.7,30.9
			c-1.9,2.1-5.5-6-11.4-14.4c-0.5-0.8-1.1-1.5-1.6-2.2c-0.6-0.8-1.7-2-3-3.5c-6.9-7.7-22.1-23-34.4-34.5
			c-11.7-10.9-20.7-18.4-17.3-12.7c0.9,1.6,2.4,3.7,4.4,6.3c2.8,3.8,6.5,8.4,10.6,13.5c5.8,7.2,12.5,15.3,18.6,23
			c10.9,13.6,19.9,25.7,19,28.4c-2,6.1-14.4,17.4-17.1,15.1c-1.8-1.5-8-8.1-16.4-15.1c-4.5-3.7-9.6-7.5-15-10.6
			c-15.7-9.1-109.4-46.2-79.3-31.8c8.7,4.1,17.6,8.5,26,12.7c11.4,5.7,21.7,10.9,28.6,14.4c5.6,2.9,9.1,4.7,9.1,4.7l12.3,12.1
			c0,0,4.5,2.7,9.1,8.2c1.3,1.6,2.7,3.4,3.9,5.4c5.5,9.1,13,9.1-2.7,10.6c-15.7,1.5-52-7.6-52-7.6s-2.3-0.8-6.1-1.9
			c-15.7-4.9-57.8-17-76-14c0,0-8.2-0.8,18.5,5.3s36.9,10.6,36.9,10.6l13,4.5l12.3,6.8l8.5,2.8l12,4c-4.1,2-7.2,3.6-9.7,4.9h27.8
			l26.3-10.2c0,0,0.8,4.5,1.9,10.2h10.6l-3.4-13.8l-0.2-1l19.8-9.1l1.5,3l10.4,20.9h12.9c-3.1-7.8-6.6-16-9.1-21.9
			c-2-4.8-3.4-8-3.4-8l15.1-8.3c0,0,3,7.5,7.7,16.1c3.8,6.9,8.7,14.4,14.2,19.5c1,0.9,2,1.8,2.9,2.7h13.3l-16.7-22.5L1068.6,375.4z"
			/>
		<path class="st3" d="M820.9,304c-1.2,0.8-1.9,1.3-1.9,1.3S819.7,304.9,820.9,304z"/>
		<path class="st3" d="M866.2,287.2c-14.8-2.9-38.5,12.2-45.3,16.9c4.2-2.6,14.9-7.9,29.9-4.4c19.5,4.5,40-1.2,40-1.2
			S883.7,290.6,866.2,287.2z"/>
		<path class="st3" d="M885,265.2c-1.2,0.8-1.9,1.3-1.9,1.3S883.8,266,885,265.2z"/>
		<path class="st3" d="M930.3,248.3c-14.8-2.9-38.5,12.2-45.3,16.9c4.2-2.6,14.9-7.9,29.9-4.4c19.5,4.5,40-1.2,40-1.2
			S947.8,251.7,930.3,248.3z"/>
		<path class="st3" d="M1145,354.5c-1-1.3-1.7-2-1.7-2S1144,353.2,1145,354.5z"/>
		<path class="st3" d="M1145,354.5c3.2,4.3,9.4,15.3,3,28.6c-2.7,5.6-3.9,11.5-4.3,16.9h20c0-0.1,0.1-0.2,0.1-0.3
			C1169.4,386.5,1150.8,361.7,1145,354.5z"/>
	</g>
	<g>
		<path class="st7" d="M479,0c10.4,10.9,19.9,35.5,20.7,41.6c0.9,6.8-9.8,47.9-9.8,47.9l-42.2-34.1l-18.7-1.2c0,0-18.6-1.3-25.6,3.5
			c0.6,2.4,0,3.9-1.2,4.8c2.2,4.7,11,9.8,11,9.8l46.4,12.2c0,0,4.3,3.7,10,9.2c1.2,0.4,3.3,3.3,3.3,3.4c2.6,2.7,5.4,5.8,8.1,8.9
			c3.6,4,5.9,7.1,7.8,10.5c1.7,2.7,3.2,5.4,4.3,8c0.8,2,1.6,4,2.2,5.9c0,0,0,0,0,0.1c3,7,3.6,14.7,3.5,21.3c0,4.7-0.5,8.4-0.8,10.7
			c-0.5,5.2-4.4,9.4-10.5,15.8c-2.5,2.9-4.5,4.9-4.5,4.9s-1.1,1.1-2.6,2.6c-10.1,11-9.4,4.5-9.4,4.5c-0.5-4.9-13.7-20.4-13.7-20.4
			s-31.8-47.4-37.7-56.2s-11.9-12.1-21.4-15.2s7.4,19.4,7.4,19.4s13.7,19.9,26.9,39.5c2.9-2.6,2.6,3.8,2.6,3.9
			c6.2,9.2,12,18.1,16,24.5c13.1,20,6.7,28.6-1.1,39.1c-1.7,2.8-3.6,5.2-5.2,7.5c-9.1,14.8-44.8,34.4-44.8,34.4s3-19.1,7.3-35
			c-1.1-8.2-4-24.8-1.1-41.9c3.4-20-19-39.4-25.4-48.9s-15.9-8.4-15.9-8.4l-7.1,4.8c0,0,0,0,3.8,7s12.9,17.8,19,33.8
			c3.9,10.4,5.4,21.1,7.1,35.4c0.4-1.3,0.4-1.3,0.4-1.3s10.3,21.6,4.8,42.8c-0.5,1.9-1,3.7-1.5,5.5c-0.8,5.6-2.4,10.6-4.6,15.1
			c-4,10.8-9.5,19.3-20.1,25.7c-1.1,0.7-2.1,1.3-3.2,1.9c-4,3.3-8.9,6-14.3,8.1c-6.8,3.3-13.6,5.5-23.9,6.7
			c-12.9,2.4-23.4,2.8-23.4,2.8s0.2-0.2,0.6-0.6c-1,0.1-1,0.1-1,0.1l36-41.1c0,0,0.7-0.2,2-0.6c14.5-21.1,4.9-76.7,3.3-85.8
			c-1.7-9.5-9.3-13.9-9.3-13.9s-15,2.7-8.6,16.4c6.4,13.7,2.5,38.5,2.5,38.5s-8.4,31.3-17.9,57.7c0.1,0.5,4.5,34.1-48.8,42.2
			c-7.6,1.8-13,2.3-13,2.3l-38.4,5.5c-1.5,0.3-2.3,0.3-2.3,0.3l-9.4,1.4l-37.2,15.6c-1.4,0.9-3,1.6-5,2.1l5-2.1
			c15.1-10.3-7.1-46.7-27.8-61c-22.6-15.5,24.9-56,24.9-56s55.3-32.9,70.3-39.8c15-6.9-0.7-8-4.9-11.5c-4.2-3.5-26.2,16.6-64.5,35.9
			s-39.5,37.1-39.5,37.1l-2.3,39.7c0,0-20.5-70.9-16-87.8s25.3-31.8,25.3-31.8l54.5-35.6c0,0,43.1-2.5,68.1-5.5
			c25-3,15.7-21.1,15.7-21.1l0,0c0,0,0,0,0,0h-0.2c-0.1,0-0.1,0-0.2,0H263h0l-1.9,0c-0.4,0-0.8,0-1.3,0l-4.6,0c-0.8,0-1.8,0-2.8,0
			l-3.3,0c-0.8,0-1.7,0-2.7,0l-4.2,0c-0.9,0-1.8,0-2.8,0l-2.6,0c-1.7,0-3.6,0-5.6,0l-5.3,0c-0.1,0-0.1,0-0.2,0
			c-1.3,0-9.3,0.4-17.9,2.5c-4.6,1.2-8.9,2.9-13,4.9l0,0c-7.1,4-19.3,12.2-28.2,18.4c-7.4,5.5-14.3,10.6-21.4,13.8
			c-0.7,0.3-1.5,0.7-2.3,1.1l-8.6,4.8l-54.7,42.4c0,0,0,0,9.1-19.9s3.5-35.2,3.5-35.2s-3.1-21.2,15.5-42.2s83.9-27.8,96.4-28.8
			s52.7,4.8,74.6-1.4c21.9-6.3-0.8-16.4-0.8-16.4L241.4,68c0,0-60.1,2.2-77.6,6.6c-17.6,4.4-53.1,25.1-53.1,25.1l24.6-31.4l1.5-11.6
			c0,0-1.1-18.3,30.6-36.4s54.4-7.9,54.4-7.9s43.7,15.1,66,19.2s10.1-10,8.1-12.9S245.4,1.7,233.3,0.3c-12.1-1.4-30,5.3-30,5.3
			l-44.9,2.6c0,0,4.9-3.2,12.5-8.3H59v391h501V0H479z"/>
		<path class="st7" d="M409,5.1c2.8-1.9,5.5-3.6,8.2-5.1h-29l-13.3,28L409,5.1z"/>
		<path class="st7" d="M331.8,0h-10c4.1,6.6,7.2,12.3,7.2,12.3S330.6,7,331.8,0z"/>
		<path class="st10" d="M480.1,185.8c1.5-1.4,2.6-2.6,2.6-2.6s2-2.1,4.5-4.9C485.1,180.5,482.8,182.9,480.1,185.8
			C480.1,185.8,480.1,185.8,480.1,185.8z"/>
		<path class="st10" d="M480.6,105.8c0.1,0.1,0.1,0.1,0.2,0.2c-2.7-3.2-5.4-6.2-8.1-8.9l0,0C472.8,97.1,472.8,97.1,480.6,105.8z"/>
		<path class="st10" d="M388.7,66.6c-0.1,0.3-0.5,0.6-1,1.1l37.9,14L447,92.8l16.6,24.9c0,0,0,0-16.2-14.6s-27.5-13.4-46.4-16.6
			c-8.4-1.4-17.9-5.7-25.9-9.9c-5.5,3.6-11.9,7.9-18.1,12.4c10.8,7.2,29.2,19.8,38.2,26.7c13.3,10.2,16.1,36.8,16.1,36.8l-36.8-35.7
			l-30.4-17.9c-5.4,4.6-9.6,9.1-11.1,12.7c-1.3,3.2-2.7,5.4-4.2,7.3l23.6,22c0,0,16.6,29.1,19.2,40c2.6,10.9-8.5,19.4-8.5,19.4
			s-6.6-37.9-14.4-45.3s-26.3-26.9-26.3-26.9l-27,39.1l-8.2,12.1c0.1,1.1,0.2,2.4,0.3,3.8c2.4,34.3-0.4,59.4-0.4,59.4l-21.5,37.6
			l10.4-41.7c0,0,0.1-23.6-7.4-11.1c-0.3,0.5-0.6,1-1,1.6c-0.2,2.8-0.4,5.9-0.5,9c-0.6,21.5-26.9,64.4-26.9,64.4l12.9-53.5
			c-4.9,6.1-8.7,10.6-8.7,10.6s1.4-14.7,7.8-27.4c1-2,2.1-3.9,3.1-5.6l0-0.7c0,0-35.6,57-42.3,65.1c-6.7,8.1-11.4,17.1-12.9,19.7
			s-20.4,18.3-20.4,18.3l23.4-43.1c0,0,30.6-46.3,40.1-57.9s7.8-14.2,7.8-14.2l-5.3,2.5l-19.2,8.5L212,245.6
			c0,0-22.9,26.4-30.7,54.5l-7.8,28.1c0,0-27.7-25.9-30.3-36.1c-2.6-10.2,11.5-26.7,18.8-31.5c1.1-0.7,2.6-1.7,4.3-2.9
			c7.7-7.8,20.1-16.8,20.1-16.8s48-29.9,70.1-45.6c17.2-12.3,14-8.4,19.8-20c-1.6-3.9-3.7-7.5-6.2-10.4l-9.8,2.6l-16,1.1l-15.2,3.8
			c0,0-12.6,2.1-41.6,12.9s-20.8,6.5-20.8,6.5c15.2-14.4,62.7-29,80.6-34.2c-2.7,0.4-5.6,1.1-8.8,2.2c-28.9,9.7-41.3,6.4-77.9,29.7
			s-36.6,23.3-36.6,23.3s27.2-31.8,37.7-35.6s39-19.6,58.9-23.4c19.9-3.7,45.5-5.6,45.5-5.6s18.4-3.3,15.6-10.4
			c-2.8-7-17.5-16.4-17.5-16.4s9.3,18.1-15.7,21.1c-25,3-68.1,5.5-68.1,5.5L126,183.8c0,0-20.7,15-25.3,31.8
			c-4.6,16.8,16,87.8,16,87.8l2.3-39.7c0,0,1.2-17.7,39.5-37.1c38.3-19.4,60.3-39.4,64.5-35.9c4.2,3.5,19.9,4.6,4.9,11.5
			c-15,6.9-70.3,39.8-70.3,39.8s-47.5,40.4-24.9,56c20.7,14.3,42.9,50.7,27.8,61l37.2-15.6l9.4-1.4l0,0c0,0,0,0,2.8-0.4
			c8-1.6,32.3-8.8,66.9-40.7c42.7-39.4,42.7-39.4,42.7-39.4l-9.9,30v0c9.5-26.4,17.9-57.7,17.9-57.7s3.9-24.8-2.5-38.5
			c-6.4-13.7,8.6-16.4,8.6-16.4s7.6,4.4,9.3,13.9c1.6,9.1,11.2,64.7-3.3,85.8c7-2.4,30.6-12.1,38.8-37.1c6.2-19,8.4-25.7,9.2-28.1
			c-1.7-14.4-3.1-25.1-7.1-35.4c-6.1-16-15.2-26.9-19-33.9s-3.8-7-3.8-7l7.1-4.8c0,0,9.5-1.1,15.9,8.4c6.4,9.5,28.8,29,25.4,48.9
			c-2.9,17.1,0,33.7,1.1,41.9c1.9-7.1,4.1-13.6,6.4-17.4c7.4-12.6,4.1-28.8,13.1-47.4c2.7-5.6,4.5-8.3,5.7-9.4
			c-13.2-19.6-26.9-39.5-26.9-39.5s-17-22.5-7.4-19.4s15.5,6.5,21.4,15.2c5.9,8.8,37.7,56.2,37.7,56.2s13.2,15.5,13.7,20.4
			c0,0,2.5-22.5,0.4-36.9s1.1-10.8,1.1-10.8s5.7-17.5-1-37.3c-3.3-9.8-3-11.9-1.8-11.5c-5.6-5.6-10-9.2-10-9.2l-46.4-12.2
			c0,0-8.8-5.2-11-9.8C398.6,65.1,390.2,63.6,388.7,66.6z"/>
		<path class="st10" d="M226.1,121.7c0,0-0.1,0-0.2,0C225.9,121.7,226,121.7,226.1,121.7z"/>
		<path class="st10" d="M280.8,189l-8.7,12.9c0,0-0.9,3.1-2,8.6C275.1,208,283.6,201.8,280.8,189z"/>
		<path class="st10" d="M450.8,185.6c-4-6.4-9.9-15.3-16-24.5l0,0C434.8,161.1,434.8,161.1,450.8,185.6z"/>
		<path class="st10" d="M207.9,124.2c-4.5,1.1-9.1,2.6-13,4.9C199,127.1,203.3,125.4,207.9,124.2z"/>
		<path class="st10" d="M329.5,25.3c5.7,9.9,12.2,16.9,11.8,5.2c-0.2-6.5,3.7-11.4,6.9-17.1c-1-4.4-2.4-8.9-3.8-13.4h-12.6
			c-1.2,7-2.9,12.3-2.9,12.3s-3.1-5.7-7.2-12.3h-13C316.1,7.1,325.2,17.7,329.5,25.3z"/>
		<path class="st10" d="M365.1,41.2c4,1.1,10.1,0.1,13.6-2.2c6.5-4.3,8.5-2.5,22-2c13.4,0.6,12.1-16.7,36.4-2.7s52.8,55.1,52.8,55.1
			s10.7-41.1,9.8-47.9C498.9,35.5,489.4,10.9,479,0h-31.2c13,4.7,39.7,16,42.5,30.3c3.8,19.1-4,31.5-4,31.5s-18.5-15.8-21.7-37.6
			c-2.1-14-11.4-21-17.8-24.2h-29.7c-2.6,1.5-5.4,3.2-8.2,5.1L374.9,28l13.3-28h-12.6l-8.5,33L365.1,41.2z"/>
		<path class="st10" d="M143.1,162.2c0.8-0.4,1.5-0.7,2.3-1.1c7.1-3.1,14.1-8.2,21.4-13.8c-6.4,4.4-11.2,7.8-11.2,7.8L143.1,162.2z"
			/>
		<path class="st10" d="M302.4,320.1c-0.4,0.4-0.6,0.6-0.6,0.6s10.5-0.4,23.4-2.8c-1,0.1-2,0.2-3.1,0.3
			C308.8,319.5,304.1,320,302.4,320.1z"/>
		<path class="st10" d="M285.1,123.5c2.5,4.7,8.1-2.6,11.6-7.9c-7.8-2.4-13.9-2.2-13.9-2.2l-19.4-4c0,0-4.4,0.4-11.6,1.2
			c2.4-0.2,3.9-0.3,3.9-0.3S281.4,116.5,285.1,123.5z"/>
		<path class="st10" d="M403.2,57.7c7.1-4.8,25.6-3.5,25.6-3.5l18.7,1.2C447.6,55.4,401,48.6,403.2,57.7z"/>
		<path class="st10" d="M160.3,358.9l-5,2.1C157.3,360.5,159,359.8,160.3,358.9z"/>
		<path class="st10" d="M365.8,8.5c0,0.1,0,0.1,0,0.1l5.7-8.7H365C365.8,3.8,366.2,7,365.8,8.5z"/>
		<path class="st10" d="M209.7,341.4c-0.2,0-0.3,0.1-0.5,0.1l38.4-5.5c0,0,5.4-0.5,13-2.3l0,0C227,338.8,214.4,340.7,209.7,341.4z"
			/>
		<path class="st10" d="M363.3,303.1c-5.4,3.3-9.8,6-14.3,8.1C354.4,309.1,359.4,306.4,363.3,303.1z"/>
		<path class="st10" d="M203.3,5.7c0,0,17.9-6.7,30-5.3s60.7,15.4,62.6,18.3s14.2,17-8.1,12.9c-22.3-4.1-66-19.2-66-19.2
			s-22.7-10.2-54.4,7.9s-30.6,36.5-30.6,36.5l-1.5,11.6l-24.6,31.4c0,0,35.5-20.7,53.1-25.1s77.6-6.6,77.6-6.6l36.6-2.4
			c0,0,22.7,10.2,0.8,16.4c-21.9,6.3-62.2,0.5-74.6,1.4s-77.8,7.8-96.3,28.8s-15.5,42.2-15.5,42.2s5.6,15.3-3.5,35.2
			s-9.1,19.9-9.1,19.9l46-46.4c0,0,36.9-19.3,42.9-24.3c6-5,22.6-19.2,38.9-22.7c2.4-0.5,5.2-1,8.2-1.5c-10.6,1.2-21.8,2.6-32.6,4
			c-37.6,5,74.6-18,95.2-19.1c7.2-0.4,14.4,0.1,21,0.8l-1-22.6L290.6,66c0,0,3-0.8,4.1-2.2c-10.6-3.5-22.1-7.2-32.3-10.5
			c-22.6-1.7-40.8,2.7-40.8,2.7l-19.5-3.9c0,0,23.1-2.9,41.6-5.1c-3.5-1.3-6.3-2.4-8.2-3.4c-6.8-3.4,6.5-1.8,24.5,1.4
			c1.7-0.2,3.1-0.3,4.2-0.5c9.9-1,41.8,6.1,50.4,12.2c2.2,0.6,4,1.1,5.1,1.5c1,0.4,2,0.8,3,1.2c2.3-2.3,3.9-6.3,2.4-10
			c-1-2.4-2.1-6.8-3.9-12c-2.7-3.3-5.4-6.6-7.9-9.8C304.2,16,294.4,7,289.8,3c-2-1-4-2-6.1-3H170.9c-7.6,5.2-12.5,8.3-12.5,8.3
			L203.3,5.7z M130.9,130.1c-16.4,6-23.2,17.9-25.4,23c-0.6,1.6-0.9,2.5-0.9,2.5s0.3-0.9,0.9-2.5c3.4-8.8,16-38.2,31.9-44.7
			c18.6-7.7,30.5-4.5,30.5-4.5S152.2,122.3,130.9,130.1z M166.3,52.4c-16.4,6-23.1,17.9-25.4,23c-0.6,1.6-0.9,2.5-0.9,2.5
			s0.3-0.9,0.9-2.5c3.4-8.8,16-38.2,31.9-44.7c18.6-7.6,30.5-4.5,30.5-4.5S187.6,44.5,166.3,52.4z"/>
		<path class="st10" d="M261.2,121.5l-1.3,0C260.4,121.5,260.8,121.5,261.2,121.5z"/>
		<path class="st10" d="M255.3,121.6l-2.8,0C253.6,121.6,254.5,121.6,255.3,121.6z"/>
		<path class="st10" d="M263,121.5L263,121.5C263,121.5,263,121.5,263,121.5z"/>
		<path class="st10" d="M263.9,121.5h-0.2C263.8,121.5,263.8,121.5,263.9,121.5z"/>
		<path class="st10" d="M264.2,121.5L264.2,121.5C264.2,121.5,264.2,121.5,264.2,121.5z"/>
		<path class="st10" d="M492.9,124.6c-1.1-2.6-2.6-5.3-4.3-8c2.1,3.8,3.8,7.9,6.5,13.9C494.4,128.6,493.7,126.6,492.9,124.6z"/>
		<path class="st10" d="M449.7,224.7c-1.7,2.4-3.5,4.8-5.2,7.5C446.2,230,448,227.5,449.7,224.7z"/>
		<path class="st10" d="M242.3,121.6l-2.8,0C240.5,121.6,241.4,121.6,242.3,121.6z"/>
		<path class="st10" d="M498.6,151.8c-0.1,4.2-0.5,8-0.8,10.7C498.1,160.2,498.6,156.5,498.6,151.8z"/>
		<path class="st10" d="M236.9,121.7l-5.6,0C233.3,121.7,235.2,121.7,236.9,121.7z"/>
		<path class="st10" d="M391.2,260.4c-1.5,5.5-2.9,10.5-4.6,15.1C388.8,271,390.4,266,391.2,260.4z"/>
		<path class="st10" d="M249.2,121.6l-2.7,0C247.5,121.6,248.4,121.6,249.2,121.6z"/>
		<path class="st11" d="M143.2,292.2c2.6,10.2,30.3,36.1,30.3,36.1l7.8-28.1c7.8-28.1,30.7-54.5,30.7-54.5l14.6-20.9l-4.5,2
			c0,0-29.8,18.8-39.9,26s-21.8,13.4-21.8,13.4c0.2-2,2.6-5.1,5.9-8.4c-1.7,1.2-3.2,2.1-4.3,2.9C154.8,265.5,140.6,282,143.2,292.2z
			"/>
		<path class="st11" d="M206.9,341.9L206.9,341.9c0,0,0.8-0.1,2.3-0.3c0.2,0,0.3-0.1,0.5-0.1C206.9,341.9,206.9,341.9,206.9,341.9z"
			/>
		<path class="st11" d="M319.3,261.4c0,0,0,0-42.7,39.4c-34.6,31.9-58.9,39.1-66.9,40.7c4.7-0.7,17.3-2.6,50.9-7.7l0,0
			c53.3-8.1,48.8-41.7,48.8-42.2v0L319.3,261.4z"/>
		<path class="st11" d="M339.4,278.5c-1.2,0.4-2,0.6-2,0.6l-36,41.1c0,0,0,0,1-0.1c1.7-0.2,6.4-0.6,19.7-1.9
			c1.1-0.1,2.1-0.2,3.1-0.3c10.3-1.2,17.1-3.3,23.9-6.7c4.5-2.2,8.9-4.9,14.3-8.1c1-0.6,2.1-1.3,3.2-1.9
			c10.6-6.4,16.1-14.9,20.1-25.7c1.7-4.6,3.2-9.7,4.6-15.1c0.5-1.8,1-3.6,1.5-5.5c5.5-21.2-4.8-42.8-4.8-42.8s0,0-0.4,1.3
			c-0.8,2.4-3,9.1-9.2,28.1C370,266.3,346.3,276.1,339.4,278.5z"/>
		<path class="st11" d="M330.9,79.3c-0.9-3.2-17.1-9.2-36.2-15.5c-1.2,1.4-4.1,2.2-4.1,2.2l7.8,11.7l1,22.6
			c12.5,1.4,22.6,4,25.2,4.3C328.6,105.1,332.9,86.4,330.9,79.3z"/>
		<path class="st11" d="M284,161.2l-13.9,3.7c2.6,2.9,4.6,6.5,6.2,10.4C278,172.1,280.4,167.6,284,161.2z"/>
		<path class="st11" d="M202.1,52.1l19.5,3.9c0,0,18.3-4.4,40.8-2.7c-7.2-2.3-13.6-4.5-18.7-6.4C225.2,49.2,202.1,52.1,202.1,52.1z"
			/>
		<path class="st11" d="M357.4,65.9l-8.8,17.5c0,0,3.4,2.2,8.4,5.6c6.2-4.4,12.6-8.7,18.1-12.4C365,71.3,357.4,65.9,357.4,65.9z"/>
		<path class="st11" d="M264.2,44.5c-1.1,0.1-2.5,0.3-4.2,0.5c19,3.4,43.1,8.6,54.6,11.7C306,50.6,274.1,43.5,264.2,44.5z"/>
		<path class="st11" d="M342.7,66.2c0.4-2.8-10.7-15.6-21.5-28.8c1.8,5.1,2.9,9.5,3.9,12c1.5,3.7-0.1,7.7-2.4,10
			C333.6,63.8,342.3,69.4,342.7,66.2z"/>
		<path class="st11" d="M244.4,259.4c0,0,3.9-4.5,8.7-10.6l1.9-8.1l0.3-14.2c-1.1,1.7-2.1,3.6-3.1,5.6
			C245.8,244.7,244.4,259.4,244.4,259.4z"/>
		<path class="st11" d="M281.7,137.9c2.8,7-15.6,10.4-15.6,10.4s-25.6,1.8-45.5,5.6c-19.9,3.7-48.4,19.6-58.9,23.4
			s-37.7,35.6-37.7,35.6s0,0,36.6-23.3s49-20,77.9-29.7c3.2-1.1,6.1-1.8,8.8-2.2c4.3-1.2,7-1.9,7-1.9s40-14,53.9-25.3
			c13.9-11.3,6.8-6.6-4.2-12c-2.5-1.2-4.9-2.1-7.2-2.8c-3.5,5.4-9.1,12.6-11.6,7.9c-3.7-7-29.3-13.2-29.3-13.2s-1.5,0.1-3.9,0.3
			c-8.8,0.9-21.8,2.3-36.2,4c-3,0.5-5.8,0.9-8.2,1.5c-16.3,3.5-32.9,17.7-38.9,22.7S125.8,163,125.8,163l-46.1,46.4l54.7-42.4
			l8.6-4.8l12.5-7c0,0,4.8-3.4,11.2-7.8c8.9-6.2,21.1-14.4,28.2-18.4l0,0c3.9-2.2,8.6-3.8,13-4.8c8.6-2.1,16.6-2.4,17.9-2.5
			c0.1,0,0.2,0,0.2,0l5.3,0l5.6,0l2.6,0l2.8,0l4.2,0l2.7,0l3.3,0l2.8,0l4.6,0l1.3,0l1.9,0h0h0.6h0.2h0.2h0l0,0
			C264.2,121.5,278.9,130.8,281.7,137.9z"/>
		<path class="st11" d="M437.1,34.4c-24.2-14-23,3.2-36.4,2.7c-13.4-0.6-15.5-2.3-22,2c-3.5,2.3-9.6,3.3-13.6,2.2l-3.2,13.2l23,12.2
			l2.9,1.1c0.5-0.4,0.8-0.8,1-1.1c1.5-3,9.9-1.5,13.3-4.1c1.2-0.9,1.8-2.4,1.2-4.8c-2.2-9.1,44.4-2.3,44.4-2.3l42.2,34.1
			C489.9,89.5,461.3,48.5,437.1,34.4z"/>
		<path class="st11" d="M365.8,8.7c0-0.1,0-0.1,0-0.1c0.4-1.6,0-4.7-0.9-8.5h-4.6l3.2,12.2L365.8,8.7z"/>
		<path class="st11" d="M276,238.3l-10.4,41.7l21.5-37.6c0,0,2.8-25.1,0.4-59.4c-0.1-1.4-0.2-2.6-0.3-3.8l-6.5,9.7
			c2.9,12.8-5.7,19-10.7,21.4c-0.9,4.6-1.9,10.9-2.4,18.4c0.3-0.5,0.7-1.1,1-1.6C276.1,214.8,276,238.3,276,238.3z"/>
		<path class="st11" d="M287,0.8l23.5,8.7l23.2,23.6c0,0,12.7,19,16.3,0.8c1-5.2,0.1-12.6-1.8-20.5c-3.1,5.7-7.1,10.6-6.9,17.1
			c0.4,11.7-6.1,4.8-11.8-5.2c-4.4-7.6-13.4-18.2-20.8-25.3h-25.1c2.1,1,4.1,2.1,6.1,3C288,1.6,287,0.8,287,0.8z"/>
		<path class="st11" d="M344.2,98.9l-3.3-1.9L328,118.2l0.9,0.8c1.5-1.9,2.9-4.2,4.2-7.3C334.6,108,338.8,103.5,344.2,98.9z"/>
		<path class="st6" d="M350,33.8c-3.6,18.3-16.3-0.8-16.3-0.8L310.5,9.4l-23.5-8.7c0,0,1,0.8,2.7,2.3c4.6,4,14.4,12.9,23.6,24.6
			c2.5,3.2,5.2,6.5,7.9,9.8c10.8,13.2,21.9,26,21.5,28.8c-0.4,3.2-9.1-2.4-20-6.8c-1-0.4-2-0.8-3-1.2c-1.1-0.4-2.9-0.9-5.1-1.5
			C303.2,53.6,279,48.4,260,45c-18-3.2-31.3-4.8-24.5-1.4c1.9,0.9,4.7,2.1,8.2,3.4c5.1,1.9,11.6,4,18.7,6.4
			c10.2,3.3,21.7,7,32.3,10.5c19,6.3,35.3,12.3,36.2,15.5c2,7.1-2.3,25.8-6.4,25.4c-2.6-0.3-12.8-2.9-25.2-4.3
			c-6.6-0.8-13.9-1.2-21-0.8c-20.7,1.1-132.9,24-95.2,19.1c10.8-1.4,22.1-2.8,32.6-4c14.4-1.7,27.4-3.1,36.2-4
			c7.2-0.8,11.6-1.2,11.6-1.2l19.4,4c0,0,6-0.2,13.9,2.2c2.3,0.7,4.7,1.6,7.2,2.8c11,5.3,18.1,0.6,4.2,12s-53.9,25.3-53.9,25.3
			s-2.6,0.7-7,1.9c-17.9,5.2-65.5,19.8-80.6,34.2c0,0-8.2,4.4,20.8-6.5s41.6-12.9,41.6-12.9l15.2-3.8l16-1.1l9.8-2.6l13.9-3.7
			c-3.7,6.4-6,10.9-7.7,14.1c-5.8,11.6-2.6,7.7-19.8,20c-22.1,15.8-70.1,45.6-70.1,45.6s-12.5,9.1-20.1,16.8
			c-3.3,3.3-5.7,6.4-5.9,8.4c0,0,11.7-6.2,21.8-13.4s39.9-26,39.9-26l4.5-2l19.2-8.5l5.3-2.5c0,0,1.7,2.6-7.8,14.2
			c-9.5,11.6-40.1,57.9-40.1,57.9l-23.4,43.1c0,0,18.9-15.7,20.4-18.3c1.5-2.6,6.3-11.6,12.9-19.7c6.7-8.1,42.3-65.1,42.3-65.1
			l0,0.7l-0.3,14.2l-1.9,8.1l-12.9,53.5c0,0,26.3-42.9,26.9-64.4c0.1-3.2,0.2-6.2,0.5-9c0.6-7.5,1.6-13.8,2.4-18.4
			c1-5.4,2-8.6,2-8.6l8.7-12.9l6.5-9.7l8.2-12.1l27-39.1c0,0,18.5,19.4,26.3,26.9s14.4,45.3,14.4,45.3s11.1-8.5,8.5-19.4
			c-2.6-10.9-19.2-40-19.2-40l-23.6-22l-0.9-0.8l12.9-21.2l3.3,1.9l30.4,17.9l36.8,35.7c0,0-2.8-26.6-16.1-36.8
			c-9.1-6.9-27.4-19.4-38.2-26.7c-5-3.4-8.4-5.6-8.4-5.6l8.8-17.5c0,0,7.6,5.4,17.7,10.7c8,4.2,17.5,8.5,25.9,9.9
			c18.9,3.2,30.2,2.1,46.4,16.6c16.2,14.6,16.2,14.6,16.2,14.6L447,92.8l-21.4-11.1l-37.9-14l-2.9-1.1l-23-12.2l3.2-13.2l2-8.2
			l8.5-33h-4.1l-5.7,8.7l-2.3,3.5L360.3,0h-15.9c1.4,4.4,2.8,9,3.8,13.4C350.1,21.3,351,28.6,350,33.8z"/>
		<path class="st11" d="M426.5,166.7c-9,18.6-5.7,34.8-13.1,47.4c-2.3,3.9-4.5,10.4-6.4,17.4c-4.3,15.9-7.3,35-7.3,35
			s35.7-19.6,44.8-34.4c1.7-2.7,3.5-5.1,5.2-7.5c7.8-10.5,14.2-19.1,1.1-39.1c-16-24.5-16-24.5-16-24.5l0,0c0,0,0.3-6.4-2.6-3.9
			C431,158.4,429.2,161.1,426.5,166.7z"/>
		<path class="st11" d="M471.2,105.2c6.7,19.8,1,37.3,1,37.3s-3.2-3.7-1.1,10.8c2.1,14.4-0.4,36.9-0.4,36.9s-0.7,6.6,9.4-4.5l0,0
			c2.6-2.8,5-5.3,7.1-7.5c6.1-6.4,10-10.6,10.5-15.8c0.3-2.7,0.7-6.5,0.8-10.7c0.1-6.6-0.5-14.3-3.5-21.3c0,0,0,0,0-0.1
			c-2.6-6.1-4.3-10.2-6.5-13.9c-1.9-3.3-4.2-6.5-7.8-10.5c-0.1-0.1-0.1-0.1-0.2-0.2c-7.9-8.7-7.9-8.7-7.9-8.7l0,0
			c-0.1-0.1-2.1-3-3.3-3.4C468.2,93.3,467.9,95.4,471.2,105.2z"/>
		<path class="st11" d="M137.4,108.4c-15.8,6.5-28.4,36-31.8,44.7c2.2-5.1,9-16.9,25.4-23c21.3-7.8,37-26.2,37-26.2
			S156,100.8,137.4,108.4z"/>
		<path class="st11" d="M105.5,153.1c-0.7,1.5-0.9,2.5-0.9,2.5S104.9,154.7,105.5,153.1z"/>
		<path class="st11" d="M141,75.3c-0.7,1.5-0.9,2.5-0.9,2.5S140.4,76.9,141,75.3z"/>
		<path class="st11" d="M172.8,30.6c-15.8,6.5-28.4,36-31.9,44.7c2.2-5.1,9-16.9,25.4-23c21.3-7.8,37-26.2,37-26.2
			S191.4,23,172.8,30.6z"/>
		<path class="st11" d="M464.7,24.2c3.2,21.9,21.7,37.6,21.7,37.6s7.8-12.4,4-31.5C487.4,16,460.8,4.7,447.8,0h-0.9
			C453.3,3.2,462.6,10.2,464.7,24.2z"/>
	</g>
	<g>
		<path class="st7" d="M177.1,367.2c-1.9,1.4-16.1,12.1-34.8,9.2c-3.8-0.6-13.3-2.1-16.3-7.5l17.1-3.4l-17.6,3.1
			c-2.5-5.5,3.6-11,4.4-11.7c12.1-10.6,38.7-4.1,49.9-1.4c0.1,0,0.2,0,0.3,0.1c-1.5-2.3-3.1-4.7-4.7-7.1c-5-7.3-10-14.2-15-20.8
			c-3,4.5-9.7,8.6-10.9,9.4c-2.7,1.6-23.4,13.7-48,5.3c-5-1.7-17.6-6-20.7-14.5l23.4-1.1l-24.1,0.5c-2.5-8.4,6.5-15,7.6-15.8
			c17.8-12.6,52.6,2.9,67.2,9.3c0.1,0,0.2,0.1,0.3,0.1c-15.2-19.3-29.8-34.9-41.3-46.6c-1.3,2-3,3.7-4.7,5.3
			c-7.1,6.5-15,12.3-23.5,17.3c-10.2,6-21.6,10.7-33.6,11.1c-8.5,0.2-17.8-2.4-22.1-9.2c-1.4-2.3-3.1-7.9-2-11.5
			c-1.1-1.1-1.7-2.3-1.4-3.8c-0.8-2-1.3-4.3-1-6.8c0.9-10.6,13.4-18.7,23.5-19.9c5.1-0.6,11.2,1.6,23.4,6.1
			c14.1,5.2,14.5,7.2,20.1,7c5.6-0.2,9.5-2.4,14-3c-2.2-2.1-4.2-4.1-6-5.8c-12.1-11.7-23.9-22.2-35-31.5l-2.5,0.1
			c-0.3,0.3-0.6,0.6-1,0.9c-1.2,2.3-3.2,4.1-5.2,5.6c-6.2,4.7-13,8.6-20.2,11.7c-8.7,3.6-18.3,6-28,4.1c-2.9-0.5-5.8-1.6-8.5-3.1
			V400h206.1c-6.1-11.9-13.5-25.2-22.5-39.2C181.5,363.8,177.9,366.6,177.1,367.2z"/>
		<path class="st7" d="M0,115v26.9c1.7,0.8,3.2,1.7,4.4,2.6c4.4,3,7.5,6.7,15,21.8c3.8,7.7,8.8,18.5,14,31.7
			c10.4,7.6,20,15,28.9,22.2c-0.2-0.3-0.3-0.7-0.5-0.9c-6.7-13.6-22.8-46.1-8.8-62.3c0.9-1,8.2-9.2,17.3-6.7l-1,22.2l1.7-21.6
			c9.1,3.1,13.6,14.8,15.3,19.4c8.6,22.9-4.9,41.8-6.7,44.3c-0.9,1.2-6,8.1-11.4,10.4c13.7,11.4,25.6,22.1,35.7,31.8
			c2.7,2.6,5.8,5.5,9.2,8.9c-0.1-0.2-0.1-0.5-0.2-0.7c-4.2-17.5-14.3-59.3,4-73.6c1.2-0.9,10.6-8.1,19.7-2.6l-5.8,25.1l6.4-24.2
			c9,6.2,11.2,20.9,12,26.7c4.2,28.7-14.1,46.2-16.5,48.5c-1.1,1-6.8,6.2-12.3,8c10.4,10.5,22.9,24.1,36.5,40.9
			c0.5,0.7,1.2,1.5,1.9,2.3c-5.4-14.5-15.5-44.5,3.4-60c1.3-1,11.6-9.3,21.8-6.8l-5.8,22.2l6.5-21.6c10.1,3,12.9,14.7,14,19.3
			c5.4,22.8-14.5,41.7-17.1,44.2c-1.4,1.3-9.4,8.7-16.4,10.7c5.5,7.1,12.6,16.8,20,27.8c1.3-3.2,4-3.5,5.9-6.6
			c1.5-2.5,0.6-3.7,1.5-13c0.8-8,1.2-12.1,2.8-14.1c3.1-4.1,10.3-5.6,15.8-0.4c1.3,1.2,2.3,2.6,3.1,4.1c0.9,0.7,1.3,1.6,1.6,2.7
			c2.1,1.4,4.4,5.1,5.2,7c2.4,5.6,1.3,11.4-0.9,15.2c-3.2,5.4-8.4,8.2-13.9,9.8c-4.6,1.3-9.4,1.9-14.5,1.8c-0.9,0-1.7-0.1-2.6-0.3
			c3,4.7,6,9.5,8.9,14.5c5.5,9.4,10.3,18.8,14.4,27.6H285V115H0z"/>
		<path class="st7" d="M9.4,204.2c4.2,0.4,9,3.5,18.6,9.8c11.1,7.3,11.3,9.2,15.8,10c6.4,1.1,10.3-1.9,16.4,1.2c0,0,0,0,0.1,0
			C48.9,216,38.4,207.9,29,201.1c-7.2-1-17.6-3.2-29-8.4v13.1C3.1,204.5,6.4,204,9.4,204.2z"/>
		<path class="st12" d="M115.1,273.2l0.3-1.2c-0.2,0.1-0.3,0.3-0.5,0.4c-0.3,0.6-0.6,1.3-1,1.9c11.5,11.7,26.1,27.3,41.3,46.6
			c1.5,0.7,3.6,1.7,4.9,3.2l1.8-0.1c-0.1,1.2-0.6,2.4-1.4,3.6c5,6.5,10,13.5,15,20.8c1.6,2.4,3.2,4.7,4.7,7.1
			c1.1,0.3,2.6,0.8,3.7,1.6l0.4-0.1c-0.1-1.2-0.1-2.6,0.2-4c0.1-0.5,0.2-0.9,0.4-1.3c-7.3-11-14.5-20.6-20-27.8
			c-1,0.3-1.9,0.5-2.8,0.5l0.5-1.6c-1.8-1.3-2.7-3.4-3.2-4.8c-0.2-0.6-0.5-1.4-0.8-2.1c-0.7-0.9-1.3-1.7-1.9-2.3
			c-13.6-16.9-26.1-30.4-36.5-40.9C118.4,273.3,116.7,273.6,115.1,273.2z"/>
		<path class="st12" d="M188.8,357.9c-0.8-0.2-1.6-0.4-2.4-0.9c-0.3,0-0.6,0-0.9-0.1l-0.4,0.4c-0.1,1.1-0.7,2.3-1.5,3.5
			c8.9,14,16.4,27.3,22.5,39.2h6c-4.1-8.9-8.9-18.2-14.4-27.6C194.8,367.4,191.8,362.5,188.8,357.9z"/>
		<path class="st12" d="M60.3,225.3c2.5,1.3,4.2,3,5.4,4.3h-0.2c11.1,9.3,22.9,19.8,35,31.5c1.8,1.8,3.8,3.7,6,5.8
			c1.8-0.2,3.8-0.2,6,0.3c0.4,0.1,0.8,0.2,1.2,0.3c-0.2-0.7-0.4-1.4-0.6-2c-3.4-3.4-6.6-6.4-9.2-8.9c-10.1-9.6-21.9-20.4-35.7-31.8
			c-1,0.4-1.9,0.7-2.9,0.7l0.1-1.6c-1.4-1.1-2.4-2.6-3-3.9c-8.9-7.2-18.5-14.7-28.9-22.2c-5.1-13.2-10.1-24-14-31.7
			c-7.5-15.1-10.6-18.8-15-21.8c-1.3-0.9-2.8-1.8-4.4-2.6v7.5c3.7,2.9,6.7,6.5,9.1,10.4c3.2,5,5.6,10.5,7.3,16.3
			c0.6,2.1,1,4.4,0.3,6.6c-1.3-2.5-3.1-4.8-5-6.9c-0.5-0.6-1.1-1.1-1.6-1.7c-0.3-0.3-0.6-0.5-0.8-0.8c-0.5-0.5-1-1-1.5-1.4
			c-0.3-0.2-0.5-0.5-0.8-0.7c-0.6-0.5-1.2-1-1.8-1.5c-0.2-0.2-0.4-0.4-0.7-0.6c-0.8-0.6-1.5-1.3-2.3-2c-0.7-0.6-1.4-1.2-2.2-1.8
			v27.3c11.4,5.3,21.8,7.4,29,8.4C38.4,207.9,49,216,60.3,225.3z"/>
		<path class="st12" d="M162.6,322.9l15.4-51.5l5.8-22.2c-10.2-2.4-20.5,5.8-21.8,6.8c-18.9,15.5-8.8,45.5-3.4,60
			c0.3,0.7,0.5,1.4,0.8,2.1C159.9,319.5,160.8,321.6,162.6,322.9z"/>
		<path class="st13" d="M162.6,322.9l-0.5,1.6c0.9,0,1.8-0.2,2.8-0.5c7-2,15-9.4,16.4-10.7c2.7-2.5,22.5-21.4,17.1-44.2
			c-1.1-4.6-3.8-16.3-14-19.3l-6.5,21.6L162.6,322.9z"/>
		<path class="st12" d="M8.5,232.9c0.4,0.2,0.7,0.4,1.1,0.5c0.6,0.3,1.2,0.5,1.8,0.8c0.1,0,0.1,0.1,0.2,0.1c0.6,0.2,1.2,0.4,1.9,0.6
			c1.1,0.3,2.2,0.6,3.4,0.7c6.2,1.6,12.5,1.1,18.5,0.3c0.7-0.1,1.4-0.2,2-0.3c0.1,0,0.2,0,0.3,0c0.6-0.1,1.2-0.2,1.8-0.2
			c0.2,0,0.3,0,0.4-0.1c0.6-0.1,1.2-0.2,1.8-0.2c0.1,0,0.2,0,0.3-0.1c0.7-0.1,1.4-0.2,2.1-0.3c0,0,0.1,0,0.1,0
			c0.6-0.1,1.2-0.2,1.8-0.3c0.3-0.1,0.5-0.1,0.8-0.1c0.3-0.1,0.7-0.1,1-0.2c0.4-0.1,0.7-0.1,1.1-0.2c0.2,0,0.4-0.1,0.6-0.1
			c4.4-0.9,8.7-2.2,12.7-4.2c-0.1,0.3-0.2,0.6-0.4,0.9c0.3-0.3,0.7-0.6,1-0.9l2.5-0.1h0.2c-1.1-1.3-2.9-3-5.3-4.3c0,0,0,0-0.1,0
			c-6.1-3.1-10-0.1-16.4-1.2c-4.6-0.8-4.7-2.7-15.8-10c-9.6-6.3-14.4-9.5-18.6-9.8c-3-0.3-6.3,0.3-9.4,1.5v23.8
			c0.7,0.4,1.3,0.8,1.9,1.1C4,231.5,6.2,232.3,8.5,232.9z"/>
		<path class="st13" d="M44.1,234.8c-0.7,0.1-1.4,0.2-2.1,0.3C42.7,235,43.4,234.9,44.1,234.8z"/>
		<path class="st13" d="M11.4,234.2c-0.6-0.2-1.2-0.5-1.8-0.8C10.1,233.8,10.8,234,11.4,234.2z"/>
		<path class="st13" d="M41.7,235.2c-0.6,0.1-1.2,0.2-1.8,0.2C40.5,235.3,41.1,235.2,41.7,235.2z"/>
		<path class="st13" d="M37.3,235.7c-0.7,0.1-1.4,0.2-2,0.3C36,235.9,36.7,235.8,37.3,235.7z"/>
		<path class="st13" d="M13.4,234.9c-0.6-0.2-1.2-0.4-1.9-0.6C12.2,234.5,12.8,234.8,13.4,234.9z"/>
		<path class="st13" d="M47.9,234.1c-0.3,0.1-0.7,0.1-1,0.2C47.2,234.3,47.6,234.2,47.9,234.1z"/>
		<path class="st13" d="M39.5,235.5c-0.6,0.1-1.2,0.2-1.8,0.2C38.2,235.6,38.9,235.5,39.5,235.5z"/>
		<path class="st13" d="M46.1,234.5c-0.6,0.1-1.2,0.2-1.8,0.3C44.9,234.7,45.5,234.6,46.1,234.5z"/>
		<path class="st13" d="M49.7,233.8c-0.2,0-0.4,0.1-0.6,0.1C49.2,233.9,49.4,233.9,49.7,233.8z"/>
		<path class="st13" d="M36.5,247.7c7.2-3,14-6.9,20.2-11.7c2-1.5,4-3.3,5.2-5.6c0.2-0.3,0.3-0.6,0.4-0.9c-4,2-8.3,3.3-12.7,4.2
			c-0.2,0.1-0.4,0.1-0.6,0.1c-0.4,0.1-0.7,0.1-1.1,0.2s-0.7,0.1-1,0.2c-0.3,0.1-0.5,0.1-0.8,0.1c-0.6,0.1-1.2,0.2-1.8,0.3
			c0,0-0.1,0-0.1,0c-0.7,0.1-1.4,0.2-2.1,0.3c-0.1,0-0.2,0-0.3,0.1c-0.6,0.1-1.2,0.2-1.8,0.2c-0.2,0-0.3,0-0.4,0.1
			c-0.6,0.1-1.2,0.2-1.8,0.2c-0.1,0-0.2,0-0.3,0c-0.7,0.1-1.4,0.2-2,0.3c-5.9,0.8-12.3,1.2-18.5-0.3c-1.1-0.1-2.3-0.4-3.4-0.7
			c-0.6-0.2-1.2-0.4-1.9-0.6c-0.1,0-0.1-0.1-0.2-0.1c-0.6-0.2-1.2-0.5-1.8-0.8c-0.4-0.2-0.7-0.3-1.1-0.5c-2.2-0.7-4.4-1.4-6.6-2.4
			c-0.6-0.3-1.2-0.6-1.9-1.1v19.3c2.7,1.5,5.6,2.5,8.5,3.1C18.3,253.7,27.9,251.4,36.5,247.7z"/>
		<path class="st12" d="M65.3,224l3.9-51.6l1-22.2c-9.1-2.5-16.4,5.7-17.3,6.7c-14,16.2,2.1,48.6,8.8,62.3c0.1,0.3,0.3,0.6,0.5,0.9
			C63,221.4,64,223,65.3,224z"/>
		<path class="st13" d="M65.3,224l-0.1,1.6c0.9-0.1,1.9-0.3,2.9-0.7c5.4-2.3,10.5-9.2,11.4-10.4c1.8-2.5,15.3-21.4,6.7-44.3
			c-1.7-4.6-6.2-16.4-15.3-19.4l-1.7,21.6L65.3,224z"/>
		<path class="st12" d="M42.2,286.7c2.7,0.5,5.4,0.8,8.2,1c0.5,0.1,0.9,0.2,1.4,0.3c0.8,0.1,1.5,0.3,2.3,0.4c0.1,0,0.2,0,0.3,0
			c0.8,0.1,1.5,0.2,2.3,0.2c1.4,0.1,2.8,0.1,4.2,0c7.6,0.2,15.3-1.8,22.4-4c0.8-0.2,1.6-0.5,2.4-0.7c0.2,0,0.3-0.1,0.4-0.1
			c0.7-0.2,1.4-0.5,2.2-0.7c0.2-0.1,0.4-0.1,0.5-0.2c0.7-0.2,1.4-0.5,2.1-0.7c0.1,0,0.3-0.1,0.4-0.1c0.8-0.3,1.7-0.5,2.5-0.8
			c0.1,0,0.1,0,0.2-0.1c0.7-0.2,1.4-0.5,2.1-0.7c0.3-0.1,0.7-0.2,1-0.4c0.4-0.1,0.8-0.3,1.3-0.5c0.4-0.2,0.9-0.3,1.3-0.5
			c0.3-0.1,0.5-0.2,0.8-0.3c5.3-2,10.3-4.4,15-7.5c-0.1,0.4-0.3,0.7-0.4,1.1c0.2-0.1,0.3-0.3,0.5-0.4l0.2-0.6
			c-0.9-1.2-1.5-2.5-2-3.9c-0.4-0.1-0.8-0.2-1.2-0.3c-2.2-0.5-4.2-0.6-6-0.3c-4.5,0.6-8.4,2.7-14,3s-5.9-1.8-20.1-7
			c-12.2-4.5-18.3-6.7-23.4-6.1c-10.1,1.2-22.5,9.3-23.5,19.9c-0.2,2.5,0.2,4.8,1,6.8c-0.3,1.5,0.4,2.8,1.4,3.8
			c0.3-1,0.7-1.8,1.4-2.4C32.4,282.4,38.6,286,42.2,286.7z"/>
		<path class="st13" d="M85.6,283.9c-0.8,0.2-1.6,0.5-2.4,0.7C84,284.4,84.8,284.1,85.6,283.9z"/>
		<path class="st13" d="M98.3,279.7c-0.4,0.1-0.8,0.3-1.3,0.5C97.5,280,97.9,279.8,98.3,279.7z"/>
		<path class="st13" d="M88.2,283.1c-0.7,0.2-1.4,0.5-2.2,0.7C86.7,283.5,87.4,283.3,88.2,283.1z"/>
		<path class="st13" d="M96.1,280.5c-0.7,0.2-1.4,0.5-2.1,0.7C94.7,281,95.4,280.7,96.1,280.5z"/>
		<path class="st13" d="M90.8,282.2c-0.7,0.2-1.4,0.5-2.1,0.7C89.4,282.7,90.1,282.5,90.8,282.2z"/>
		<path class="st13" d="M54,288.4c-0.8-0.1-1.5-0.2-2.3-0.4C52.5,288.1,53.2,288.3,54,288.4z"/>
		<path class="st13" d="M100.3,278.9c-0.3,0.1-0.5,0.2-0.8,0.3C99.8,279.1,100.1,279,100.3,278.9z"/>
		<path class="st13" d="M93.8,281.3c-0.8,0.3-1.7,0.5-2.5,0.8C92.1,281.8,92.9,281.5,93.8,281.3z"/>
		<path class="st13" d="M56.6,288.6c-0.8-0.1-1.5-0.1-2.3-0.2C55,288.5,55.8,288.6,56.6,288.6z"/>
		<path class="st13" d="M115.3,271.4c-4.7,3.1-9.7,5.5-15,7.5c-0.3,0.1-0.5,0.2-0.8,0.3c-0.4,0.2-0.8,0.3-1.3,0.5
			c-0.4,0.1-0.8,0.3-1.3,0.5c-0.3,0.1-0.7,0.2-1,0.4c-0.7,0.2-1.4,0.5-2.1,0.7c-0.1,0-0.1,0-0.2,0.1c-0.8,0.3-1.7,0.5-2.5,0.8
			c-0.1,0-0.3,0.1-0.4,0.1c-0.7,0.2-1.4,0.5-2.1,0.7c-0.2,0.1-0.4,0.1-0.5,0.2c-0.7,0.2-1.4,0.5-2.2,0.7c-0.2,0-0.3,0.1-0.4,0.1
			c-0.8,0.2-1.6,0.5-2.4,0.7c-7.1,2.2-14.8,4.2-22.4,4c-1.4,0.1-2.8,0.1-4.2,0c-0.8-0.1-1.5-0.1-2.3-0.2c-0.1,0-0.2,0-0.3,0
			c-0.8-0.1-1.5-0.2-2.3-0.4c-0.5-0.1-0.9-0.2-1.4-0.3c-2.7-0.2-5.5-0.5-8.2-1c-3.6-0.7-9.8-4.3-12.8-1.8c-0.7,0.6-1.1,1.4-1.4,2.4
			c-1,3.6,0.6,9.2,2,11.5c4.3,6.9,13.6,9.5,22.1,9.2c12-0.3,23.4-5.1,33.6-11.1c8.5-4.9,16.3-10.7,23.5-17.3
			c1.7-1.6,3.5-3.4,4.7-5.3c0.4-0.6,0.7-1.2,1-1.9C115.1,272.1,115.2,271.8,115.3,271.4z"/>
		<path class="st12" d="M115.6,271.4l15.1-57.7l5.8-25.1c-9.1-5.6-18.5,1.6-19.7,2.6c-18.2,14.3-8.2,56.1-4,73.6
			c0.1,0.2,0.1,0.5,0.2,0.7c0.2,0.6,0.3,1.3,0.6,2C114.1,268.9,114.7,270.2,115.6,271.4z"/>
		<path class="st13" d="M115.6,271.4l-0.2,0.6l-0.3,1.2c1.6,0.4,3.4,0.1,5.1-0.5c5.6-1.8,11.2-7,12.3-8c2.5-2.3,20.7-19.8,16.5-48.5
			c-0.9-5.8-3-20.5-12-26.7l-6.4,24.2L115.6,271.4z"/>
		<path class="st12" d="M184.3,357.1l0.9-0.2c0,0.1,0,0.3,0,0.4l0.4-0.4c0.3,0.1,0.6,0.1,0.9,0.1c-0.2-0.1-0.4-0.2-0.6-0.4
			c2.3-0.5,4.3-1.3,6.3-2.3c0.5-0.3,1.1-0.6,1.6-0.9c0.2-0.1,0.5-0.3,0.7-0.5c0.5-0.3,0.9-0.6,1.4-0.9c0.2-0.2,0.5-0.3,0.7-0.5
			c0.5-0.4,1-0.7,1.5-1c0.2-0.1,0.4-0.3,0.6-0.4c0.6-0.5,1.3-0.9,1.9-1.4c2.9-2.1,5.8-4.7,7.6-8.3c0.4-0.6,0.8-1.2,1.1-1.9
			c0.2-0.5,0.4-1,0.5-1.5c0.1-0.2,0.1-0.4,0.2-0.5c0.1-0.5,0.3-0.9,0.4-1.4c0.6-1.4,1.1-2.8,1.5-4.3c0.5-2,0.3-6.8,2.3-6.9
			c0.5,0,1,0.2,1.5,0.6c-0.3-1.1-0.7-2-1.6-2.7c-0.8-1.5-1.9-2.9-3.1-4.1c-5.5-5.2-12.7-3.7-15.8,0.4c-1.6,2.1-2,6.1-2.8,14.1
			c-0.9,9.3,0,10.5-1.5,13c-1.9,3.1-4.6,3.4-5.9,6.6c-0.1,0.4-0.3,0.8-0.4,1.3C184.1,354.5,184.2,355.9,184.3,357.1z"/>
		<path class="st13" d="M192.1,354.3c0.5-0.3,1.1-0.6,1.6-0.9C193.2,353.7,192.7,354,192.1,354.3z"/>
		<path class="st13" d="M209.6,337c0.1-0.2,0.1-0.4,0.2-0.5C209.8,336.6,209.7,336.8,209.6,337z"/>
		<path class="st13" d="M196.5,351.5c0.5-0.4,1-0.7,1.5-1C197.5,350.8,197,351.2,196.5,351.5z"/>
		<path class="st13" d="M194.5,352.9c0.5-0.3,0.9-0.6,1.4-0.9C195.4,352.3,194.9,352.6,194.5,352.9z"/>
		<path class="st13" d="M198.6,350.1c0.6-0.5,1.3-0.9,1.9-1.4C199.8,349.1,199.2,349.6,198.6,350.1z"/>
		<path class="st13" d="M211.7,330.7c-0.4,1.5-0.9,3-1.5,4.3c-0.1,0.5-0.2,1-0.4,1.4c-0.1,0.2-0.1,0.4-0.2,0.5
			c-0.2,0.5-0.3,1-0.5,1.5c-0.3,0.7-0.6,1.3-1.1,1.9c-1.8,3.6-4.7,6.2-7.6,8.3c-0.6,0.5-1.3,0.9-1.9,1.4c-0.2,0.1-0.4,0.3-0.6,0.4
			c-0.5,0.4-1,0.7-1.5,1c-0.2,0.2-0.5,0.3-0.7,0.5c-0.4,0.3-0.9,0.6-1.4,0.9c-0.2,0.2-0.5,0.3-0.7,0.5c-0.5,0.3-1.1,0.6-1.6,0.9
			c-2,1.1-4.1,1.9-6.3,2.3c0.2,0.1,0.4,0.3,0.6,0.4c0.8,0.4,1.6,0.7,2.4,0.9c0.9,0.2,1.8,0.2,2.6,0.3c5,0.1,9.9-0.5,14.5-1.8
			c5.5-1.6,10.8-4.4,13.9-9.8c2.2-3.8,3.3-9.5,0.9-15.2c-0.8-1.9-3.2-5.6-5.2-7c-0.5-0.4-1.1-0.6-1.5-0.6
			C212,323.9,212.3,328.6,211.7,330.7z"/>
		<path class="st12" d="M160.1,324.2c-1.3-1.5-3.4-2.6-4.9-3.2c-0.1,0-0.2-0.1-0.3-0.1c-14.6-6.5-49.4-22-67.2-9.3
			c-1.1,0.8-10.2,7.4-7.6,15.8l24.1-0.5L160.1,324.2z"/>
		<path class="st13" d="M160.1,324.2l-55.9,2.6l-23.4,1.1c3.1,8.5,15.7,12.8,20.7,14.5c24.6,8.4,45.3-3.7,48-5.3
			c1.3-0.8,8-4.8,10.9-9.4c0.8-1.2,1.3-2.4,1.4-3.6L160.1,324.2z"/>
		<path class="st12" d="M183.9,357.1c-1.1-0.9-2.6-1.3-3.7-1.6c-0.1,0-0.2-0.1-0.3-0.1c-11.2-2.8-37.8-9.3-49.9,1.4
			c-0.8,0.7-6.9,6.2-4.4,11.7l17.6-3.1L183.9,357.1z"/>
		<path class="st13" d="M184.3,357.1l-0.4,0.1l-40.7,8.2l-17.1,3.4c2.9,5.4,12.5,6.9,16.3,7.5c18.7,2.9,32.9-7.7,34.8-9.2
			c0.8-0.6,4.4-3.4,6.5-6.4c0.8-1.2,1.4-2.4,1.5-3.5c0-0.1,0-0.3,0-0.4L184.3,357.1z"/>
		<path class="st13" d="M10.1,174.2c0.6,0.6,1.1,1.1,1.6,1.7C11.2,175.3,10.7,174.8,10.1,174.2z"/>
		<path class="st13" d="M9.3,173.4c-0.5-0.5-1-1-1.5-1.4C8.3,172.4,8.8,172.9,9.3,173.4z"/>
		<path class="st13" d="M6.9,171.2c-0.6-0.5-1.2-1-1.8-1.5C5.8,170.2,6.3,170.7,6.9,171.2z"/>
		<path class="st13" d="M4.5,169.1c-0.8-0.6-1.5-1.3-2.3-2C3,167.8,3.7,168.5,4.5,169.1z"/>
		<path class="st13" d="M4.5,169.1c0.2,0.2,0.4,0.4,0.7,0.6c0.6,0.5,1.2,1,1.8,1.5c0.3,0.2,0.6,0.5,0.8,0.7c0.5,0.5,1,0.9,1.5,1.4
			c0.3,0.3,0.6,0.5,0.8,0.8c0.6,0.6,1.1,1.1,1.6,1.7c1.9,2.1,3.7,4.4,5,6.9c0.8-2.3,0.3-4.6-0.3-6.6c-1.7-5.8-4.1-11.2-7.3-16.3
			c-2.4-3.9-5.4-7.5-9.1-10.4v15.9c0.7,0.6,1.5,1.2,2.2,1.8C3,167.8,3.7,168.5,4.5,169.1z"/>
	</g>
	<g>
		<path class="st7" d="M1852.5,3.1c-1.4-0.9-2.2-2-2.9-3.1h-47.7c2.6,5.1,5.8,12.5,6.1,18.6C1819.5,14.1,1835,8.5,1852.5,3.1z"/>
		<path class="st7" d="M1862.7,0h-0.5c0,0.1-0.1,0.1-0.1,0.2C1862.3,0.1,1862.5,0.1,1862.7,0z"/>
		<path class="st7" d="M1716.2,38.7c1,1.8,6.3,10.7,7,18.5c17.8-9.5,40.4-20.6,68-31.9c1.1-0.5,2.4-1,3.8-1.5
			c-21.3,1.7-64.3,3.9-80.2-23.7h-66.8c2.8,0.2,5.3,0.5,7.1,0.7C1695.8,5.5,1713.9,34.8,1716.2,38.7z"/>
		<path class="st7" d="M1864.5,7.8c3.4,3.7,6.1,9.3,6.6,10.4c1.4,2.9,11.3,24.6,1.3,47.2c-2,4.6-7.2,16.2-15.6,18l0.8-22.8
			l-1.4,23.4c-8.3,1.2-13.9-8.4-14.6-9.6c-10.7-19,7-50.5,14.4-63.7c0.1-0.1,0.1-0.2,0.2-0.4c-3.7,1.1-7.4,2.3-11.2,3.5
			c-11.6,3.7-22.8,7.7-33.4,11.7c5.3,5.4,8.7,15.3,9.3,17.2c1.4,4,11.2,34.5-8.3,62.7c-3.9,5.7-13.9,20.2-26.6,21.1l6.1-30.1
			l-7.1,30.7c-12.4,0.2-18.5-13.5-19.2-15.2c-11.5-27,21-65.6,34.6-81.8c0.1-0.1,0.2-0.2,0.2-0.3c-31.4,12.5-57.6,25.5-77.3,36
			c2.3,2.3,4.1,5.1,5.7,7.8c6.6,11.3,12,23.4,16,35.8c4.8,15,7.7,31.1,4.2,46.5c-2.4,10.8-9,21.7-19.8,24.7
			c-3.6,1-11.8,1.1-16.4-1.5c-1.8,1-3.7,1.4-5.7,0.5c-3.1,0.3-6.3,0.1-9.7-1.1c-14.2-4.9-21.3-23.5-19.6-36.8
			c0.8-6.7,5.9-13.6,16-27.5c11.7-16.1,14.6-15.8,16.1-23s-0.2-12.8,0.5-18.8c-3.6,2-6.9,3.8-9.9,5.5c-20,11.2-38.2,22.4-54.6,33.2
			l-0.8,3.2c0.4,0.5,0.6,1,0.9,1.6c2.8,2.3,4.5,5.4,5.9,8.5c4.4,9.6,7.6,19.5,9.4,29.7c2.2,12.3,2.3,25.2-3.4,37
			c-4,8.3-12,16.2-22.7,17.6c-3.6,0.4-11.3-0.2-15.2-2.7c-1.9,0.6-3.7,0.7-5.5-0.2c-2.9,0-6-0.5-9-1.8
			c-12.6-5.2-16.3-20.6-12.7-30.8c1.9-5.2,7.8-10.2,19.5-20.1c13.6-11.5,16.3-11,18.8-16.5c3.6-7.8,0.7-13.7,6.9-20.4
			c0,0,0,0,0.1-0.1c-16.4,11.1-30.9,21.7-43.3,31.2c-4,9.5-11.1,23.3-23.8,36.9c-10,10.7-32.8,35.1-55.8,29.5
			c-8.9-2.2-18.3-9-21.4-18.6c-4.7-14.5,6.8-29.5,15.3-36.5c5.5-4.5,11.6-7.1,34.7-11.3c11.8-2.1,28.2-4.7,48-6.6
			c13.7-10.5,27.1-20.1,39.8-28.8c-0.5,0.1-1,0.2-1.5,0.3c-20.8,3.8-70.5,12.7-88.2-10.8c-1.1-1.5-10-13.6-3.6-24.3l30.1,9.1
			l-29.1-9.7c7.2-10.5,24.7-12,31.6-12.5c34.2-2.8,55.7,20.8,58.5,24.1c1.4,1.6,9.2,10.5,10.6,18.1c20.1-13.4,38.7-24.7,55.1-34
			c4.4-2.5,9.5-5.4,15.2-8.6c-0.4,0-0.7,0-1.1,0c-25.4-0.8-85.9-2.8-99.7-30.9c-0.9-1.8-7.7-16.3,2.9-25.9l32.5,16.2l-31.1-16.5
			c5.1-4.1,12.1-5.9,19-6.6H1400v225h520V0h-26.1C1884.4,2.3,1874.6,4.9,1864.5,7.8z"/>
		<path class="st5" d="M1713.9,63.7c-1,0-2,0.1-2.9,0c-5.8,3.2-10.8,6.1-15.2,8.6c-16.4,9.4-35,20.6-55.1,34
			c0.2,1.4,0.3,2.7,0.1,3.9l-2.2-0.7c-1.9,1.4-4.3,2.1-6.3,2.5c-12.8,8.7-26.1,18.3-39.8,28.8c-19.8,1.9-36.2,4.4-48,6.6
			c-23.1,4.2-29.2,6.8-34.7,11.3c-8.6,7-20,22-15.3,36.5c3.1,9.6,12.5,16.4,21.4,18.6c23,5.6,45.8-18.8,55.8-29.5
			c12.7-13.5,19.8-27.4,23.8-36.9c12.4-9.5,26.8-20.1,43.3-31.2c2.5-2.7,5.5-4.3,7.6-5.3l-0.1,0.2c16.4-10.8,34.6-22,54.6-33.2
			c3-1.7,6.3-3.5,9.9-5.5c0.3-2.4,0.9-4.9,2.4-7.5C1713.3,64.6,1713.6,64.2,1713.9,63.7z M1553.1,161.6c-0.2,0.1-0.4,0.2-0.6,0.3
			c-0.3,0.2-0.7,0.4-1,0.6c-0.3,0.2-0.7,0.4-1,0.6c-0.2,0.1-0.5,0.3-0.8,0.4c-0.5,0.3-1.1,0.6-1.6,1c0,0-0.1,0.1-0.1,0.1
			c-0.6,0.4-1.3,0.8-1.9,1.2c-0.1,0.1-0.2,0.1-0.3,0.2c-0.5,0.3-1.1,0.7-1.6,1c-0.1,0.1-0.3,0.2-0.4,0.2c-0.5,0.3-1.1,0.7-1.6,1
			c-0.1,0.1-0.2,0.1-0.3,0.2c-0.6,0.4-1.2,0.8-1.7,1.1c-5.2,3.4-10.6,7.4-14.3,13.1c-0.8,0.9-1.5,1.9-2.1,3c-0.3,0.6-0.7,1.2-1,1.9
			c0,0.1-0.1,0.1-0.1,0.2c-0.3,0.6-0.6,1.3-0.9,1.9c-0.2,0.4-0.3,0.8-0.5,1.2c-1.2,2.1-2.4,4.3-3.4,6.7c-1.3,3.2-1.8,10.4-5.2,10.6
			c-3.7,0.3-8.7-7.6-9.9-11.2c-2.9-8.4-0.1-17.2,4.4-23.1c6.3-8.4,15.7-13,25.2-15.7c7.9-2.3,16.2-3.5,24.7-3.6
			c3.1,0,6.4,0.2,9.2,1.9C1561.6,157.6,1557.2,159.4,1553.1,161.6z"/>
		<path class="st5" d="M1859.6,6.2l0-0.5c-1.6-0.3-3.6-0.7-5.4-1.6c-0.6-0.3-1.2-0.6-1.7-1c-17.5,5.4-32.9,11.1-44.5,15.5
			c0.1,1.3,0,2.6-0.2,3.7l-2.1-1.2c-2.4,1.8-5.6,2.2-7.6,2.3c-1,0.1-2,0.2-3.1,0.3c-1.4,0.6-2.7,1.1-3.8,1.5
			c-27.5,11.3-50.2,22.4-68,31.9c0.2,2.4,0,4.8-1,6.7l-1.6-0.8c0.2,0.2,0.3,0.5,0.5,0.7c0.8,0.6,1.5,1.3,2.2,2
			c19.7-10.5,45.9-23.5,77.3-36c1.4-1.6,3.5-3.9,6.1-5.1l0.5-2.2c1.6,0.5,3.1,1.6,4.5,3c10.6-4,21.7-8,33.4-11.7
			c3.8-1.2,7.5-2.4,11.2-3.5C1856.9,8.9,1858.1,7.2,1859.6,6.2z"/>
		<path class="st5" d="M1860.2,2.9c-0.1,0.4-0.2,0.7-0.4,1.1l0.4,0.6c1.5,0.5,3,1.7,4.3,3.2c10.1-2.9,19.9-5.5,29.4-7.8h-31.2
			c-0.2,0.1-0.4,0.1-0.5,0.2C1861.7,1.1,1861,2,1860.2,2.9z"/>
		<path class="st5" d="M1795,23.7c1.1-0.1,2.2-0.2,3.1-0.3c2-0.2,5.2-0.5,7.6-2.3L1768.8,0h-54C1730.7,27.6,1773.7,25.5,1795,23.7z"
			/>
		<path class="st9" d="M1805.7,21.1l2.1,1.2c0.2-1.2,0.3-2.4,0.2-3.7c-0.3-6.1-3.5-13.5-6.1-18.6h-33L1805.7,21.1z"/>
		<path class="st5" d="M1638.7,116.4C1638.6,116.4,1638.6,116.4,1638.7,116.4c-6.3,6.7-3.4,12.7-7,20.4c-2.6,5.5-5.2,5-18.8,16.5
			c-11.8,9.9-17.7,14.9-19.5,20.1c-3.7,10.2,0.1,25.6,12.7,30.8c3,1.2,6,1.7,9,1.8c1.8,0.9,3.6,0.8,5.5,0.2c-1-0.6-1.8-1.4-2.2-2.3
			c-1.5-3.9,6-8.4,8.7-11.6c2-2.4,3.8-4.9,5.4-7.5c0.4-0.4,0.7-0.8,1.1-1.2c0.6-0.7,1.1-1.4,1.6-2.1c0.1-0.1,0.1-0.2,0.2-0.3
			c0.5-0.7,1-1.4,1.5-2.1c0.8-1.3,1.5-2.6,2.1-4c4.1-7.3,5.6-15.5,6.5-23.3c0.1-0.9,0.2-1.8,0.3-2.7c0-0.1,0-0.3,0.1-0.4
			c0.1-0.8,0.2-1.6,0.3-2.4c0-0.2,0-0.4,0.1-0.6c0.1-0.8,0.2-1.6,0.2-2.3c0-0.1,0-0.3,0.1-0.4c0.1-0.9,0.2-1.8,0.3-2.8
			c0-0.1,0-0.1,0-0.2c0.1-0.8,0.1-1.6,0.2-2.3c0-0.4,0.1-0.7,0.1-1.1c0-0.5,0.1-0.9,0.1-1.4c0-0.5,0.1-0.9,0.1-1.4
			c0-0.3,0-0.6,0-0.9c0.2-5.9-0.2-11.8-1.7-17.6c0.4,0.3,0.8,0.5,1.1,0.8c-0.2-0.5-0.5-1.1-0.9-1.6l0.8-3.2l0.1-0.2
			C1644.1,112.1,1641.2,113.7,1638.7,116.4z"/>
		<path class="st9" d="M1646.9,133.7c0-0.3,0-0.6,0-0.9C1646.9,133.2,1646.9,133.4,1646.9,133.7z"/>
		<path class="st9" d="M1645.2,151.8c0.1-0.9,0.2-1.8,0.3-2.7C1645.4,150,1645.3,150.9,1645.2,151.8z"/>
		<path class="st9" d="M1646.7,136.6c0-0.5,0.1-0.9,0.1-1.4C1646.8,135.6,1646.8,136.1,1646.7,136.6z"/>
		<path class="st9" d="M1635.2,181.2c0.5-0.7,1-1.4,1.5-2.1C1636.2,179.8,1635.7,180.5,1635.2,181.2z"/>
		<path class="st9" d="M1645.6,148.7c0.1-0.8,0.2-1.6,0.3-2.4C1645.8,147.1,1645.7,147.9,1645.6,148.7z"/>
		<path class="st9" d="M1633.4,183.5c0.6-0.7,1.1-1.4,1.6-2.1C1634.5,182.2,1634,182.9,1633.4,183.5z"/>
		<path class="st9" d="M1646.5,140c0.1-0.8,0.1-1.6,0.2-2.3C1646.6,138.4,1646.5,139.2,1646.5,140z"/>
		<path class="st9" d="M1646.2,143c0.1-0.9,0.2-1.9,0.3-2.8C1646.4,141.1,1646.3,142,1646.2,143z"/>
		<path class="st9" d="M1645.9,145.8c0.1-0.8,0.2-1.6,0.2-2.3C1646.1,144.2,1646,145,1645.9,145.8z"/>
		<path class="st9" d="M1646.9,132.9c0,0.3,0,0.6,0,0.9c0,0.5,0,0.9-0.1,1.4c0,0.5-0.1,0.9-0.1,1.4c0,0.4,0,0.7-0.1,1.1
			c-0.1,0.8-0.1,1.6-0.2,2.3c0,0.1,0,0.1,0,0.2c-0.1,0.9-0.2,1.8-0.3,2.8c0,0.1,0,0.3-0.1,0.4c-0.1,0.8-0.2,1.6-0.2,2.3
			c0,0.2,0,0.4-0.1,0.6c-0.1,0.8-0.2,1.6-0.3,2.4c0,0.1,0,0.3-0.1,0.4c-0.1,0.9-0.2,1.8-0.3,2.7c-0.9,7.8-2.3,16-6.5,23.3
			c-0.6,1.4-1.3,2.8-2.1,4c-0.5,0.7-0.9,1.4-1.5,2.1c-0.1,0.1-0.1,0.2-0.2,0.3c-0.5,0.7-1.1,1.4-1.6,2.1c-0.3,0.4-0.7,0.8-1.1,1.2
			c-1.6,2.6-3.4,5.1-5.4,7.5c-2.7,3.2-10.2,7.7-8.7,11.6c0.4,0.9,1.2,1.7,2.2,2.3c3.9,2.5,11.6,3.2,15.2,2.7
			c10.7-1.3,18.7-9.3,22.7-17.6c5.7-11.8,5.6-24.7,3.4-37c-1.8-10.2-5-20.2-9.4-29.7c-1.4-3.1-3.2-6.2-5.9-8.5
			c-0.3-0.3-0.7-0.6-1.1-0.8C1646.7,121.1,1647.1,127,1646.9,132.9z"/>
		<path class="st5" d="M1569.1,86.4l-30.1-9.1c-6.4,10.6,2.5,22.8,3.6,24.3c17.7,23.4,67.3,14.5,88.2,10.8c0.4-0.1,0.9-0.2,1.5-0.3
			c2-0.4,4.4-1.1,6.3-2.5L1569.1,86.4z"/>
		<path class="st9" d="M1638.6,109.5l2.2,0.7c0.2-1.2,0.2-2.6-0.1-3.9c-1.4-7.6-9.2-16.5-10.6-18.1c-2.8-3.2-24.3-26.9-58.5-24.1
			c-6.9,0.6-24.4,2-31.6,12.5l29.1,9.7L1638.6,109.5z"/>
		<path class="st5" d="M1710.4,176.5c-2.4-4.7,4.4-11.3,6.6-15.6c1.6-3.2,2.9-6.6,4-10c0.3-0.5,0.6-1.1,0.9-1.6
			c0.4-0.9,0.9-1.8,1.2-2.8c0.1-0.1,0.1-0.2,0.1-0.3c0.4-0.9,0.8-1.9,1.1-2.8c0.3-0.7,0.5-1.5,0.7-2.3c0-0.2,0.1-0.3,0.1-0.5
			c0.1-0.6,0.3-1.2,0.4-1.8c0.1-0.2,0.1-0.5,0.1-0.7c2.8-9.6,2.5-20,1.8-29.8c-0.1-1.1-0.2-2.2-0.2-3.3c0-0.2,0-0.4,0-0.6
			c-0.1-1-0.2-2-0.2-3c0-0.2,0-0.5-0.1-0.7c-0.1-1-0.2-1.9-0.2-2.9c0-0.2,0-0.4-0.1-0.6c-0.1-1.2-0.2-2.3-0.3-3.5c0-0.1,0-0.2,0-0.3
			c-0.1-1-0.2-1.9-0.3-2.9c-0.1-0.5-0.1-0.9-0.2-1.4c-0.1-0.6-0.1-1.2-0.2-1.7c-0.1-0.6-0.2-1.2-0.2-1.8c-0.1-0.4-0.1-0.7-0.2-1.1
			c-1.1-7.4-2.7-14.6-5.4-21.6c0.5,0.3,0.9,0.6,1.3,0.9c-0.2-0.2-0.3-0.5-0.5-0.7l-0.8-0.4c-1.9,0.7-4,1-5.9,1.1
			c-0.3,0.4-0.6,0.9-0.8,1.4c-1.5,2.6-2.1,5.1-2.4,7.5c-0.7,5.9,1,11.6-0.5,18.8c-1.5,7.2-4.3,6.9-16.1,23
			c-10.1,13.9-15.2,20.8-16,27.5c-1.7,13.2,5.4,31.8,19.6,36.8c3.3,1.2,6.6,1.4,9.7,1.1c2,0.9,3.9,0.5,5.7-0.5
			C1711.9,178.4,1710.9,177.6,1710.4,176.5z"/>
		<path class="st9" d="M1726.3,93.7c0.1,1.2,0.2,2.3,0.3,3.5C1726.5,96,1726.4,94.8,1726.3,93.7z"/>
		<path class="st9" d="M1725.2,84.5c0.1,0.4,0.1,0.7,0.2,1.1C1725.3,85.2,1725.2,84.8,1725.2,84.5z"/>
		<path class="st9" d="M1725.6,87.4c0.1,0.6,0.1,1.2,0.2,1.7C1725.7,88.5,1725.6,87.9,1725.6,87.4z"/>
		<path class="st9" d="M1725.9,90.5c0.1,1,0.2,1.9,0.3,2.9C1726.1,92.4,1726,91.4,1725.9,90.5z"/>
		<path class="st9" d="M1726.9,101.4c0.1,1,0.2,2,0.2,3C1727.1,103.4,1727,102.4,1726.9,101.4z"/>
		<path class="st9" d="M1726.6,97.7c0.1,1,0.2,1.9,0.2,2.9C1726.8,99.7,1726.7,98.7,1726.6,97.7z"/>
		<path class="st9" d="M1727.2,105c0.1,1.1,0.2,2.2,0.2,3.3C1727.3,107.2,1727.3,106.1,1727.2,105z"/>
		<path class="st9" d="M1725,141.1c-0.2,0.8-0.4,1.5-0.7,2.3C1724.6,142.6,1724.8,141.9,1725,141.1z"/>
		<path class="st9" d="M1724.3,143.4c-0.3,0.9-0.7,1.9-1.1,2.8C1723.6,145.2,1724,144.3,1724.3,143.4z"/>
		<path class="st9" d="M1725.5,138.8c-0.1,0.6-0.2,1.2-0.4,1.8C1725.2,140,1725.4,139.4,1725.5,138.8z"/>
		<path class="st9" d="M1723.1,146.5c-0.4,0.9-0.8,1.9-1.2,2.8C1722.3,148.4,1722.7,147.5,1723.1,146.5z"/>
		<path class="st9" d="M1719.7,62.8c2.7,7,4.3,14.3,5.4,21.6c0.1,0.4,0.1,0.7,0.2,1.1c0.1,0.6,0.2,1.2,0.2,1.8
			c0.1,0.6,0.1,1.2,0.2,1.7c0.1,0.5,0.1,0.9,0.2,1.4c0.1,1,0.2,1.9,0.3,2.9c0,0.1,0,0.2,0,0.3c0.1,1.2,0.2,2.3,0.3,3.5
			c0,0.2,0,0.4,0.1,0.6c0.1,1,0.2,1.9,0.2,2.9c0,0.2,0,0.5,0.1,0.7c0.1,1,0.2,2,0.2,3c0,0.2,0,0.4,0,0.6c0.1,1.1,0.2,2.2,0.2,3.3
			c0.7,9.8,0.9,20.2-1.8,29.8c0,0.2-0.1,0.5-0.1,0.7c-0.1,0.6-0.2,1.2-0.4,1.8c0,0.2-0.1,0.3-0.1,0.5c-0.2,0.8-0.4,1.5-0.7,2.3
			c-0.3,0.9-0.7,1.9-1.1,2.8c-0.1,0.1-0.1,0.2-0.1,0.3c-0.4,0.9-0.8,1.9-1.2,2.8c-0.3,0.6-0.6,1.1-0.9,1.6c-1.1,3.4-2.4,6.8-4,10
			c-2.2,4.3-9,10.9-6.6,15.6c0.6,1.1,1.5,1.9,2.8,2.6c4.6,2.6,12.8,2.5,16.4,1.5c10.8-3,17.4-13.9,19.8-24.7
			c3.4-15.4,0.6-31.5-4.2-46.5c-4-12.4-9.4-24.5-16-35.8c-1.6-2.8-3.5-5.6-5.7-7.8c-0.7-0.7-1.4-1.4-2.2-2
			C1720.6,63.4,1720.2,63.1,1719.7,62.8z"/>
		<path class="st5" d="M1713.9,63.7c1.9-0.1,4.1-0.4,5.9-1.1l-74.2-39.5L1613.2,7c-10.6,9.5-3.8,24.1-2.9,25.9
			c13.7,28.2,74.2,30.1,99.7,30.9c0.3,0,0.7,0,1.1,0C1711.9,63.8,1712.9,63.8,1713.9,63.7z"/>
		<path class="st9" d="M1645.7,23.1l74.2,39.5l0.8,0.4l1.6,0.8c1-1.9,1.2-4.2,1-6.7c-0.7-7.7-6-16.7-7-18.5
			c-2.3-3.9-20.4-33.2-61.1-38c-1.8-0.2-4.3-0.5-7.1-0.7h-14.4c-6.9,0.6-13.9,2.4-19,6.6L1645.7,23.1z"/>
		<path class="st5" d="M1852.5,3.1c0.5,0.3,1,0.7,1.7,1c1.9,0.9,3.8,1.4,5.4,1.6l0.1-1.2c0.2,0,0.3,0.1,0.5,0.2l-0.4-0.6
			c0.2-0.4,0.3-0.7,0.4-1.1c-0.2,0.2-0.5,0.5-0.7,0.7c0.1-1.2,0-2.4-0.1-3.6h-9.8C1850.2,1.1,1851.1,2.1,1852.5,3.1z"/>
		<path class="st9" d="M1859.5,3.6c0.3-0.2,0.5-0.4,0.7-0.7c0.8-0.9,1.4-1.8,1.9-2.7c0,0,0.1-0.1,0.1-0.2h-2.9
			C1859.5,1.2,1859.5,2.4,1859.5,3.6z"/>
		<path class="st5" d="M1806.6,24.6c-2.6,1.1-4.7,3.4-6.1,5.1c-0.1,0.1-0.2,0.2-0.2,0.3c-13.6,16.2-46.1,54.8-34.6,81.8
			c0.7,1.7,6.8,15.5,19.2,15.2l7.1-30.7L1806.6,24.6z"/>
		<path class="st9" d="M1807.1,22.4l-0.5,2.2l-14.6,71.7l-6.1,30.1c12.7-1,22.7-15.4,26.6-21.1c19.5-28.2,9.7-58.7,8.3-62.7
			c-0.6-1.9-4.1-11.8-9.3-17.2C1810.2,24,1808.7,23,1807.1,22.4z"/>
		<path class="st5" d="M1859.6,6.2c-1.5,1-2.7,2.8-3.4,4.1c-0.1,0.1-0.2,0.3-0.2,0.4c-7.4,13.2-25,44.7-14.4,63.7
			c0.7,1.2,6.3,10.9,14.6,9.6l1.4-23.4L1859.6,6.2z"/>
		<path class="st9" d="M1860.2,4.6c-0.2-0.1-0.3-0.1-0.5-0.2l-0.1,1.2l0,0.5l-2,54.5l-0.8,22.8c8.4-1.8,13.6-13.4,15.6-18
			c10-22.6,0.1-44.4-1.3-47.2c-0.6-1.2-3.2-6.7-6.6-10.4C1863.2,6.3,1861.7,5.1,1860.2,4.6z"/>
		<path class="st9" d="M1553.1,161.6c-0.2,0.1-0.4,0.2-0.6,0.3C1552.7,161.8,1552.8,161.7,1553.1,161.6z"/>
		<path class="st9" d="M1548,164.5c-0.6,0.4-1.3,0.8-1.9,1.2C1546.7,165.3,1547.3,164.9,1548,164.5z"/>
		<path class="st9" d="M1543.8,167.2c-0.5,0.3-1.1,0.7-1.6,1C1542.7,167.9,1543.3,167.5,1543.8,167.2z"/>
		<path class="st9" d="M1541.9,168.4c-0.6,0.4-1.2,0.8-1.7,1.1C1540.7,169.2,1541.3,168.8,1541.9,168.4z"/>
		<path class="st9" d="M1523.7,185.7c-0.3,0.6-0.7,1.2-1,1.9C1523,186.9,1523.3,186.2,1523.7,185.7z"/>
		<path class="st9" d="M1545.8,165.9c-0.5,0.3-1.1,0.7-1.6,1C1544.7,166.6,1545.2,166.2,1545.8,165.9z"/>
		<path class="st9" d="M1551.4,162.5c-0.3,0.2-0.7,0.4-1,0.6C1550.8,162.9,1551.1,162.7,1551.4,162.5z"/>
		<path class="st9" d="M1522.6,187.7c-0.3,0.6-0.6,1.3-0.9,1.9C1521.9,189,1522.2,188.4,1522.6,187.7z"/>
		<path class="st9" d="M1549.7,163.5c-0.5,0.3-1.1,0.6-1.6,1C1548.6,164.1,1549.2,163.8,1549.7,163.5z"/>
		<path class="st9" d="M1532.3,158.2c-9.6,2.8-18.9,7.3-25.2,15.7c-4.5,5.9-7.3,14.7-4.4,23.1c1.2,3.6,6.2,11.5,9.9,11.2
			c3.4-0.2,3.9-7.5,5.2-10.6c1-2.4,2.1-4.6,3.4-6.7c0.2-0.4,0.3-0.8,0.5-1.2c0.3-0.7,0.6-1.3,0.9-1.9c0-0.1,0.1-0.1,0.1-0.2
			c0.3-0.6,0.7-1.2,1-1.9c0.6-1.1,1.3-2.1,2.1-3c3.7-5.7,9.1-9.7,14.3-13.1c0.6-0.4,1.2-0.8,1.7-1.1c0.1-0.1,0.2-0.1,0.3-0.2
			c0.5-0.4,1.1-0.7,1.6-1c0.1-0.1,0.3-0.2,0.4-0.2c0.5-0.3,1.1-0.7,1.6-1c0.1-0.1,0.2-0.1,0.3-0.2c0.6-0.4,1.3-0.8,1.9-1.2
			c0,0,0.1-0.1,0.1-0.1c0.5-0.3,1.1-0.7,1.6-1c0.2-0.1,0.5-0.3,0.8-0.4c0.3-0.2,0.7-0.4,1-0.6c0.3-0.2,0.7-0.4,1-0.6
			c0.2-0.1,0.4-0.2,0.6-0.3c4.2-2.2,8.5-4,13.2-5c-2.9-1.7-6.2-2-9.2-1.9C1548.6,154.7,1540.3,155.9,1532.3,158.2z"/>
	</g>
	<g class="st1">
		<path class="st11" d="M1103.4,238c6.7,0,11.3,2.5,15.1,6.3l-6.1,5.6c-2.5-2.2-5.5-3.6-8.9-3.6c-6.4,0-10.6,4.8-10.6,10.9
			c0,6.7,4.7,10.9,10.7,10.9c6.3,0,9.4-3.5,9.6-7H1103v-7.6h19.8v3.4c0,10.6-6.2,19.5-19.3,19.5c-11.4,0-19.5-8.5-19.5-19.2
			C1083.9,246.4,1092,238,1103.4,238z M1091.1,253.5c1.4-5.2,6-8.8,12.3-8.8c3.2,0,6.3,1.1,8.8,2.9l3.5-3.4
			c-3.1-2.9-7.1-4.5-12.3-4.5c-8.8,0-15.4,5.8-16.9,13.8H1091.1z"/>
		<path class="st11" d="M1128.5,239.2h8.8v36h-8.8V239.2z M1135.1,273.5v-12.8h-4.4v12.8H1135.1z"/>
		<path class="st11" d="M1158.7,238h1.6l17.6,37.2h-9.5l-1.8-3.7h-14.2l-1.7,3.7h-9.5L1158.7,238z M1149.1,273.5l3.9-8.3h-4.9
			l-4,8.3H1149.1z M1163.6,265.1l-4.1-9.1h-0.1l-4.2,9.1H1163.6z M1169.9,273.5h5l-4-8.3h-4.9L1169.9,273.5z"/>
		<path class="st11" d="M1181.7,239.2h9.3l14,21.4v-21.4h8.8v36h-9.2l-14-21.4v21.4h-8.8V239.2z M1188.3,273.5v-22l-4.4-6.9v28.9
			H1188.3z M1211.6,269.5v-28.6h-4.3v21.9L1211.6,269.5z"/>
		<path class="st11" d="M1219.5,239.2h9.3l14,21.4v-21.4h8.8v36h-9.2l-14-21.4v21.4h-8.8V239.2z M1226.1,273.5v-22l-4.4-6.9v28.9
			H1226.1z M1249.4,269.5v-28.6h-4.3v21.9L1249.4,269.5z"/>
		<path class="st11" d="M1272.9,238h1.6l17.6,37.2h-9.5l-1.8-3.7h-14.2l-1.7,3.7h-9.5L1272.9,238z M1263.3,273.5l3.9-8.3h-4.9
			l-4,8.3H1263.3z M1277.9,265.1l-4.1-9.1h-0.1l-4.2,9.1H1277.9z M1284.1,273.5h5l-4-8.3h-4.9L1284.1,273.5z"/>
		<path class="st11" d="M1306.6,239.2h9.2l7.3,17l4.4-11.3l-2.3-5.7h9.1l7.2,16.9l6.6-16.9h9.2l-15,37.2h-1.2l-8.9-20.8l-8.6,20.8
			h-1.1L1306.6,239.2z M1331,252.9l-2.3-5.2l-4.3,11l2.2,5.1L1331,252.9z M1345.1,263.9l9.4-23.1h-4.6l-7,17.8L1345.1,263.9z"/>
		<path class="st11" d="M1370.4,238h1.6l17.6,37.2h-9.5l-1.8-3.7h-14.2l-1.7,3.7h-9.5L1370.4,238z M1360.8,273.5l3.9-8.3h-4.9
			l-4,8.3H1360.8z M1375.3,265.1l-4.1-9.1h-0.1l-4.2,9.1H1375.3z M1381.5,273.5h5l-4-8.3h-4.9L1381.5,273.5z"/>
		<path class="st11" d="M1393.4,239.2h8.8v28.4h15.7v7.6h-24.5V239.2z M1400,269.3v-28.4h-4.4v32.6L1400,269.3z"/>
		<path class="st11" d="M1422.2,239.2h12.5c10.6,0,18.8,7.8,18.8,17.9c0,9.6-7.3,18.1-18.8,18.1h-12.5V239.2z M1428.8,273.5v-32.6
			h-4.4v32.6H1428.8z M1434.5,267.1c5.6,0,10-4,10-10c0-5.6-3.8-10-10-10h-3.5v20H1434.5z"/>
		<path class="st11" d="M1459.5,239.2h15.1c7.7,0,12.8,4.7,12.8,11.5c0,6.3-3.2,9.8-8.5,11.2l9.7,13.4h-11l-9.2-13.4v13.4h-8.8
			V239.2z M1466.1,273.5v-32.6h-4.4v32.6H1466.1z M1475.4,254.8c2,0,3.3-2,3.3-4.1s-1.6-4-3.5-4h-6.8v8.1H1475.4z"/>
		<path class="st11" d="M1511.4,238c11.3,0,19.4,8.5,19.4,19.2c0,10.7-8,19.2-19.4,19.2c-11.4,0-19.4-8.5-19.4-19.2
			C1492.1,246.4,1500,238,1511.4,238z M1511.4,274.6c8.6,0,15.2-5.8,16.8-13.6h-4.6c-1.4,5.2-5.9,8.9-12.2,8.9s-10.7-3.8-12.2-8.9
			h-4.6C1496.2,268.9,1502.7,274.6,1511.4,274.6z M1511.4,268c6.4,0,10.4-4.8,10.4-10.9s-4.1-10.9-10.4-10.9
			c-6.4,0-10.4,4.8-10.4,10.9S1505,268,1511.4,268z"/>
		<path class="st11" d="M1536.9,239.2h9.3l14,21.4v-21.4h8.8v36h-9.2l-14-21.4v21.4h-8.8V239.2z M1543.5,273.5v-22l-4.4-6.9v28.9
			H1543.5z M1566.8,269.5v-28.6h-4.3v21.9L1566.8,269.5z"/>
		<path class="st11" d="M1590,239.2h15.1c7.4,0,11.7,5.5,11.7,11.5c0,6.7-5,11.5-11.7,11.5h-6.3v13h-8.8V239.2z M1596.6,273.5v-32.6
			h-4.3v32.6H1596.6z M1604.3,254.6c2.3,0,3.5-2.1,3.5-4.2c0-2-1.2-3.8-3.5-3.8h-5.5v8H1604.3z"/>
		<path class="st11" d="M1639.8,238c11.3,0,19.4,8.5,19.4,19.2c0,10.7-8,19.2-19.4,19.2c-11.4,0-19.4-8.5-19.4-19.2
			C1620.4,246.4,1628.4,238,1639.8,238z M1639.8,274.6c8.6,0,15.2-5.8,16.8-13.6h-4.6c-1.4,5.2-5.9,8.9-12.2,8.9s-10.7-3.8-12.2-8.9
			h-4.6C1624.5,268.9,1631.1,274.6,1639.8,274.6z M1639.8,268c6.4,0,10.4-4.8,10.4-10.9s-4.1-10.9-10.4-10.9
			c-6.4,0-10.4,4.8-10.4,10.9S1633.4,268,1639.8,268z"/>
		<path class="st11" d="M1665.3,239.2h15.1c7.7,0,12.8,4.7,12.8,11.5c0,6.3-3.2,9.8-8.5,11.2l9.7,13.4h-11l-9.2-13.4v13.4h-8.8
			V239.2z M1671.9,273.5v-32.6h-4.4v32.6H1671.9z M1681.2,254.8c2,0,3.3-2,3.3-4.1s-1.6-4-3.5-4h-6.8v8.1H1681.2z"/>
		<path class="st11" d="M1703.2,247h-8v-7.8h25.1v7.8h-8.2v28.2h-8.9V247z M1709.9,273.5V247h-4.6v26.5H1709.9z"/>
		<path class="st11" d="M1724.3,239.2h23.2v7.8h-14.4v7.7h13.3v7.7h-13.3v12.8h-8.8V239.2z M1730.9,273.5v-28.2l-4.4-4.4v32.6
			H1730.9z"/>
		<path class="st11" d="M1770.9,238c11.3,0,19.4,8.5,19.4,19.2c0,10.7-8,19.2-19.4,19.2c-11.4,0-19.4-8.5-19.4-19.2
			C1751.6,246.4,1759.5,238,1770.9,238z M1770.9,274.6c8.6,0,15.2-5.8,16.8-13.6h-4.6c-1.4,5.2-5.9,8.9-12.2,8.9s-10.7-3.8-12.2-8.9
			h-4.6C1755.7,268.9,1762.2,274.6,1770.9,274.6z M1770.9,268c6.4,0,10.4-4.8,10.4-10.9s-4.1-10.9-10.4-10.9
			c-6.4,0-10.4,4.8-10.4,10.9S1764.5,268,1770.9,268z"/>
		<path class="st11" d="M1796.4,239.2h8.8v28.4h15.7v7.6h-24.5V239.2z M1803,269.3v-28.4h-4.4v32.6L1803,269.3z"/>
		<path class="st11" d="M1825.2,239.2h8.8v36h-8.8V239.2z M1831.8,273.5v-12.8h-4.4v12.8H1831.8z"/>
		<path class="st11" d="M1859.5,238c11.3,0,19.4,8.5,19.4,19.2c0,10.7-8,19.2-19.4,19.2c-11.4,0-19.4-8.5-19.4-19.2
			C1840.1,246.4,1848.1,238,1859.5,238z M1859.5,274.6c8.6,0,15.2-5.8,16.8-13.6h-4.6c-1.4,5.2-5.9,8.9-12.2,8.9s-10.7-3.8-12.2-8.9
			h-4.6C1844.3,268.9,1850.8,274.6,1859.5,274.6z M1859.5,268c6.4,0,10.4-4.8,10.4-10.9s-4.1-10.9-10.4-10.9
			c-6.4,0-10.4,4.8-10.4,10.9S1853.1,268,1859.5,268z"/>
	</g>
</g>
</svg>
