<?xml version="1.0" encoding="utf-8"?>
<!-- Generator: Adobe Illustrator 25.2.0, SVG Export Plug-In . SVG Version: 6.00 Build 0)  -->
<svg version="1.1" id="Layer_1" xmlns="http://www.w3.org/2000/svg" xmlns:xlink="http://www.w3.org/1999/xlink" x="0px" y="0px"
	 viewBox="0 0 500 200" style="enable-background:new 0 0 500 200;" xml:space="preserve">
<style type="text/css">
	.st0{fill:#F7E3CA;}
	.st1{enable-background:new    ;}
	.st2{fill:#173B63;}
	.st3{fill:#E66538;}
	.st4{fill:#231F20;}
	.st5{fill:#F0C651;}
	.st6{fill:#FFFFFF;}
	.st7{fill:none;stroke:#231F20;stroke-width:1.0347;stroke-miterlimit:10;}
	.st8{fill:#F5D1C1;}
	.st9{fill:none;}
	.st10{fill:#899AB6;}
	.st11{fill:#3D5858;}
	.st12{fill:#C0C1A3;}
	.st13{fill:#665570;}
</style>
<g id="Layer_1_1_">
	<rect class="st0" width="500" height="200"/>
	<g class="st1">
		<path class="st2" d="M246.6,147.3c2,0,3.4,0.7,4.5,1.9l-1.8,1.7c-0.7-0.7-1.7-1.1-2.7-1.1c-1.9,0-3.2,1.4-3.2,3.3
			c0,2,1.4,3.3,3.2,3.3c1.9,0,2.8-1,2.9-2.1h-3.1V152h5.9v1c0,3.2-1.9,5.9-5.8,5.9c-3.4,0-5.9-2.5-5.9-5.8
			C240.7,149.9,243.1,147.3,246.6,147.3z M242.9,152c0.4-1.5,1.8-2.6,3.7-2.6c1,0,1.9,0.3,2.6,0.9l1-1c-0.9-0.9-2.1-1.4-3.7-1.4
			c-2.6,0-4.6,1.7-5.1,4.1H242.9z"/>
		<path class="st2" d="M254.1,147.7h2.6v10.8h-2.6V147.7z M256.1,158v-3.9h-1.3v3.9H256.1z"/>
		<path class="st2" d="M263.1,147.3h0.5l5.3,11.2H266l-0.5-1.1h-4.3l-0.5,1.1h-2.8L263.1,147.3z M260.2,158l1.2-2.5H260l-1.2,2.5
			H260.2z M264.6,155.5l-1.2-2.7h0l-1.3,2.7H264.6z M266.5,158h1.5l-1.2-2.5h-1.5L266.5,158z"/>
		<path class="st2" d="M270,147.7h2.8l4.2,6.4v-6.4h2.6v10.8h-2.8l-4.2-6.4v6.4H270V147.7z M272,158v-6.6l-1.3-2.1v8.7H272z
			 M279,156.8v-8.6h-1.3v6.6L279,156.8z"/>
		<path class="st2" d="M281.4,147.7h2.8l4.2,6.4v-6.4h2.6v10.8h-2.8l-4.2-6.4v6.4h-2.6V147.7z M283.4,158v-6.6l-1.3-2.1v8.7H283.4z
			 M290.3,156.8v-8.6H289v6.6L290.3,156.8z"/>
		<path class="st2" d="M297.4,147.3h0.5l5.3,11.2h-2.8l-0.5-1.1h-4.3l-0.5,1.1h-2.8L297.4,147.3z M294.5,158l1.2-2.5h-1.5L293,158
			H294.5z M298.9,155.5l-1.2-2.7h0l-1.3,2.7H298.9z M300.8,158h1.5l-1.2-2.5h-1.5L300.8,158z"/>
		<path class="st2" d="M307.5,147.7h2.8l2.2,5.1l1.3-3.4l-0.7-1.7h2.7l2.2,5.1l2-5.1h2.8l-4.5,11.2h-0.4l-2.7-6.2l-2.6,6.2h-0.3
			L307.5,147.7z M314.8,151.8l-0.7-1.5l-1.3,3.3l0.6,1.5L314.8,151.8z M319,155.1l2.8-6.9h-1.4l-2.1,5.3L319,155.1z"/>
		<path class="st2" d="M326.6,147.3h0.5l5.3,11.2h-2.8l-0.5-1.1h-4.3l-0.5,1.1h-2.8L326.6,147.3z M323.8,158l1.2-2.5h-1.5l-1.2,2.5
			H323.8z M328.1,155.5l-1.2-2.7h0l-1.3,2.7H328.1z M330,158h1.5l-1.2-2.5h-1.5L330,158z"/>
		<path class="st2" d="M333.5,147.7h2.6v8.5h4.7v2.3h-7.3V147.7z M335.5,156.7v-8.5h-1.3v9.8L335.5,156.7z"/>
		<path class="st2" d="M342.2,147.7h3.8c3.2,0,5.7,2.3,5.7,5.4c0,2.9-2.2,5.4-5.7,5.4h-3.8V147.7z M344.1,158v-9.8h-1.3v9.8H344.1z
			 M345.9,156.1c1.7,0,3-1.2,3-3c0-1.7-1.1-3-3-3h-1.1v6H345.9z"/>
		<path class="st2" d="M353.4,147.7h4.5c2.3,0,3.8,1.4,3.8,3.4c0,1.9-1,3-2.6,3.3l2.9,4h-3.3l-2.8-4v4h-2.6V147.7z M355.4,158v-9.8
			H354v9.8H355.4z M358.2,152.4c0.6,0,1-0.6,1-1.2s-0.5-1.2-1.1-1.2H356v2.4H358.2z"/>
		<path class="st2" d="M369,147.3c3.4,0,5.8,2.5,5.8,5.8c0,3.2-2.4,5.8-5.8,5.8c-3.4,0-5.8-2.5-5.8-5.8
			C363.1,149.9,365.5,147.3,369,147.3z M369,158.3c2.6,0,4.6-1.7,5-4.1h-1.4c-0.4,1.6-1.8,2.7-3.7,2.7s-3.2-1.1-3.7-2.7h-1.4
			C364.4,156.6,366.3,158.3,369,158.3z M369,156.4c1.9,0,3.1-1.4,3.1-3.3s-1.2-3.3-3.1-3.3c-1.9,0-3.1,1.4-3.1,3.3
			S367,156.4,369,156.4z"/>
		<path class="st2" d="M376.6,147.7h2.8l4.2,6.4v-6.4h2.6v10.8h-2.8l-4.2-6.4v6.4h-2.6V147.7z M378.6,158v-6.6l-1.3-2.1v8.7H378.6z
			 M385.5,156.8v-8.6h-1.3v6.6L385.5,156.8z"/>
		<path class="st2" d="M392.5,147.7h4.5c2.2,0,3.5,1.6,3.5,3.5c0,2-1.5,3.5-3.5,3.5h-1.9v3.9h-2.6V147.7z M394.5,158v-9.8h-1.3v9.8
			H394.5z M396.8,152.3c0.7,0,1.1-0.6,1.1-1.3c0-0.6-0.4-1.1-1.1-1.1h-1.6v2.4H396.8z"/>
		<path class="st2" d="M407.5,147.3c3.4,0,5.8,2.5,5.8,5.8c0,3.2-2.4,5.8-5.8,5.8c-3.4,0-5.8-2.5-5.8-5.8
			C401.6,149.9,404,147.3,407.5,147.3z M407.5,158.3c2.6,0,4.6-1.7,5-4.1h-1.4c-0.4,1.6-1.8,2.7-3.7,2.7s-3.2-1.1-3.7-2.7h-1.4
			C402.9,156.6,404.8,158.3,407.5,158.3z M407.5,156.4c1.9,0,3.1-1.4,3.1-3.3s-1.2-3.3-3.1-3.3c-1.9,0-3.1,1.4-3.1,3.3
			S405.5,156.4,407.5,156.4z"/>
		<path class="st2" d="M415.1,147.7h4.5c2.3,0,3.8,1.4,3.8,3.4c0,1.9-1,3-2.6,3.3l2.9,4h-3.3l-2.8-4v4h-2.6V147.7z M417.1,158v-9.8
			h-1.3v9.8H417.1z M419.9,152.4c0.6,0,1-0.6,1-1.2s-0.5-1.2-1.1-1.2h-2.1v2.4H419.9z"/>
		<path class="st2" d="M426.5,150h-2.4v-2.3h7.5v2.3h-2.4v8.5h-2.7V150z M428.5,158v-8h-1.4v8H428.5z"/>
		<path class="st2" d="M432.8,147.7h7v2.3h-4.3v2.3h4v2.3h-4v3.9h-2.6V147.7z M434.8,158v-8.5l-1.3-1.3v9.8H434.8z"/>
		<path class="st2" d="M446.8,147.3c3.4,0,5.8,2.5,5.8,5.8c0,3.2-2.4,5.8-5.8,5.8c-3.4,0-5.8-2.5-5.8-5.8
			C441,149.9,443.4,147.3,446.8,147.3z M446.8,158.3c2.6,0,4.6-1.7,5-4.1h-1.4c-0.4,1.6-1.8,2.7-3.7,2.7s-3.2-1.1-3.7-2.7h-1.4
			C442.2,156.6,444.2,158.3,446.8,158.3z M446.8,156.4c1.9,0,3.1-1.4,3.1-3.3s-1.2-3.3-3.1-3.3c-1.9,0-3.1,1.4-3.1,3.3
			S444.9,156.4,446.8,156.4z"/>
		<path class="st2" d="M454.5,147.7h2.6v8.5h4.7v2.3h-7.3V147.7z M456.4,156.7v-8.5h-1.3v9.8L456.4,156.7z"/>
		<path class="st2" d="M463.1,147.7h2.6v10.8h-2.6V147.7z M465.1,158v-3.9h-1.3v3.9H465.1z"/>
		<path class="st2" d="M473.4,147.3c3.4,0,5.8,2.5,5.8,5.8c0,3.2-2.4,5.8-5.8,5.8c-3.4,0-5.8-2.5-5.8-5.8
			C467.6,149.9,469.9,147.3,473.4,147.3z M473.4,158.3c2.6,0,4.6-1.7,5-4.1H477c-0.4,1.6-1.8,2.7-3.7,2.7s-3.2-1.1-3.7-2.7h-1.4
			C468.8,156.6,470.8,158.3,473.4,158.3z M473.4,156.4c1.9,0,3.1-1.4,3.1-3.3s-1.2-3.3-3.1-3.3c-1.9,0-3.1,1.4-3.1,3.3
			S471.4,156.4,473.4,156.4z"/>
	</g>
	<g>
		<path class="st3" d="M62.1,24.3c0.7-0.3,1.5-0.7,2.3-1.5c2-2,2.1-4.8,2.5-4.7c0.2,0,0.3,0.4,0.4,2.2c0.5-0.7,0.7-0.9,0.8-0.8
			c0.2,0.1-0.1,1-0.5,1.8c-0.2,0.3-0.4,0.6-0.5,0.9c-0.1,0.1-0.2,0.3-0.2,0.3c-0.1,0.1-0.2,0.2-0.2,0.3c0.2-0.1,0.5-0.3,0.7-0.4
			c0,0.4-0.1,0.6-0.2,0.8c-0.6,1.5-2.7,1.7-2.9,1.7c0.2,0.1,0.3,0.2,0.3,0.3c0,0.2-0.6,0.3-1.8,0.3c-0.2,0-0.4-0.1-0.6-0.1
			C62.2,25,62.2,24.6,62.1,24.3z"/>
		<path class="st3" d="M52.2,10.6c0.5-0.5,1.4-1.1,2.5-1.4c2.8-0.8,5.6,0.6,5.7,0.2c0-0.1-0.3-0.5-1.9-1.5c1-0.1,1.2-0.2,1.2-0.3
			c0-0.2-1-0.5-1.9-0.5c-0.4,0-0.8,0-1.1,0c-0.2,0-0.3,0.1-0.3,0.1c-0.1,0-0.3,0.1-0.4,0.1c0.2-0.2,0.5-0.3,0.7-0.5
			c-0.3-0.2-0.7-0.3-0.9-0.3c-1.7-0.2-2.8,1.6-2.9,1.7c0-0.2-0.1-0.4-0.2-0.4c-0.2-0.1-0.6,0.4-1.1,1.5c0,0.2-0.1,0.4-0.2,0.6
			C51.6,10.2,51.9,10.4,52.2,10.6z"/>
		<path class="st4" d="M35.4,17.4c0.5-0.9,0.1-1.4,0.5-2.8c0.2-0.8,0.5-1.2,0.6-2.2c0-0.4,0-0.7-0.2-0.9c-0.3-0.3-0.9-0.4-1.5-0.2
			c-0.1,2.3-0.2,4.6-0.2,6.9C34.8,18.2,35.2,17.9,35.4,17.4z"/>
		<path class="st4" d="M47.7,37.6c1,0,1.3,0.5,2.7,0.8c0.8,0.2,1.3,0.1,2.2,0.5c0.4,0.2,0.6,0.4,0.7,0.6c0.2,0.4-0.1,1-0.5,1.4
			c-2.1-1-4.2-2-6.2-3C46.8,37.8,47.2,37.7,47.7,37.6z"/>
		<path class="st5" d="M41.5,39.6c-1.1-0.4-1.7-1.4-2.9-3.2c-0.9-1.3-2-3.3-2.9-5.9c-2.2-1.5-3.4-3.2-4.1-4.3
			c-0.8-1.4-1.8-2.8-1.5-4.4c0.2-1.1,0.8-1.8,2.7-3.2c2.3-1.7,3.8-2.4,9.4-5.3c1.1-0.6,2.3-1.2,4-1.5c0.6-0.1,2-0.4,3.5-0.1
			c3,0.5,5,2.7,6.1,3.8c2.4,2.6,5.8,8,4.3,12.4c-0.5,1.5-1.4,2.4-2.9,3.9c-1.4,1.4-2.8,2.2-5.5,3.9c-1.2,0.7-2.8,1.6-5,2.6
			C43.1,40,42.2,39.8,41.5,39.6z"/>
		<g>
			<path class="st4" d="M15.4,31.3c0.1,1.7,0.7,3.4,1.5,4.8c0.1,0,0.1-0.2,0.1-0.3c-0.2-0.8-0.5-1.5-0.4-2.3
				c0.1-0.9,0.1-1.7,0.3-2.5c0.4-1.3,0.9-2.5,1.4-3.7c0.1-0.2,0.2-0.6,0.4-0.7c0.4-0.3,0.8,0.8,1,1.1c0.5,1,1,2,1.6,2.9
				c0.1,0.1,0.2,0.2,0.2,0.1c0.2-0.1-0.4-1.2-0.5-1.4c-0.1-0.7-0.2-1.3-0.4-2c-0.1-0.9-0.5-2.4,0.4-3c0.9-0.6,2.5-1.9,4.1-1.5
				c0.9,0.2,1.7,0.5,2.2,0.7c0.3,0.1,0.4,0.6,0.2,0.8L27.1,25c0,0,0,0,0,0c-0.1,0.2-0.7,1.2-0.2,2.3c0.5,1.1,1.3,2.5,1.5,2.7
				c0,0,0,0,0,0l0.7,0.8c0,0,0,0,0,0.1l4.2,6.8c0,0,0,0,0,0.1c0.1,0.3,0.9,2.1,1.7,2.7c0.8,0.6,2.1,1.2,2.6,1.1
				c0.5-0.1,0.8-0.1,1.7-0.5l0.2-0.1c0.3-0.1,0.7,0.2,0.7,0.5c0,0.2,0,0.4,0,0.4c0,0.6,0.2,1.2,0,1.8c-0.1,0.2-0.2,0.3-0.2,0.5
				c-0.2,0.4-0.3,0.9-0.6,1.2c-0.3,0.3-0.7,0.5-1,0.8c-0.4,0.2-0.8,0.5-1.2,0.7c-0.1,0-0.2,0.1-0.3,0l-1.7-0.2c0,0,0,0-0.1,0
				L31.8,46c0,0-0.6,0,0.3,0.6c0.5,0.4,1.8,0.9,2.7,1.3c0.3,0.1,0.4,0.5,0.3,0.8c-0.2,0.4-0.5,0.4-0.9,0.5c-0.3,0-0.6,0.2-0.8,0.3
				c-1.1,0.5-2.4,0.5-3.6,0c-0.3-0.1-0.5-0.3-0.8-0.4c-0.4-0.1-0.8-0.1-1.2-0.1c-0.9,0-1.6-0.3-2.4-0.6c-0.6-0.2-1.2,0-0.4,0.5
				c0.5,0.2,0.9,0.5,1.4,0.7c0.4,0.2,0.9,0.3,1.3,0.5c0.1,0,0.6,0.3,0.7,0.3l-2.2,1c0,0-0.8,0.2-2,1.2s-2,2-2,2s-0.5,0.6,0.2,0.4
				c1.6-1,4.2-2.5,4.6-2.7c0,0,0.1,0,0.1,0c0.3-0.1,2.3-0.7,3.7-0.8c0.9-0.1,1.9-0.2,2.8-0.4c0.9-0.2,1.7-0.3,2.5-0.7
				c0.9-0.6,1.9-1.1,2.8-1.7c0.5-0.3,0.9-0.6,1.3-1c0.7-0.8,1-1.8,1.4-2.7c0.4-0.9,0.6-1.9,0.4-2.9c-0.1-0.4-0.5-1.4-0.4-1.7
				c0.1-0.2,0.7-0.5,0.9-0.6c0,0-0.2,0.7-2.7-2.7c-0.9-1.2-4.1-5.4-2.4-6.6c0.2-0.2,0.5-0.3,0.8-0.5c6.4-3.8,12.8-7.7,19.1-11.5
				c-4.2,2.1-8.4,4.3-12.6,6.4c-2.1,1.1-4.2,2.1-6.3,3.2c-0.8,0.4-2,1.4-2.8,1.2c-0.9-0.1-1.7-1.4-2.2-2c-1.2-1.7-2.3-3.5-2.9-5.5
				c0.1,0.2-0.7,1-1,1c-0.4,0-1-0.5-1.4-0.7c-1-0.4-2.2-0.5-3.3-0.6c0,0,0,0,0,0c-0.3,0-3-0.1-4.7,1.8c-1.8,2-3.4,5-4.8,6.6
				c-0.6,0.7-1.2,1.3-1.8,2c-0.3,0.4-0.7,0.8-1,1.1c-0.3,0.3-0.5,0.7-0.8,1c-0.5,0.4-1,0.9-1.4,1.5c0.9,0,1.8-0.4,2.5-1
				c0.8-0.7,1.7-1.7,2.3-2.4c0.3-0.3,0.8-0.1,0.9,0.3l0.3,1.3c0,0,0,0.1,0,0.1l1.1,2.5c-0.2-0.9-0.4-1.8-0.5-2.6"/>
			<path class="st4" d="M33.2,37.7c-1.4-2.3-2.8-4.6-4.2-6.9c-0.3-0.2-0.8-0.4-1.4-0.5c-2-0.2-3.5,1.8-3.3,1.9
				c0,0.1,0.2-0.1,0.9-0.3c0.9-0.2,1.5-0.4,2.1-0.3c0.2,0,0.6,0.1,1.1,0.4c1.1,1.8,2.2,3.5,3.2,5.3c0,0.3,0,0.7-0.2,1.2
				c-0.5,1.5-2,2.1-1.9,2.3c0.1,0.2,1.1,0,2-0.6C32.7,39.6,33.1,38.3,33.2,37.7z"/>
		</g>
		<ellipse transform="matrix(0.854 -0.5202 0.5202 0.854 -8.0318 32.5562)" class="st3" cx="54" cy="30.6" rx="1.7" ry="1.2"/>
		<ellipse transform="matrix(0.854 -0.5202 0.5202 0.854 -5.3091 33.7151)" class="st3" cx="57.4" cy="26.3" rx="0.9" ry="0.7"/>
		<ellipse transform="matrix(0.854 -0.5202 0.5202 0.854 -5.9397 32.1478)" class="st3" cx="54.3" cy="26.7" rx="0.6" ry="0.6"/>
		<ellipse transform="matrix(0.854 -0.5202 0.5202 0.854 -6.0845 21.4381)" class="st3" cx="35.2" cy="21.6" rx="1.7" ry="1.3"/>
		<ellipse transform="matrix(0.854 -0.5202 0.5202 0.854 -2.5888 23.0927)" class="st3" cx="39.9" cy="16.2" rx="1.1" ry="0.9"/>
		<ellipse transform="matrix(0.854 -0.5202 0.5202 0.854 -4.6784 24.0397)" class="st3" cx="40.5" cy="20.4" rx="0.5" ry="0.6"/>
		<ellipse transform="matrix(0.854 -0.5202 0.5202 0.854 -10.8694 25.6193)" class="st3" cx="40.2" cy="32.2" rx="1.1" ry="0.9"/>
		<ellipse transform="matrix(0.854 -0.5202 0.5202 0.854 -8.4308 26.8554)" class="st3" cx="43.6" cy="28.5" rx="0.7" ry="0.5"/>
		<ellipse transform="matrix(0.854 -0.5202 0.5202 0.854 -0.6714 29.9915)" class="st3" cx="53.1" cy="16.2" rx="0.7" ry="0.7"/>
		<path class="st3" d="M51.6,39.4c-0.1,0.2-0.1,0.6,0,0.8c0.3,0.5,1.4,1.3,8.2-0.2c-0.3-0.2-0.6-0.4-0.8-0.6c0.3-0.2,0.7-0.5,1-1.1
			c0.4-0.7,0.5-1.5,0.4-1.6c-0.1,0-0.3,0.1-0.8,0.9c0.2-0.3,0.4-0.9,0.3-1.6c-0.1-0.5-0.3-1-0.4-1c-0.2,0,0,0.7-0.2,1.4
			c-0.4,1.4-2.2,2-2.8,2.2C53.9,39.3,52,38.5,51.6,39.4z"/>
		<path class="st4" d="M51.6,12.2c-0.5,0.1-0.9-0.4-0.9-0.4c0-0.2-0.1-0.5-0.1-0.9c0-0.1,0.1-0.9,0.5-1c0.1,0,0.3,0.1,0.6,0.3
			c0.3,0.2,0.5,0.3,0.5,0.4C52.5,11,52.2,12.1,51.6,12.2z"/>
		<path class="st3" d="M35.6,12.9c-0.3,0-0.6-0.2-0.7-0.4c-0.4-0.5-0.6-2,3.8-7.4c0.1,0.4,0.2,0.7,0.2,1.1c0.3-0.2,0.8-0.3,1.4-0.3
			c0.8,0,1.6,0.2,1.6,0.4c0,0.1-0.2,0.2-1.2,0.3c0.3,0,1,0.1,1.6,0.6c0.4,0.3,0.8,0.8,0.8,0.9c-0.1,0.1-0.7-0.3-1.4-0.5
			c-1.5-0.4-2.9,1-3.3,1.4C36.7,10.8,36.7,13,35.6,12.9z"/>
		<path class="st4" d="M60.6,23.9c-0.3,0.4,0,1,0,1c0.2,0.1,0.4,0.3,0.8,0.5c0.1,0,0.9,0.3,1.1,0c0.1-0.1,0-0.3,0-0.7
			c0-0.4-0.1-0.5-0.1-0.6C62,23.6,61,23.3,60.6,23.9z"/>
	</g>
	<g>
		<path class="st5" d="M180.8,4.6c7.1-1.6,16.7-3.3,27.8-3.9c9.6-0.5,32.6-0.9,58.4,8.5c11.8,4.3,26.2,9.5,40.1,23
			c18.4,17.8,26,40.6,29.3,56.3c2.9,4.9,5.7,9.9,8.6,14.8c-1.6,0.2-3.4,0.4-5.4,0.2c-5.8-0.4-9.8-2.9-12-4.7
			c-5.7,0.4-12,0.5-18.8-0.2c-3.6-0.3-7.8,1-10.8-1.5c-1.2-1-2.7-2.9-3.8-5.4c-1.1-2.5-0.8-3.4-1.6-4.9c-1.6-3-5.3-3.4-8.3-3.6
			c-9.7-0.6-13.5,1.1-17.5,0.7c-13.8-1.5-12.7-27.3-21.1-25.5c-4.2,0.9-9.2,8.4-10.2,14.2c-0.7,3.9,0.6,6.2,0,6.7
			c-1.4,1-8-9.2-13.4-19.9c-3.8-7.7-6.5-14.7-8.2-19.8c-0.3,1.1-1,3-2.6,4.5c0,0-2.6,2.4-7.4,1.7c-9-1.2-24-34.2-25-36.3
			C179.6,7.9,180.2,6.2,180.8,4.6z"/>
		<path class="st3" d="M322.8,88.5c-2.2-2.3-4.3-3.6-4.5-3.8c-7-4.4-15.6-13.9-14.8-15c0.6-0.8,5.7,3.5,9.4,1.5
			c1.3-0.7,2.4-2.2,2-3.1c-0.1-0.3-0.5-0.8-5.4-1.4c-2.9-0.3-3.8-0.3-4.2-0.9c-0.6-1.1,1.6-2.5,1-3.8c-0.6-1.3-3.6-1.3-5.8-1.3
			c-2.3,0-2.8,0.3-4.4,0c-0.4-0.1-1.5-0.4-3.4-1.5c-0.3-0.2-5.6-3.5-5.1-4.5c0.5-1.1,6.4,1.8,14.5,0.4c2.6-0.4,5.1-1.3,5.1-2.1
			c0-1.1-4.4-0.8-7.9-4.2c-1.9-1.8-1.5-2.8-3.1-4.7c-1.1-1.3-2.4-2.1-10.2-4.6c-11.7-3.7-13.5-3.4-14.6-3.1
			c-1.9,0.5-3.6,1.5-4.5,0.7c-0.9-0.8-0.7-3.1,0.4-4.5c1.8-2.2,5.4-1.4,5.5-2.2c0.1-0.8-3.2-1.5-7.4-3.9c-3.3-1.8-3.3-2.5-5.6-3.8
			c-3.4-1.8-6.5-1.9-10.8-2.1c-9.6-0.3-12.4,2.2-15.1-0.1c-2.6-2.2-0.9-5.5-3.7-7.3c-2.8-1.9-5.3,1.1-10.7-0.1c-3.3-0.8-3-2-7.6-3.6
			c-3.2-1.1-5.8-1.4-8.5-1.6c-4.7-0.5-5,0.1-10.2-0.2c-6.6-0.4-9.6-1.5-10.1-0.4c-0.3,0.6,0.7,1.4,4.1,5c5,5.3,5.4,6.3,7.1,6.6
			c2.9,0.4,4.2-2.4,7-1.6c1.9,0.5,1.8,2,4,3.4c3.4,2.1,5.5-0.1,9,1.5c2.9,1.4,4.4,4.5,6.1,8.1c1.8,3.9,2.1,6.8,2.9,6.8
			c1.3-0.1,1.1-7.8,3.2-8.2c1.2-0.2,1.7,2.2,4.4,3.3c2.7,1.2,4.2-0.3,5.6,0.4c4.6,2.5-3.2,22.5,0.4,24.3c1.1,0.5,2.8-0.7,3.7-1.6
			c3.1-3.3,0.7-9.5,1.8-9.9c1-0.3,2.5,4.8,4.5,4.9c3.7,0,5.9-16.8,7.8-16.6c1.6,0.2,2,11.7,2.1,16.2c0,1.4,0.1,2.8,0.1,2.8
			c0,0.5,0,0.9,0,1c0,2.7,3.9,8.9,4.3,9.6c2.9,4.6,3.1,5.8,3.6,5.7c1.9-0.5-3.8-22.4-0.5-23.6c1.1-0.4,2.8,1.4,4.5,3.8
			c1.7-1.2,2.9-1.4,3.8-1.2c5.8,1.3,5.6,20.2,5.5,22.2c0.5,0.3,2.6,1.6,3.9,0.8c1.5-0.9,1.3-3.8,1.1-5.7c-0.4-5-2.5-7.6-1.9-8.1
			c0.7-0.6,4.5,1.5,5.4,4.7c0.7,2.6-1.1,4-0.1,6.2c1,2.2,3,1.6,4.3,3.6c2.2,3.6-2.5,8.6-0.5,10.8c1,1.1,3.3,1.1,4.7,0.2
			c3-2,1.8-8.2,2.6-8.3c0.6-0.1,0.4,4.5,3.3,6.7c2,1.5,3.5,0.3,4.8,1.7c0,0,1.3,1.4-0.5,10.8c0,0,2.4,1.3,3.5,0.9
			c2.2-0.8-0.2-8.6,2.1-9.7c2.3-1.2,7.4,5.4,8.5,7.2c2.5,1.1,6.5,3,7.1,2.1C327,92.9,323.3,89,322.8,88.5z"/>
		<path class="st6" d="M158.6,4.7c0.1-0.4,6.7,0.9,6.7,0.9c29.4,5.9,44,8.9,63.2,16.6c10.4,4.2,20.9,8.4,33.9,16.6
			c1,0.6,2.1,1.3,3.2,2.1c10.1,6.8,24.7,18.1,38.6,35.4c1.6,1.9,2.8,3.6,3.6,4.7c-0.7-2.1-2.4-6.3-5-11.3
			C268.5,4.6,158.4,5.3,158.6,4.7z"/>
	</g>
	<g>
		<polyline class="st7" points="172.4,162.6 163.7,159.5 158.9,164.8 153.2,164.1 		"/>
		<polyline class="st7" points="195.9,181.1 199.6,189.7 194.8,195 195.9,200.8 		"/>
		
			<ellipse transform="matrix(0.5224 -0.8527 0.8527 0.5224 -48.0675 241.3161)" class="st8" cx="191.4" cy="163.6" rx="22.9" ry="10.7"/>
		<path class="st3" d="M207.1,132.3c0,0,1.7,0.7,4.7,3.6c3,2.9,3,2.9,3,2.9s7.1-9.2,5.9-11.1c0,0,2.9,1,0.5,7.9s-3.3,7-3.3,7
			s1.3,1.8,0.7,3.2c-0.6,1.4-1.5,2.8-2.3,3.7s2.3,0.4,0.4,6.9s1.3,9-9.4,18c-9.1,7.6-22.8,15.2-24.5,13c-0.4-0.6,0.1-1.6,0.4-2.2
			c5.4-11.2,22.2-38.6,21.6-39.1c-0.2-0.1-1.4,0.3-1.4,0.3l0,0c0,0-2.4,2.7-2.4,2.7c-1.3,1.4-7.6,8.6-26.6,30.3c0,0-1.8,2.4-2.4-5.8
			c-0.6-8.2-1-15.9,2-22s5.3-12.6,12.5-15.4c7.2-2.7,10.2-1.5,10.2-1.5s1.2-2.2,3.4-3.3c2.1-1.2,2.1-1.2,2.1-1.2
			c1.1-1.4,3.1-3.6,6.2-4.9c1.1-0.5,2.2-0.7,3.1-0.9c1.5,0.2,3.1,0.4,4.6,0.6c0,0-1.5,1-1.5,1.1l-0.8,0.6c0,0-1.4,0.8-1.4,0.8
			c0,0-2.4,1.3-2.4,1.3C209,129.9,208,131.1,207.1,132.3z"/>
		<path class="st4" d="M202.1,140.6c4.3,4.4,8.4,7.9,14.2,9.4c-0.1-0.2-0.2-0.3,0-0.5c0.8-0.9,1.7-2.3,2.3-3.7
			c0.6-1.4-0.7-3.2-0.7-3.2s0.8-0.1,3.3-7c2.4-6.9-0.5-7.9-0.5-7.9c1.2,1.9-5.9,11.1-5.9,11.1s0,0-3-2.9s-4.7-3.6-4.7-3.6
			c1-1.2,1.9-2.4,2.9-3.6c0,0,2.4-1.3,2.4-1.3c0,0,1.4-0.8,1.4-0.8l0.8-0.6c0,0,1.5-1,1.5-1.1c-1.5-0.2-3.1-0.4-4.6-0.6
			c-0.9,0.2-2,0.4-3.1,0.9c-3.2,1.3-5.2,3.5-6.2,4.9c0,0,0,0-2.1,1.2c-1.9,1-3.1,2.9-3.3,3.3C198.6,136.5,200.3,138.6,202.1,140.6z"
			/>
		
			<ellipse transform="matrix(0.4916 -0.8708 0.8708 0.4916 -32.3516 262.1191)" class="st4" cx="208.3" cy="158.8" rx="4.6" ry="3.5"/>
		
			<ellipse transform="matrix(0.6153 -0.7883 0.7883 0.6153 -44.6149 225.4155)" class="st8" cx="208.6" cy="158.4" rx="3" ry="2.6"/>
		<ellipse transform="matrix(0.623 -0.7822 0.7822 0.623 -45.6532 222.7962)" class="st6" cx="208.3" cy="158.8" rx="2.3" ry="2"/>
		<g>
			<ellipse transform="matrix(0.86 -0.5103 0.5103 0.86 -47.0603 117.9227)" class="st4" cx="191.4" cy="144.7" rx="4.6" ry="3.5"/>
			
				<ellipse transform="matrix(0.6311 -0.7757 0.7757 0.6311 -41.177 201.9927)" class="st8" cx="191.8" cy="144.3" rx="3.1" ry="2.6"/>
			<ellipse transform="matrix(0.623 -0.7822 0.7822 0.623 -41.0643 204.2561)" class="st6" cx="191.4" cy="144.7" rx="2.3" ry="2"/>
			
				<ellipse transform="matrix(0.8291 -0.5591 0.5591 0.8291 -48.3615 131.6692)" class="st4" cx="191.2" cy="144.9" rx="0.9" ry="0.9"/>
		</g>
		
			<ellipse transform="matrix(0.8291 -0.5591 0.5591 0.8291 -53.5299 143.5078)" class="st4" cx="208" cy="159.3" rx="0.9" ry="0.9"/>
		<g>
			
				<ellipse transform="matrix(0.8488 -0.5288 0.5288 0.8488 -52.7431 118.4353)" class="st4" cx="180.7" cy="151.4" rx="2" ry="0.9"/>
			
				<ellipse transform="matrix(0.8488 -0.5288 0.5288 0.8488 -51.5157 117.0661)" class="st4" cx="178.9" cy="148.6" rx="2" ry="0.9"/>
			
				<ellipse transform="matrix(0.8488 -0.5288 0.5288 0.8488 -53.8174 119.6359)" class="st4" cx="182.2" cy="153.9" rx="2" ry="0.9"/>
			<ellipse transform="matrix(0.8488 -0.5288 0.5288 0.8488 -55.049 121.0105)" class="st4" cx="184" cy="156.7" rx="2" ry="0.9"/>
			
				<ellipse transform="matrix(0.8488 -0.5288 0.5288 0.8488 -56.3316 122.4429)" class="st4" cx="185.9" cy="159.7" rx="2" ry="0.9"/>
		</g>
		<g>
			<ellipse transform="matrix(0.3737 -0.9275 0.9275 0.3737 -31.3142 289.6135)" class="st4" cx="198.8" cy="168" rx="2" ry="0.9"/>
			
				<ellipse transform="matrix(0.3737 -0.9275 0.9275 0.3737 -31.8882 285.9603)" class="st4" cx="195.8" cy="166.6" rx="2" ry="0.9"/>
			
				<ellipse transform="matrix(0.3737 -0.9275 0.9275 0.3737 -30.8191 292.8069)" class="st4" cx="201.4" cy="169.2" rx="2" ry="0.9"/>
			
				<ellipse transform="matrix(0.3737 -0.9275 0.9275 0.3737 -30.2493 296.4717)" class="st4" cx="204.4" cy="170.6" rx="2" ry="0.9"/>
			
				<ellipse transform="matrix(0.3737 -0.9275 0.9275 0.3737 -29.6649 300.2747)" class="st4" cx="207.5" cy="172.1" rx="2" ry="0.9"/>
		</g>
		<g>
			
				<ellipse transform="matrix(0.1798 -0.9837 0.9837 0.1798 -14.0322 310.5731)" class="st4" cx="179.2" cy="163.7" rx="2.6" ry="3.1"/>
			
				<ellipse transform="matrix(0.7423 -0.6701 0.6701 0.7423 -63.2445 162.3746)" class="st8" cx="179.5" cy="163.4" rx="1.9" ry="2.2"/>
			
				<ellipse transform="matrix(0.733 -0.6802 0.6802 0.733 -63.5039 165.6121)" class="st6" cx="179.2" cy="163.7" rx="1.4" ry="1.7"/>
			
				<ellipse transform="matrix(0.7048 -0.7094 0.7094 0.7048 -63.3341 175.4159)" class="st4" cx="179.1" cy="163.8" rx="0.5" ry="0.7"/>
		</g>
		<g>
			
				<ellipse transform="matrix(0.1798 -0.9837 0.9837 0.1798 -12.7398 335.302)" class="st4" cx="194.7" cy="175.3" rx="2.6" ry="3.1"/>
			<ellipse transform="matrix(0.7423 -0.6701 0.6701 0.7423 -67.0209 175.7364)" class="st8" cx="195" cy="175" rx="1.9" ry="2.2"/>
			
				<ellipse transform="matrix(0.733 -0.6802 0.6802 0.733 -67.252 179.2315)" class="st6" cx="194.7" cy="175.3" rx="1.4" ry="1.7"/>
			
				<ellipse transform="matrix(0.7048 -0.7094 0.7094 0.7048 -66.9861 189.8208)" class="st4" cx="194.6" cy="175.4" rx="0.5" ry="0.7"/>
		</g>
		<g>
			<ellipse transform="matrix(0.1798 -0.9837 0.9837 0.1798 -21.2215 336.12)" class="st4" cx="191" cy="180.8" rx="2.6" ry="3.1"/>
			
				<ellipse transform="matrix(0.7423 -0.6701 0.6701 0.7423 -71.6701 174.6321)" class="st8" cx="191.2" cy="180.5" rx="1.9" ry="2.2"/>
			
				<ellipse transform="matrix(0.733 -0.6802 0.6802 0.733 -71.9948 178.1462)" class="st6" cx="190.9" cy="180.8" rx="1.4" ry="1.7"/>
			
				<ellipse transform="matrix(0.7048 -0.7094 0.7094 0.7048 -71.992 188.7743)" class="st4" cx="190.8" cy="180.9" rx="0.5" ry="0.7"/>
		</g>
		<g>
			
				<ellipse transform="matrix(0.1798 -0.9837 0.9837 0.1798 -22.7853 312.3349)" class="st4" cx="175.9" cy="169.8" rx="2.6" ry="3.1"/>
			
				<ellipse transform="matrix(0.7423 -0.6701 0.6701 0.7423 -68.2076 161.73)" class="st8" cx="176.2" cy="169.5" rx="1.9" ry="2.2"/>
			
				<ellipse transform="matrix(0.733 -0.6802 0.6802 0.733 -68.5599 164.9903)" class="st6" cx="175.9" cy="169.8" rx="1.4" ry="1.7"/>
			
				<ellipse transform="matrix(0.7048 -0.7094 0.7094 0.7048 -68.6625 174.8704)" class="st4" cx="175.8" cy="169.9" rx="0.5" ry="0.7"/>
		</g>
		<path class="st7" d="M216.1,159.2c2.4,0.5,4.8,1,7.2,1.5c1.2-3,2.4-6.1,3.6-9.1c2.8-0.9,5.7-1.7,8.5-2.6"/>
		<polyline class="st7" points="183,138 179.7,130.4 186.9,122.5 186,113.9 		"/>
		<path class="st7" d="M211.7,170.3c0,0,6.7,6.5,0.4,12.9s-6.4,6.4-6.4,6.4l2.2,1.4"/>
		<path class="st7" d="M177.8,143.9c0,0-7.1-5.7-14.3,5.1l-2.4,3.4l-1.7-2.1"/>
	</g>
	<g>
		<path class="st9" d="M191.4,0.4c4.2,4.4,8,14.2,8.3,16.6c0.3,2.7-3.9,19.2-3.9,19.2l-16.9-13.6l-7.5-0.5c0,0-7.4-0.5-10.3,1.4
			c0.2,1,0,1.5-0.5,1.9c0.9,1.9,4.4,3.9,4.4,3.9l18.6,4.9c0,0,1.7,1.5,4,3.7c0.5,0.2,1.3,1.3,1.3,1.3c1.1,1.1,2.2,2.3,3.2,3.6
			c1.4,1.6,2.4,2.9,3.1,4.2c0.7,1.1,1.3,2.2,1.7,3.2c0.3,0.8,0.6,1.6,0.9,2.4c0,0,0,0,0,0c1.2,2.8,1.5,5.9,1.4,8.5
			c0,1.9-0.2,3.4-0.3,4.3c-0.2,2.1-1.8,3.8-4.2,6.3c-1,1.2-1.8,2-1.8,2s-0.4,0.5-1.1,1c-4,4.4-3.8,1.8-3.8,1.8
			c-0.2-2-5.5-8.2-5.5-8.2s-12.7-19-15.1-22.5s-4.8-4.9-8.6-6.1s3,7.8,3,7.8s5.5,8,10.8,15.8c1.2-1,1,1.5,1,1.5
			c2.5,3.7,4.8,7.2,6.4,9.8c5.2,8,2.7,11.4-0.4,15.6c-0.7,1.1-1.4,2.1-2.1,3c-3.6,5.9-17.9,13.7-17.9,13.7s1.2-7.6,2.9-14
			c-0.4-3.3-1.6-9.9-0.4-16.8c1.4-8-7.6-15.8-10.1-19.6c-2.6-3.8-6.4-3.3-6.4-3.3l-2.8,1.9c0,0,0,0,1.5,2.8s5.1,7.1,7.6,13.5
			c1.6,4.1,2.1,8.4,2.8,14.2c0.2-0.5,0.2-0.5,0.2-0.5s4.1,8.6,1.9,17.1c-0.2,0.8-0.4,1.5-0.6,2.2c-0.3,2.3-0.9,4.2-1.9,6.1
			c-1.6,4.3-3.8,7.7-8,10.3c-0.4,0.3-0.9,0.5-1.3,0.8c-1.6,1.3-3.6,2.4-5.7,3.2c-2.7,1.3-5.4,2.2-9.6,2.7c-5.2,1-9.3,1.1-9.3,1.1
			s0.1-0.1,0.2-0.3c-0.4,0-0.4,0-0.4,0l14.4-16.4c0,0,0.3-0.1,0.8-0.2c5.8-8.4,2-30.7,1.3-34.3c-0.7-3.8-3.7-5.6-3.7-5.6
			s-6,1.1-3.4,6.6s1,15.4,1,15.4s-3.4,12.5-7.2,23.1c0,0.2,1.8,13.7-19.5,16.9c-3,0.7-5.2,0.9-5.2,0.9L83.5,137
			c-0.6,0.1-0.9,0.1-0.9,0.1l-3.8,0.5l-14.9,6.3c-0.5,0.4-1.2,0.7-2,0.9l2-0.9c6.1-4.1-2.8-18.7-11.1-24.4c-9-6.2,10-22.4,10-22.4
			S84.9,84,90.9,81.2c6-2.8-0.3-3.2-2-4.6c-1.7-1.4-10.5,6.6-25.8,14.4c-15.3,7.8-15.8,14.8-15.8,14.8l-0.9,15.9
			c0,0-8.2-28.4-6.4-35.1c1.8-6.7,10.1-12.7,10.1-12.7L72,59.7c0,0,17.2-1,27.2-2.2c10-1.2,6.3-8.5,6.3-8.5l0,0c0,0,0,0,0,0h-0.1
			c0,0-0.1,0-0.1,0H105c0,0,0,0,0,0h-0.7c-0.2,0-0.3,0-0.5,0l-1.8,0c-0.3,0-0.7,0-1.1,0l-1.3,0c-0.3,0-0.7,0-1.1,0l-1.7,0
			c-0.3,0-0.7,0-1.1,0l-1.1,0c-0.7,0-1.4,0-2.2,0l-2.1,0c0,0-0.1,0-0.1,0c-0.5,0-3.7,0.2-7.2,1c-1.8,0.5-3.6,1.2-5.2,1.9l0,0
			c-2.8,1.6-7.7,4.9-11.3,7.4c-2.9,2.2-5.7,4.3-8.6,5.5c-0.3,0.1-0.6,0.3-0.9,0.4l-3.4,1.9l-21.9,17c0,0,0,0,3.6-7.9
			s1.4-14.1,1.4-14.1s-1.2-8.5,6.2-16.9s33.6-11.1,38.5-11.5s21.1,1.9,29.8-0.6c8.8-2.5-0.3-6.6-0.3-6.6l-14.7,1c0,0-24,0.9-31,2.6
			c-7,1.8-21.2,10-21.2,10l9.9-12.6l0.6-4.6c0,0-0.4-7.3,12.2-14.6s21.7-3.2,21.7-3.2s17.5,6,26.4,7.7c8.9,1.6,4-4,3.3-5.2
			c-0.8-1.2-20.2-6.8-25-7.3c-4.8-0.6-12,2.1-12,2.1l-18,1.1c0,0,2-1.3,5-3.3H23.4v156.4h200.4V0.4H191.4z"/>
		<path class="st9" d="M163.4,2.4c1.1-0.8,2.2-1.4,3.3-2h-11.6l-5.3,11.2L163.4,2.4z"/>
		<path class="st9" d="M132.5,0.4h-4c1.6,2.7,2.9,4.9,2.9,4.9S132,3.2,132.5,0.4z"/>
		<path class="st10" d="M191.8,74.7c0.6-0.6,1.1-1,1.1-1s0.8-0.8,1.8-2C193.8,72.6,192.9,73.6,191.8,74.7L191.8,74.7z"/>
		<path class="st10" d="M192,42.7C192.1,42.8,192.1,42.8,192,42.7c-1-1.2-2.1-2.4-3.1-3.5l0,0C188.9,39.2,188.9,39.2,192,42.7z"/>
		<path class="st10" d="M155.3,27c-0.1,0.1-0.2,0.2-0.4,0.4l15.1,5.6l8.5,4.5l6.6,10c0,0,0,0-6.5-5.8s-11-5.3-18.6-6.7
			c-3.4-0.6-7.1-2.3-10.3-4c-2.2,1.5-4.8,3.2-7.2,5c4.3,2.9,11.7,7.9,15.3,10.7c5.3,4.1,6.4,14.7,6.4,14.7l-14.7-14.3l-12.1-7.2
			c-2.2,1.8-3.8,3.6-4.4,5.1c-0.5,1.3-1.1,2.2-1.7,2.9l9.4,8.8c0,0,6.6,11.6,7.7,16c1.1,4.4-3.4,7.8-3.4,7.8s-2.6-15.1-5.8-18.1
			s-10.5-10.8-10.5-10.8L118,67.3l-3.3,4.8c0,0.5,0.1,1,0.1,1.5c0.9,13.7-0.2,23.8-0.2,23.8l-8.6,15l4.1-16.7c0,0,0.1-9.4-2.9-4.4
			c-0.1,0.2-0.2,0.4-0.4,0.6c-0.1,1.1-0.2,2.3-0.2,3.6c-0.2,8.6-10.8,25.8-10.8,25.8l5.2-21.4c-1.9,2.4-3.5,4.2-3.5,4.2
			s0.6-5.9,3.1-10.9c0.4-0.8,0.8-1.5,1.2-2.2l0-0.3c0,0-14.2,22.8-16.9,26s-4.6,6.8-5.2,7.9c-0.6,1-8.2,7.3-8.2,7.3l9.4-17.2
			c0,0,12.2-18.5,16-23.1s3.1-5.7,3.1-5.7l-2.1,1l-7.7,3.4l-5.8,8.3c0,0-9.2,10.5-12.3,21.8l-3.1,11.3c0,0-11.1-10.4-12.1-14.4
			c-1-4.1,4.6-10.7,7.5-12.6c0.4-0.3,1-0.7,1.7-1.1c3.1-3.1,8.1-6.7,8.1-6.7s19.2-11.9,28-18.2c6.9-4.9,5.6-3.4,7.9-8
			c-0.7-1.6-1.5-3-2.5-4.2l-3.9,1l-6.4,0.5l-6.1,1.5c0,0-5,0.8-16.7,5.2c-11.6,4.3-8.3,2.6-8.3,2.6c6.1-5.7,25.1-11.6,32.2-13.7
			c-1.1,0.2-2.2,0.5-3.5,0.9C83.7,68.2,78.7,66.9,64,76.2c-14.6,9.3-14.6,9.3-14.6,9.3s10.9-12.7,15.1-14.3
			c4.2-1.5,15.6-7.9,23.5-9.3c7.9-1.5,18.2-2.2,18.2-2.2s7.3-1.3,6.2-4.1c-1.1-2.8-7-6.5-7-6.5s3.7,7.2-6.3,8.5s-27.2,2.2-27.2,2.2
			L50.2,73.9c0,0-8.3,6-10.1,12.7s6.4,35.1,6.4,35.1l0.9-15.9c0,0,0.5-7.1,15.8-14.8c15.3-7.8,24.1-15.8,25.8-14.4
			c1.7,1.4,8,1.8,2,4.6c-6,2.8-28.1,15.9-28.1,15.9s-19,16.2-10,22.4c8.3,5.7,17.2,20.3,11.1,24.4l14.9-6.3l3.8-0.5l0,0
			c0,0,0,0,1.1-0.2c3.2-0.6,12.9-3.5,26.8-16.3c17.1-15.7,17.1-15.7,17.1-15.7l-4,12l0,0c3.8-10.6,7.2-23.1,7.2-23.1s1.5-9.9-1-15.4
			c-2.6-5.5,3.4-6.6,3.4-6.6s3.1,1.8,3.7,5.6c0.6,3.6,4.5,25.9-1.3,34.3c2.8-0.9,12.3-4.9,15.5-14.8c2.5-7.6,3.4-10.3,3.7-11.2
			c-0.7-5.8-1.2-10-2.8-14.2c-2.4-6.4-6.1-10.7-7.6-13.5s-1.5-2.8-1.5-2.8l2.8-1.9c0,0,3.8-0.4,6.4,3.3c2.6,3.8,11.5,11.6,10.1,19.6
			c-1.2,6.8,0,13.5,0.4,16.8c0.8-2.8,1.6-5.4,2.5-7c3-5.1,1.6-11.5,5.2-19c1.1-2.2,1.8-3.3,2.3-3.8c-5.3-7.9-10.8-15.8-10.8-15.8
			s-6.8-9-3-7.8s6.2,2.6,8.6,6.1c2.4,3.5,15.1,22.5,15.1,22.5s5.3,6.2,5.5,8.2c0,0,1-9,0.1-14.8s0.4-4.3,0.4-4.3s2.3-7-0.4-14.9
			c-1.3-3.9-1.2-4.8-0.7-4.6c-2.2-2.2-4-3.7-4-3.7L165,29.3c0,0-3.5-2.1-4.4-3.9C159.2,26.4,155.8,25.8,155.3,27z"/>
		<path class="st10" d="M90.2,49.1C90.2,49.1,90.2,49.1,90.2,49.1C90.2,49.1,90.2,49.1,90.2,49.1z"/>
		<path class="st10" d="M112.1,76l-3.5,5.2c0,0-0.4,1.2-0.8,3.4C109.8,83.6,113.2,81.1,112.1,76z"/>
		<path class="st10" d="M180.1,74.6c-1.6-2.6-3.9-6.1-6.4-9.8l0,0C173.7,64.8,173.7,64.8,180.1,74.6z"/>
		<path class="st10" d="M83,50c-1.8,0.4-3.6,1-5.2,1.9C79.4,51.2,81.1,50.5,83,50z"/>
		<path class="st10" d="M131.6,10.5c2.3,4,4.9,6.8,4.7,2.1c-0.1-2.6,1.5-4.6,2.7-6.8c-0.4-1.8-0.9-3.6-1.5-5.3h-5
			c-0.5,2.8-1.1,4.9-1.1,4.9s-1.2-2.3-2.9-4.9h-5.2C126.2,3.2,129.9,7.5,131.6,10.5z"/>
		<path class="st10" d="M145.8,16.9c1.6,0.4,4,0.1,5.4-0.9c2.6-1.7,3.4-1,8.8-0.8c5.4,0.2,4.9-6.7,14.6-1.1s21.1,22,21.1,22
			s4.3-16.4,3.9-19.2c-0.3-2.4-4.1-12.3-8.3-16.6h-12.5c5.2,1.9,15.9,6.4,17,12.1c1.5,7.6-1.6,12.6-1.6,12.6s-7.4-6.3-8.7-15.1
			c-0.8-5.6-4.6-8.4-7.1-9.7h-11.9c-1.1,0.6-2.1,1.3-3.3,2l-13.6,9.2L155,0.4h-5l-3.4,13.2L145.8,16.9z"/>
		<path class="st10" d="M57,65.3c0.3-0.2,0.6-0.3,0.9-0.4c2.8-1.2,5.6-3.3,8.6-5.5c-2.6,1.8-4.5,3.1-4.5,3.1L57,65.3z"/>
		<path class="st10" d="M120.7,128.4c-0.2,0.2-0.2,0.3-0.2,0.3s4.2-0.2,9.4-1.1c-0.4,0.1-0.8,0.1-1.2,0.1
			C123.3,128.2,121.4,128.4,120.7,128.4z"/>
		<path class="st10" d="M113.8,49.8c1,1.9,3.2-1,4.7-3.2c-3.1-1-5.5-0.9-5.5-0.9l-7.8-1.6c0,0-1.8,0.2-4.6,0.5
			c1-0.1,1.6-0.1,1.6-0.1S112.3,47,113.8,49.8z"/>
		<path class="st10" d="M161.1,23.5c2.8-1.9,10.3-1.4,10.3-1.4l7.5,0.5C178.8,22.5,160.2,19.8,161.1,23.5z"/>
		<path class="st10" d="M63.9,143.9l-2,0.9C62.7,144.6,63.4,144.3,63.9,143.9z"/>
		<path class="st10" d="M146.1,3.8C146.1,3.8,146.1,3.8,146.1,3.8l2.3-3.4h-2.6C146.1,1.9,146.3,3.2,146.1,3.8z"/>
		<path class="st10" d="M83.7,136.9c-0.1,0-0.1,0-0.2,0l15.4-2.2c0,0,2.2-0.2,5.2-0.9l0,0C90.6,135.9,85.6,136.7,83.7,136.9z"/>
		<path class="st10" d="M145.1,121.6c-2.2,1.3-3.9,2.4-5.7,3.2C141.5,124,143.5,122.9,145.1,121.6z"/>
		<path class="st10" d="M81.1,2.7c0,0,7.2-2.7,12-2.1c4.8,0.5,24.3,6.1,25,7.3c0.8,1.2,5.7,6.8-3.3,5.2c-8.9-1.6-26.4-7.7-26.4-7.7
			s-9.1-4.1-21.7,3.2S54.5,23.1,54.5,23.1l-0.6,4.6L44,40.3c0,0,14.2-8.3,21.2-10c7-1.8,31.1-2.6,31.1-2.6l14.7-1
			c0,0,9.1,4.1,0.3,6.6c-8.8,2.5-24.9,0.2-29.8,0.6s-31.1,3.1-38.5,11.5s-6.2,16.9-6.2,16.9s2.2,6.1-1.4,14.1s-3.6,7.9-3.6,7.9
			l18.4-18.6c0,0,14.8-7.7,17.2-9.7s9-7.7,15.5-9.1c1-0.2,2.1-0.4,3.3-0.6c-4.2,0.5-8.7,1-13.1,1.6c-15,2,29.8-7.2,38.1-7.6
			c2.9-0.2,5.8,0,8.4,0.3l-0.4-9l-3.1-4.7c0,0,1.2-0.3,1.7-0.9c-4.3-1.4-8.9-2.9-12.9-4.2c-9-0.7-16.3,1.1-16.3,1.1l-7.8-1.6
			c0,0,9.2-1.2,16.7-2.1c-1.4-0.5-2.5-1-3.3-1.4c-2.7-1.4,2.6-0.7,9.8,0.6c0.7-0.1,1.2-0.1,1.7-0.2c4-0.4,16.7,2.4,20.2,4.9
			c0.9,0.2,1.6,0.5,2.1,0.6c0.4,0.1,0.8,0.3,1.2,0.5c0.9-0.9,1.6-2.5,1-4c-0.4-1-0.9-2.7-1.6-4.8c-1.1-1.3-2.2-2.6-3.2-3.9
			c-3.7-4.7-7.6-8.2-9.4-9.8c-0.8-0.4-1.6-0.8-2.4-1.2H68.2c-3.1,2.1-5,3.3-5,3.3L81.1,2.7z M52.2,52.4c-6.6,2.4-9.3,7.2-10.2,9.2
			c-0.2,0.6-0.4,1-0.4,1s0.1-0.4,0.4-1c1.4-3.5,6.4-15.3,12.7-17.9c7.5-3.1,12.2-1.8,12.2-1.8S60.7,49.3,52.2,52.4z M66.3,21.3
			c-6.6,2.4-9.3,7.1-10.2,9.2c-0.2,0.6-0.4,1-0.4,1s0.1-0.4,0.4-1c1.4-3.5,6.4-15.3,12.7-17.9c7.4-3.1,12.2-1.8,12.2-1.8
			S74.8,18.2,66.3,21.3z"/>
		<path class="st10" d="M104.2,49h-0.5C103.9,49,104.1,49,104.2,49z"/>
		<path class="st10" d="M101.9,49l-1.1,0C101.2,49,101.6,49,101.9,49z"/>
		<path class="st10" d="M105,49L105,49C105,49,105,49,105,49z"/>
		<path class="st10" d="M105.3,49L105.3,49C105.3,49,105.3,49,105.3,49z"/>
		<path class="st10" d="M105.5,49L105.5,49C105.4,49,105.5,49,105.5,49z"/>
		<path class="st10" d="M196.9,50.2c-0.4-1-1-2.1-1.7-3.2c0.9,1.5,1.5,3.2,2.6,5.6C197.5,51.8,197.3,51,196.9,50.2z"/>
		<path class="st10" d="M179.7,90.3c-0.7,0.9-1.4,1.9-2.1,3C178.2,92.4,179,91.4,179.7,90.3z"/>
		<path class="st10" d="M96.7,49l-1.1,0C96,49,96.4,49,96.7,49z"/>
		<path class="st10" d="M199.2,61.1c0,1.7-0.2,3.2-0.3,4.3C199,64.5,199.2,63,199.2,61.1z"/>
		<path class="st10" d="M94.6,49l-2.2,0C93.1,49,93.9,49,94.6,49z"/>
		<path class="st10" d="M156.3,104.5c-0.6,2.2-1.2,4.2-1.9,6.1C155.3,108.8,155.9,106.8,156.3,104.5z"/>
		<path class="st10" d="M99.5,49l-1.1,0C98.8,49,99.1,49,99.5,49z"/>
		<path class="st2" d="M57.1,117.2c1,4.1,12.1,14.4,12.1,14.4l3.1-11.3c3.1-11.3,12.3-21.8,12.3-21.8l5.8-8.3l-1.8,0.8
			c0,0-11.9,7.5-16,10.4s-8.7,5.4-8.7,5.4c0.1-0.8,1-2,2.3-3.3c-0.7,0.5-1.3,0.9-1.7,1.1C61.7,106.6,56,113.2,57.1,117.2z"/>
		<path class="st2" d="M82.6,137.1L82.6,137.1c0,0,0.3,0,0.9-0.1c0.1,0,0.1,0,0.2,0C82.6,137.1,82.6,137.1,82.6,137.1z"/>
		<path class="st2" d="M127.5,104.9c0,0,0,0-17.1,15.7c-13.8,12.8-23.6,15.6-26.8,16.3c1.9-0.3,6.9-1.1,20.3-3.1l0,0
			c21.3-3.2,19.5-16.7,19.5-16.9l0,0L127.5,104.9z"/>
		<path class="st2" d="M135.5,111.8c-0.5,0.2-0.8,0.2-0.8,0.2l-14.4,16.4c0,0,0,0,0.4,0c0.7-0.1,2.6-0.2,7.9-0.7
			c0.4,0,0.9-0.1,1.2-0.1c4.1-0.5,6.8-1.3,9.6-2.7c1.8-0.9,3.6-1.9,5.7-3.2c0.4-0.2,0.8-0.5,1.3-0.8c4.2-2.6,6.4-5.9,8-10.3
			c0.7-1.8,1.3-3.9,1.9-6.1c0.2-0.7,0.4-1.4,0.6-2.2c2.2-8.5-1.9-17.1-1.9-17.1s0,0-0.2,0.5c-0.3,0.9-1.2,3.6-3.7,11.2
			C147.8,106.9,138.3,110.8,135.5,111.8z"/>
		<path class="st2" d="M132.2,32.1c-0.4-1.3-6.9-3.7-14.5-6.2c-0.5,0.6-1.7,0.9-1.7,0.9l3.1,4.7l0.4,9.1c5,0.6,9,1.6,10.1,1.7
			C131.2,42.4,132.9,35,132.2,32.1z"/>
		<path class="st2" d="M113.4,64.9l-5.6,1.5c1,1.2,1.8,2.6,2.5,4.2C111,69.2,111.9,67.4,113.4,64.9z"/>
		<path class="st2" d="M80.6,21.2l7.8,1.6c0,0,7.3-1.8,16.3-1.1c-2.9-0.9-5.5-1.8-7.5-2.5C89.9,20.1,80.6,21.2,80.6,21.2z"/>
		<path class="st2" d="M142.7,26.7l-3.5,7c0,0,1.4,0.9,3.4,2.2c2.5-1.8,5.1-3.5,7.2-5C145.8,28.9,142.7,26.7,142.7,26.7z"/>
		<path class="st2" d="M105.5,18.2c-0.4,0-1,0.1-1.7,0.2c7.6,1.4,17.3,3.5,21.8,4.7C122.2,20.6,109.4,17.8,105.5,18.2z"/>
		<path class="st2" d="M136.9,26.9c0.1-1.1-4.3-6.2-8.6-11.5c0.7,2.1,1.2,3.8,1.6,4.8c0.6,1.5-0.1,3.1-1,4
			C133.2,25.9,136.7,28.1,136.9,26.9z"/>
		<path class="st2" d="M97.6,104.1c0,0,1.6-1.8,3.5-4.2l0.8-3.2l0.1-5.7c-0.4,0.7-0.8,1.4-1.2,2.2C98.1,98.3,97.6,104.1,97.6,104.1z
			"/>
		<path class="st2" d="M112.5,55.5c1.1,2.8-6.2,4.1-6.2,4.1S96,60.4,88,61.9c-7.9,1.5-19.4,7.8-23.6,9.3
			c-4.2,1.5-15.1,14.3-15.1,14.3s0,0,14.6-9.3s19.6-8,31.2-11.9c1.3-0.4,2.4-0.7,3.5-0.9c1.7-0.5,2.8-0.8,2.8-0.8s16-5.6,21.5-10.1
			c5.5-4.5,2.7-2.7-1.7-4.8c-1-0.5-2-0.8-2.9-1.1c-1.4,2.2-3.7,5-4.7,3.2c-1.5-2.8-11.7-5.3-11.7-5.3s-0.6,0-1.6,0.1
			c-3.5,0.4-8.7,0.9-14.5,1.6c-1.2,0.2-2.3,0.4-3.3,0.6c-6.5,1.4-13.2,7.1-15.5,9.1c-2.4,2-17.2,9.7-17.2,9.7L31.7,84.2l21.9-17
			l3.4-1.9l5-2.8c0,0,1.9-1.3,4.5-3.1c3.6-2.5,8.4-5.8,11.3-7.4l0,0c1.6-0.9,3.4-1.5,5.2-1.9c3.4-0.8,6.7-1,7.2-1c0.1,0,0.1,0,0.1,0
			l2.1,0l2.2,0l1.1,0l1.1,0l1.7,0l1.1,0l1.3,0l1.1,0l1.8,0h0.5h0.7h0h0.2h0.1h0.1h0l0,0C105.5,49,111.3,52.7,112.5,55.5z"/>
		<path class="st2" d="M174.6,14.2c-9.7-5.6-9.2,1.3-14.6,1.1c-5.4-0.2-6.2-0.9-8.8,0.8c-1.4,0.9-3.9,1.3-5.4,0.9l-1.3,5.3l9.2,4.9
			l1.2,0.4c0.2-0.2,0.3-0.3,0.4-0.4c0.6-1.2,3.9-0.6,5.3-1.6c0.5-0.4,0.7-1,0.5-1.9c-0.9-3.6,17.8-0.9,17.8-0.9l16.9,13.6
			C195.7,36.2,184.3,19.8,174.6,14.2z"/>
		<path class="st2" d="M146.1,3.8C146.1,3.8,146.1,3.8,146.1,3.8c0.1-0.7,0-1.9-0.3-3.5h-1.9l1.3,4.9L146.1,3.8z"/>
		<path class="st2" d="M110.2,95.7l-4.1,16.7l8.6-15c0,0,1.1-10,0.2-23.8c0-0.5-0.1-1-0.1-1.5l-2.6,3.9c1.1,5.1-2.3,7.6-4.3,8.6
			c-0.3,1.8-0.7,4.4-1,7.4c0.1-0.2,0.3-0.4,0.4-0.6C110.2,86.3,110.2,95.7,110.2,95.7z"/>
		<path class="st2" d="M114.6,0.7l9.4,3.5l9.3,9.4c0,0,5.1,7.6,6.5,0.3c0.4-2.1,0-5-0.7-8.2c-1.2,2.3-2.8,4.2-2.7,6.8
			c0.1,4.7-2.5,1.9-4.7-2.1c-1.7-3-5.4-7.3-8.3-10.1h-10c0.8,0.4,1.6,0.8,2.4,1.2C115,1,114.6,0.7,114.6,0.7z"/>
		<path class="st2" d="M137.4,40l-1.3-0.8l-5.1,8.5l0.3,0.3c0.6-0.8,1.2-1.7,1.7-2.9C133.6,43.6,135.3,41.8,137.4,40z"/>
		<path class="st6" d="M139.8,13.9c-1.5,7.3-6.5-0.3-6.5-0.3L124,4.2l-9.4-3.5c0,0,0.4,0.3,1.1,0.9c1.8,1.6,5.8,5.2,9.4,9.8
			c1,1.3,2.1,2.6,3.2,3.9c4.3,5.3,8.8,10.4,8.6,11.5c-0.2,1.3-3.6-1-8-2.7c-0.4-0.2-0.8-0.3-1.2-0.5c-0.4-0.2-1.2-0.4-2.1-0.6
			c-4.6-1.2-14.2-3.3-21.8-4.7c-7.2-1.3-12.5-1.9-9.8-0.6c0.8,0.4,1.9,0.8,3.3,1.4c2,0.7,4.6,1.6,7.5,2.5c4.1,1.3,8.7,2.8,12.9,4.2
			c7.6,2.5,14.1,4.9,14.5,6.2c0.8,2.9-0.9,10.3-2.6,10.2c-1.1-0.1-5.1-1.2-10.1-1.7c-2.6-0.3-5.5-0.5-8.4-0.3
			c-8.3,0.4-53.1,9.6-38.1,7.6c4.3-0.6,8.8-1.1,13.1-1.6c5.8-0.7,11-1.2,14.5-1.6c2.9-0.3,4.6-0.5,4.6-0.5l7.8,1.6
			c0,0,2.4-0.1,5.5,0.9c0.9,0.3,1.9,0.6,2.9,1.1c4.4,2.1,7.2,0.2,1.7,4.8c-5.5,4.5-21.6,10.1-21.6,10.1s-1.1,0.3-2.8,0.8
			c-7.2,2.1-26.2,7.9-32.2,13.7c0,0-3.3,1.8,8.3-2.6c11.6-4.3,16.7-5.2,16.7-5.2l6.1-1.5l6.4-0.5l3.9-1l5.6-1.5
			c-1.5,2.6-2.4,4.3-3.1,5.7c-2.3,4.6-1,3.1-7.9,8c-8.8,6.3-28,18.2-28,18.2s-5,3.6-8.1,6.7c-1.3,1.3-2.3,2.6-2.3,3.3
			c0,0,4.7-2.5,8.7-5.4c4-2.9,16-10.4,16-10.4l1.8-0.8l7.7-3.4l2.1-1c0,0,0.7,1-3.1,5.7c-3.8,4.6-16,23.1-16,23.1l-9.4,17.2
			c0,0,7.5-6.3,8.2-7.3s2.5-4.6,5.2-7.9c2.7-3.3,16.9-26,16.9-26l0,0.3l-0.1,5.7l-0.8,3.2l-5.2,21.4c0,0,10.5-17.2,10.8-25.8
			c0-1.3,0.1-2.5,0.2-3.6c0.2-3,0.6-5.5,1-7.4c0.4-2.2,0.8-3.4,0.8-3.4l3.5-5.2l2.6-3.9l3.3-4.8l10.8-15.6c0,0,7.4,7.8,10.5,10.8
			s5.8,18.1,5.8,18.1s4.4-3.4,3.4-7.8s-7.7-16-7.7-16l-9.4-8.8l-0.3-0.3l5.1-8.5l1.3,0.8l12.1,7.2l14.7,14.3c0,0-1.1-10.7-6.4-14.7
			c-3.6-2.8-11-7.8-15.3-10.7c-2-1.3-3.4-2.2-3.4-2.2l3.5-7c0,0,3.1,2.2,7.1,4.3c3.2,1.7,7,3.4,10.3,4c7.6,1.3,12.1,0.8,18.6,6.7
			c6.5,5.8,6.5,5.8,6.5,5.8l-6.6-10l-8.5-4.5l-15.1-5.6l-1.2-0.4l-9.2-4.9l1.3-5.3l0.8-3.3l3.4-13.2h-1.6l-2.3,3.5l-0.9,1.4L144,0.4
			h-6.4c0.6,1.8,1.1,3.6,1.5,5.3C139.8,8.9,140.2,11.9,139.8,13.9z"/>
		<path class="st2" d="M170.4,67.1c-3.6,7.5-2.3,13.9-5.2,19c-0.9,1.6-1.8,4.2-2.5,7c-1.7,6.4-2.9,14-2.9,14s14.3-7.8,17.9-13.7
			c0.7-1.1,1.4-2.1,2.1-3c3.1-4.2,5.7-7.6,0.4-15.6c-6.4-9.8-6.4-9.8-6.4-9.8l0,0c0,0,0.1-2.6-1-1.5
			C172.2,63.7,171.4,64.8,170.4,67.1z"/>
		<path class="st2" d="M188.2,42.5c2.7,7.9,0.4,14.9,0.4,14.9s-1.3-1.5-0.4,4.3s-0.1,14.8-0.1,14.8s-0.3,2.6,3.8-1.8l0,0
			c1-1.1,2-2.1,2.8-3c2.4-2.5,4-4.2,4.2-6.3c0.1-1.1,0.3-2.6,0.3-4.3c0.1-2.6-0.2-5.7-1.4-8.5c0,0,0,0,0,0c-1.1-2.4-1.7-4.1-2.6-5.6
			c-0.8-1.3-1.7-2.6-3.1-4.2c0,0-0.1,0-0.1-0.1c-3.1-3.5-3.1-3.5-3.1-3.5l0,0c0,0-0.9-1.2-1.3-1.3C187.1,37.7,186.9,38.6,188.2,42.5
			z"/>
		<path class="st2" d="M54.8,43.8C48.4,46.3,43.4,58.1,42,61.6c0.9-2,3.6-6.8,10.2-9.2C60.7,49.3,66.9,42,66.9,42
			S62.2,40.7,54.8,43.8z"/>
		<path class="st2" d="M42,61.6c-0.3,0.6-0.4,1-0.4,1S41.8,62.3,42,61.6z"/>
		<path class="st2" d="M56.2,30.5c-0.3,0.6-0.4,1-0.4,1S55.9,31.1,56.2,30.5z"/>
		<path class="st2" d="M68.9,12.6C62.6,15.2,57.6,27,56.2,30.5c0.9-2,3.6-6.8,10.2-9.2c8.5-3.1,14.8-10.5,14.8-10.5
			S76.4,9.6,68.9,12.6z"/>
		<path class="st2" d="M185.6,10.1c1.3,8.8,8.7,15.1,8.7,15.1s3.1-5,1.6-12.6c-1.1-5.7-11.8-10.2-17-12.1h-0.4
			C181.1,1.7,184.8,4.5,185.6,10.1z"/>
	</g>
	<g>
		<path class="st9" d="M88.2,182.3c-0.9,0.8-8,6.5-17.3,4.9c-1.9-0.3-6.7-1.1-8.1-4.1l8.5-1.9l-8.8,1.7c-1.2-2.9,1.8-5.9,2.2-6.3
			c6-5.7,19.3-2.2,24.9-0.7c0.1,0,0.1,0,0.2,0c-0.8-1.3-1.6-2.5-2.4-3.8c-2.5-3.9-5-7.7-7.5-11.2c-1.5,2.4-4.8,4.6-5.5,5.1
			c-1.4,0.9-11.7,7.4-24,2.9c-2.5-0.9-8.8-3.2-10.3-7.8l11.7-0.6l-12,0.3c-1.3-4.6,3.2-8.1,3.8-8.5c8.9-6.8,26.2,1.5,33.5,5
			c0,0,0.1,0,0.1,0.1c-7.6-10.4-14.9-18.8-20.6-25.1c-0.6,1.1-1.5,2-2.4,2.9c-3.6,3.5-7.5,6.6-11.7,9.3c-5.1,3.2-10.8,5.8-16.8,6
			c-4.2,0.1-8.9-1.3-11-5c-0.7-1.2-1.5-4.2-1-6.2c-0.5-0.6-0.9-1.2-0.7-2.1c-0.4-1.1-0.6-2.3-0.5-3.7c0.5-5.7,6.7-10.1,11.7-10.7
			c2.6-0.3,5.6,0.9,11.7,3.3c7,2.8,7.2,3.9,10,3.8c2.8-0.1,4.7-1.3,7-1.6c-1.1-1.2-2.1-2.2-3-3.1c-6-6.3-11.9-12-17.5-17l-1.3,0
			c-0.1,0.2-0.3,0.3-0.5,0.5c-0.6,1.2-1.6,2.2-2.6,3c-3.1,2.5-6.5,4.7-10.1,6.3c-4.3,2-9.1,3.2-14,2.2c-1.4-0.3-2.9-0.8-4.2-1.7V200
			h102.8c-3.1-6.4-6.8-13.6-11.2-21.1C90.4,180.5,88.6,182,88.2,182.3z"/>
		<path class="st9" d="M-0.2,46.4v14.5c0.8,0.5,1.6,0.9,2.2,1.4c2.2,1.6,3.7,3.6,7.5,11.7c1.9,4.2,4.4,9.9,7,17.1
			c5.2,4.1,10,8.1,14.4,12c-0.1-0.2-0.2-0.4-0.2-0.5c-3.4-7.3-11.4-24.8-4.4-33.6c0.5-0.6,4.1-5,8.6-3.6l-0.5,12l0.8-11.7
			c4.6,1.6,6.8,8,7.6,10.5c4.3,12.3-2.4,22.5-3.3,23.9c-0.5,0.7-3,4.4-5.7,5.6c6.9,6.1,12.8,11.9,17.8,17.1c1.3,1.4,2.9,3,4.6,4.8
			c0-0.1-0.1-0.3-0.1-0.4c-2.1-9.4-7.1-32,2-39.7c0.6-0.5,5.3-4.4,9.8-1.4L65,99.6l3.2-13c4.5,3.3,5.6,11.3,6,14.4
			c2.1,15.5-7,24.9-8.2,26.2c-0.6,0.6-3.4,3.4-6.2,4.3c5.2,5.7,11.5,13,18.2,22.1c0.3,0.4,0.6,0.8,0.9,1.3c-2.7-7.8-7.8-24,1.7-32.3
			c0.6-0.6,5.8-5,10.9-3.7l-2.9,12l3.2-11.6c5.1,1.6,6.4,7.9,7,10.4c2.7,12.3-7.2,22.5-8.6,23.8c-0.7,0.7-4.7,4.7-8.2,5.8
			c2.7,3.9,6.3,9,10,15c0.6-1.8,2-1.9,2.9-3.6c0.8-1.3,0.3-2,0.8-7c0.4-4.3,0.6-6.5,1.4-7.6c1.6-2.2,5.1-3,7.9-0.2
			c0.7,0.6,1.2,1.4,1.6,2.2c0.4,0.4,0.6,0.9,0.8,1.4c1,0.8,2.2,2.8,2.6,3.8c1.2,3,0.7,6.1-0.4,8.2c-1.6,2.9-4.2,4.4-6.9,5.3
			c-2.3,0.7-4.7,1-7.2,1c-0.4,0-0.9-0.1-1.3-0.1c1.5,2.5,3,5.1,4.4,7.8c2.7,5.1,5.1,10.1,7.2,14.9H142V46.4H-0.2z"/>
		<path class="st9" d="M4.5,94.5c2.1,0.2,4.5,1.9,9.3,5.3c5.6,3.9,5.6,4.9,7.9,5.4c3.2,0.6,5.1-1,8.2,0.6c0,0,0,0,0,0
			c-5.7-5-10.9-9.3-15.6-13c-3.6-0.5-8.8-1.7-14.5-4.6v7C1.3,94.6,3,94.3,4.5,94.5z"/>
		<path class="st11" d="M57.2,131.7l0.2-0.6c-0.1,0.1-0.2,0.2-0.2,0.2c-0.1,0.4-0.3,0.7-0.5,1c5.8,6.3,13,14.7,20.6,25.1
			c0.7,0.4,1.8,0.9,2.4,1.8l0.9,0c-0.1,0.6-0.3,1.3-0.7,1.9c2.5,3.5,5,7.3,7.5,11.2c0.8,1.3,1.6,2.6,2.4,3.8
			c0.6,0.1,1.3,0.4,1.8,0.9l0.2,0c-0.1-0.6-0.1-1.4,0.1-2.2c0.1-0.3,0.1-0.5,0.2-0.7c-3.7-5.9-7.2-11.1-10-15
			c-0.5,0.1-0.9,0.2-1.4,0.3l0.2-0.9c-0.9-0.7-1.3-1.8-1.6-2.6c-0.1-0.4-0.2-0.7-0.4-1.1c-0.3-0.5-0.7-0.9-0.9-1.3
			c-6.8-9.1-13-16.4-18.2-22.1C58.9,131.7,58,131.9,57.2,131.7z"/>
		<path class="st11" d="M94,177.3c-0.4-0.1-0.8-0.2-1.2-0.5c-0.1,0-0.3,0-0.4-0.1l-0.2,0.2c-0.1,0.6-0.3,1.3-0.8,1.9
			c4.5,7.6,8.2,14.7,11.2,21.1h3c-2.1-4.8-4.5-9.8-7.2-14.9C97,182.4,95.5,179.8,94,177.3z"/>
		<path class="st11" d="M29.9,105.8c1.2,0.7,2.1,1.6,2.7,2.3h-0.1c5.5,5,11.4,10.7,17.5,17c0.9,0.9,1.9,2,3,3.1
			c0.9-0.1,1.9-0.1,3,0.2c0.2,0.1,0.4,0.1,0.6,0.2c-0.1-0.4-0.2-0.7-0.3-1.1c-1.7-1.8-3.3-3.4-4.6-4.8c-5-5.2-11-11-17.8-17.1
			c-0.5,0.2-1,0.4-1.4,0.4l0.1-0.9c-0.7-0.6-1.2-1.4-1.5-2.1c-4.4-3.9-9.2-7.9-14.4-12c-2.6-7.1-5.1-12.9-7-17.1
			C5.7,65.9,4.2,63.9,2,62.3c-0.6-0.5-1.4-0.9-2.2-1.4V65c1.9,1.6,3.3,3.5,4.6,5.6c1.6,2.7,2.8,5.7,3.6,8.8c0.3,1.1,0.5,2.4,0.1,3.6
			c-0.7-1.4-1.5-2.6-2.5-3.7c-0.3-0.3-0.5-0.6-0.8-0.9c-0.1-0.1-0.3-0.3-0.4-0.4c-0.2-0.3-0.5-0.5-0.8-0.8c-0.1-0.1-0.3-0.3-0.4-0.4
			c-0.3-0.3-0.6-0.6-0.9-0.8c-0.1-0.1-0.2-0.2-0.3-0.3c-0.4-0.3-0.8-0.7-1.1-1.1c-0.4-0.3-0.7-0.6-1.1-0.9v14.7
			c5.7,2.8,10.9,4,14.5,4.6C18.9,96.5,24.2,100.8,29.9,105.8z"/>
		<path class="st11" d="M80.9,158.4l7.7-27.8l2.9-12c-5.1-1.3-10.2,3.1-10.9,3.7c-9.4,8.3-4.4,24.5-1.7,32.3
			c0.1,0.4,0.3,0.8,0.4,1.1C79.6,156.6,80,157.7,80.9,158.4z"/>
		<path class="st12" d="M80.9,158.4l-0.2,0.9c0.4,0,0.9-0.1,1.4-0.3c3.5-1.1,7.5-5.1,8.2-5.8c1.3-1.3,11.2-11.5,8.6-23.8
			c-0.5-2.5-1.9-8.8-7-10.4l-3.2,11.6L80.9,158.4z"/>
		<path class="st11" d="M4,110c0.2,0.1,0.4,0.2,0.5,0.3c0.3,0.2,0.6,0.3,0.9,0.4c0,0,0.1,0,0.1,0c0.3,0.1,0.6,0.2,0.9,0.3
			c0.6,0.2,1.1,0.3,1.7,0.4c3.1,0.8,6.3,0.6,9.2,0.2c0.3-0.1,0.7-0.1,1-0.1c0,0,0.1,0,0.1,0c0.3,0,0.6-0.1,0.9-0.1
			c0.1,0,0.1,0,0.2,0c0.3,0,0.6-0.1,0.9-0.1c0.1,0,0.1,0,0.2,0c0.4-0.1,0.7-0.1,1-0.2c0,0,0,0,0.1,0c0.3-0.1,0.6-0.1,0.9-0.2
			c0.1,0,0.3-0.1,0.4-0.1c0.2,0,0.4-0.1,0.5-0.1c0.2,0,0.4-0.1,0.5-0.1c0.1,0,0.2-0.1,0.3-0.1c2.2-0.5,4.3-1.2,6.3-2.3
			c-0.1,0.2-0.1,0.3-0.2,0.5c0.2-0.1,0.3-0.3,0.5-0.5l1.3,0h0.1c-0.5-0.7-1.4-1.6-2.7-2.3c0,0,0,0,0,0c-3-1.7-5,0-8.2-0.6
			c-2.3-0.4-2.4-1.4-7.9-5.4c-4.8-3.4-7.2-5.1-9.3-5.3c-1.5-0.1-3.2,0.2-4.7,0.8v12.8c0.3,0.2,0.7,0.4,0.9,0.6
			C1.8,109.2,2.9,109.6,4,110z"/>
		<path class="st12" d="M21.8,111c-0.4,0.1-0.7,0.1-1,0.2C21.1,111.1,21.5,111,21.8,111z"/>
		<path class="st12" d="M5.5,110.7c-0.3-0.1-0.6-0.3-0.9-0.4C4.9,110.4,5.2,110.5,5.5,110.7z"/>
		<path class="st12" d="M20.6,111.2c-0.3,0-0.6,0.1-0.9,0.1C20,111.2,20.3,111.2,20.6,111.2z"/>
		<path class="st12" d="M18.4,111.5c-0.3,0.1-0.7,0.1-1,0.1C17.8,111.6,18.1,111.5,18.4,111.5z"/>
		<path class="st12" d="M6.5,111c-0.3-0.1-0.6-0.2-0.9-0.3C5.9,110.8,6.2,110.9,6.5,111z"/>
		<path class="st12" d="M23.7,110.6c-0.2,0-0.4,0.1-0.5,0.1C23.4,110.7,23.5,110.7,23.7,110.6z"/>
		<path class="st12" d="M19.5,111.3c-0.3,0-0.6,0.1-0.9,0.1C18.9,111.4,19.2,111.4,19.5,111.3z"/>
		<path class="st12" d="M22.8,110.8c-0.3,0.1-0.6,0.1-0.9,0.2C22.2,110.9,22.5,110.8,22.8,110.8z"/>
		<path class="st12" d="M24.6,110.4c-0.1,0-0.2,0.1-0.3,0.1C24.4,110.5,24.5,110.4,24.6,110.4z"/>
		<path class="st12" d="M18,117.9c3.6-1.6,7-3.7,10.1-6.3c1-0.8,2-1.8,2.6-3c0.1-0.2,0.1-0.3,0.2-0.5c-2,1.1-4.1,1.8-6.3,2.3
			c-0.1,0-0.2,0.1-0.3,0.1c-0.2,0-0.4,0.1-0.5,0.1c-0.2,0-0.4,0.1-0.5,0.1c-0.1,0-0.3,0.1-0.4,0.1c-0.3,0.1-0.6,0.1-0.9,0.2
			c0,0,0,0-0.1,0c-0.4,0.1-0.7,0.1-1,0.2c-0.1,0-0.1,0-0.2,0c-0.3,0-0.6,0.1-0.9,0.1c-0.1,0-0.1,0-0.2,0c-0.3,0-0.6,0.1-0.9,0.1
			c0,0-0.1,0-0.1,0c-0.3,0.1-0.7,0.1-1,0.1c-3,0.4-6.1,0.7-9.2-0.2c-0.6-0.1-1.1-0.2-1.7-0.4c-0.3-0.1-0.6-0.2-0.9-0.3
			c0,0-0.1,0-0.1,0c-0.3-0.1-0.6-0.3-0.9-0.4c-0.2-0.1-0.4-0.2-0.5-0.3c-1.1-0.4-2.2-0.8-3.3-1.3c-0.3-0.1-0.6-0.3-0.9-0.6v10.4
			c1.3,0.8,2.8,1.4,4.2,1.7C8.9,121.2,13.7,119.9,18,117.9z"/>
		<path class="st11" d="M32.4,105.2l2-27.8l0.5-12c-4.5-1.3-8.2,3.1-8.6,3.6c-7,8.7,1,26.2,4.4,33.6c0.1,0.2,0.1,0.3,0.2,0.5
			C31.2,103.8,31.7,104.6,32.4,105.2z"/>
		<path class="st12" d="M32.4,105.2l-0.1,0.9c0.5,0,1-0.2,1.4-0.4c2.7-1.2,5.2-4.9,5.7-5.6c0.9-1.3,7.6-11.5,3.3-23.9
			c-0.9-2.5-3.1-8.8-7.6-10.5l-0.8,11.7L32.4,105.2z"/>
		<path class="st11" d="M20.8,138.9c1.4,0.3,2.7,0.4,4.1,0.5c0.2,0.1,0.5,0.1,0.7,0.2c0.4,0.1,0.8,0.1,1.1,0.2c0,0,0.1,0,0.1,0
			c0.4,0.1,0.8,0.1,1.1,0.1c0.7,0.1,1.4,0,2.1,0c3.8,0.1,7.6-1,11.2-2.2c0.4-0.1,0.8-0.3,1.2-0.4c0.1,0,0.2-0.1,0.2-0.1
			c0.4-0.1,0.7-0.2,1.1-0.4c0.1,0,0.2-0.1,0.3-0.1c0.4-0.1,0.7-0.2,1.1-0.4c0.1,0,0.1-0.1,0.2-0.1c0.4-0.1,0.8-0.3,1.3-0.4
			c0,0,0.1,0,0.1,0c0.3-0.1,0.7-0.3,1-0.4c0.2-0.1,0.3-0.1,0.5-0.2c0.2-0.1,0.4-0.2,0.6-0.2c0.2-0.1,0.4-0.2,0.6-0.3
			c0.1-0.1,0.2-0.1,0.4-0.2c2.6-1.1,5.2-2.4,7.5-4.1c-0.1,0.2-0.1,0.4-0.2,0.6c0.1-0.1,0.2-0.2,0.2-0.2l0.1-0.3
			c-0.4-0.6-0.8-1.4-1-2.1c-0.2-0.1-0.4-0.1-0.6-0.2c-1.1-0.3-2.1-0.3-3-0.2c-2.2,0.3-4.2,1.5-7,1.6c-2.8,0.1-3-0.9-10-3.8
			c-6.1-2.4-9.1-3.6-11.7-3.3c-5,0.6-11.2,5-11.7,10.7c-0.1,1.3,0.1,2.6,0.5,3.7c-0.1,0.8,0.2,1.5,0.7,2.1c0.1-0.5,0.4-1,0.7-1.3
			C16,136.6,19,138.5,20.8,138.9z"/>
		<path class="st12" d="M42.5,137.4c-0.4,0.1-0.8,0.3-1.2,0.4C41.7,137.7,42.1,137.5,42.5,137.4z"/>
		<path class="st12" d="M48.8,135.1c-0.2,0.1-0.4,0.2-0.6,0.2C48.4,135.3,48.6,135.2,48.8,135.1z"/>
		<path class="st12" d="M43.8,137c-0.4,0.1-0.7,0.2-1.1,0.4C43.1,137.2,43.4,137.1,43.8,137z"/>
		<path class="st12" d="M47.7,135.6c-0.3,0.1-0.7,0.3-1,0.4C47,135.8,47.4,135.7,47.7,135.6z"/>
		<path class="st12" d="M45.1,136.5c-0.3,0.1-0.7,0.2-1.1,0.4C44.4,136.8,44.8,136.6,45.1,136.5z"/>
		<path class="st12" d="M26.7,139.8c-0.4-0.1-0.8-0.1-1.1-0.2C26,139.7,26.4,139.8,26.7,139.8z"/>
		<path class="st12" d="M49.9,134.7c-0.1,0.1-0.2,0.1-0.4,0.2C49.6,134.8,49.7,134.8,49.9,134.7z"/>
		<path class="st12" d="M46.6,136c-0.4,0.1-0.8,0.3-1.3,0.4C45.7,136.3,46.2,136.1,46.6,136z"/>
		<path class="st12" d="M28,140c-0.4,0-0.8-0.1-1.1-0.1C27.3,139.9,27.6,139.9,28,140z"/>
		<path class="st12" d="M57.3,130.7c-2.3,1.7-4.9,3-7.5,4.1c-0.1,0.1-0.2,0.1-0.4,0.2c-0.2,0.1-0.4,0.2-0.6,0.3
			c-0.2,0.1-0.4,0.2-0.6,0.2c-0.2,0.1-0.3,0.1-0.5,0.2c-0.3,0.1-0.7,0.3-1,0.4c0,0-0.1,0-0.1,0c-0.4,0.1-0.8,0.3-1.3,0.4
			c-0.1,0-0.1,0.1-0.2,0.1c-0.3,0.1-0.7,0.2-1.1,0.4c-0.1,0-0.2,0.1-0.3,0.1c-0.4,0.1-0.7,0.2-1.1,0.4c-0.1,0-0.2,0.1-0.2,0.1
			c-0.4,0.1-0.8,0.3-1.2,0.4c-3.6,1.2-7.4,2.3-11.2,2.2c-0.7,0.1-1.4,0.1-2.1,0c-0.4,0-0.8-0.1-1.1-0.1c0,0-0.1,0-0.1,0
			c-0.4-0.1-0.8-0.1-1.1-0.2c-0.2-0.1-0.5-0.1-0.7-0.2c-1.4-0.1-2.7-0.2-4.1-0.5c-1.8-0.4-4.9-2.3-6.4-1c-0.4,0.3-0.6,0.8-0.7,1.3
			c-0.5,1.9,0.3,4.9,1,6.2c2.1,3.7,6.8,5.1,11,5c6-0.2,11.7-2.8,16.8-6c4.2-2.7,8.2-5.8,11.7-9.3c0.9-0.9,1.7-1.8,2.4-2.9
			c0.2-0.3,0.4-0.7,0.5-1C57.2,131.1,57.3,130.9,57.3,130.7z"/>
		<path class="st11" d="M57.5,130.7L65,99.6l2.9-13.5c-4.5-3-9.2,0.9-9.8,1.4c-9.1,7.7-4.1,30.2-2,39.7c0,0.1,0.1,0.3,0.1,0.4
			c0.1,0.3,0.2,0.7,0.3,1.1C56.7,129.3,57,130.1,57.5,130.7z"/>
		<path class="st12" d="M57.5,130.7l-0.1,0.3l-0.2,0.6c0.8,0.2,1.7,0.1,2.6-0.2c2.8-1,5.6-3.8,6.2-4.3c1.2-1.2,10.3-10.7,8.2-26.2
			c-0.4-3.1-1.5-11.1-6-14.4l-3.2,13L57.5,130.7z"/>
		<path class="st11" d="M91.7,176.9l0.5-0.1c0,0.1,0,0.1,0,0.2l0.2-0.2c0.2,0,0.3,0.1,0.4,0.1c-0.1-0.1-0.2-0.1-0.3-0.2
			c1.1-0.2,2.2-0.7,3.2-1.3c0.3-0.2,0.5-0.3,0.8-0.5c0.1-0.1,0.2-0.2,0.4-0.2c0.2-0.2,0.5-0.3,0.7-0.5c0.1-0.1,0.2-0.2,0.3-0.3
			c0.2-0.2,0.5-0.4,0.7-0.6c0.1-0.1,0.2-0.1,0.3-0.2c0.3-0.2,0.6-0.5,0.9-0.8c1.4-1.2,2.9-2.5,3.8-4.5c0.2-0.3,0.4-0.7,0.5-1
			c0.1-0.2,0.2-0.5,0.3-0.8c0-0.1,0.1-0.2,0.1-0.3c0.1-0.2,0.1-0.5,0.2-0.8c0.3-0.7,0.6-1.5,0.8-2.3c0.3-1.1,0.2-3.7,1.2-3.7
			c0.2,0,0.5,0.1,0.8,0.3c-0.1-0.6-0.3-1.1-0.8-1.4c-0.4-0.8-0.9-1.6-1.6-2.2c-2.8-2.8-6.3-2-7.9,0.2c-0.8,1.1-1,3.3-1.4,7.6
			c-0.5,5,0,5.7-0.8,7c-0.9,1.7-2.3,1.8-2.9,3.6c-0.1,0.2-0.1,0.4-0.2,0.7C91.7,175.5,91.7,176.2,91.7,176.9z"/>
		<path class="st12" d="M95.7,175.4c0.3-0.2,0.5-0.3,0.8-0.5C96.2,175.1,95.9,175.2,95.7,175.4z"/>
		<path class="st12" d="M104.4,166c0-0.1,0.1-0.2,0.1-0.3C104.4,165.8,104.4,165.9,104.4,166z"/>
		<path class="st12" d="M97.9,173.9c0.2-0.2,0.5-0.4,0.7-0.6C98.3,173.5,98.1,173.7,97.9,173.9z"/>
		<path class="st12" d="M96.8,174.6c0.2-0.2,0.5-0.3,0.7-0.5C97.3,174.3,97.1,174.5,96.8,174.6z"/>
		<path class="st12" d="M98.9,173.1c0.3-0.2,0.6-0.5,0.9-0.8C99.5,172.6,99.2,172.8,98.9,173.1z"/>
		<path class="st12" d="M105.4,162.6c-0.2,0.8-0.5,1.6-0.8,2.3c-0.1,0.3-0.1,0.5-0.2,0.8c0,0.1-0.1,0.2-0.1,0.3
			c-0.1,0.3-0.2,0.5-0.3,0.8c-0.2,0.4-0.3,0.7-0.5,1c-0.9,2-2.3,3.3-3.8,4.5c-0.3,0.2-0.6,0.5-0.9,0.8c-0.1,0.1-0.2,0.1-0.3,0.2
			c-0.2,0.2-0.5,0.4-0.7,0.6c-0.1,0.1-0.2,0.2-0.3,0.3c-0.2,0.2-0.4,0.3-0.7,0.5c-0.1,0.1-0.2,0.2-0.4,0.2c-0.3,0.2-0.5,0.3-0.8,0.5
			c-1,0.6-2,1-3.2,1.3c0.1,0.1,0.2,0.1,0.3,0.2c0.4,0.2,0.8,0.4,1.2,0.5c0.4,0.1,0.9,0.1,1.3,0.1c2.5,0.1,4.9-0.2,7.2-1
			c2.8-0.9,5.4-2.4,6.9-5.3c1.1-2.1,1.6-5.1,0.4-8.2c-0.4-1-1.6-3-2.6-3.8c-0.3-0.2-0.5-0.3-0.8-0.3
			C105.6,159,105.7,161.5,105.4,162.6z"/>
		<path class="st11" d="M79.7,159.1c-0.7-0.8-1.7-1.4-2.4-1.8c0,0-0.1,0-0.1-0.1c-7.3-3.5-24.6-11.8-33.5-5c-0.6,0.4-5.1,4-3.8,8.5
			l12-0.3L79.7,159.1z"/>
		<path class="st12" d="M79.7,159.1l-27.9,1.4l-11.7,0.6c1.6,4.6,7.8,6.9,10.3,7.8c12.3,4.5,22.6-2,24-2.9c0.6-0.4,4-2.6,5.5-5.1
			c0.4-0.6,0.7-1.3,0.7-1.9L79.7,159.1z"/>
		<path class="st11" d="M91.6,176.9c-0.5-0.5-1.3-0.7-1.8-0.9c-0.1,0-0.1,0-0.2,0c-5.6-1.5-18.9-5-24.9,0.7
			c-0.4,0.4-3.4,3.4-2.2,6.3l8.8-1.7L91.6,176.9z"/>
		<path class="st12" d="M91.7,176.9l-0.2,0l-20.3,4.4l-8.5,1.9c1.5,2.9,6.2,3.7,8.1,4.1c9.3,1.6,16.4-4.2,17.3-4.9
			c0.4-0.3,2.2-1.8,3.2-3.4c0.4-0.6,0.7-1.3,0.8-1.9c0-0.1,0-0.1,0-0.2L91.7,176.9z"/>
		<path class="st12" d="M4.8,78.3c0.3,0.3,0.6,0.6,0.8,0.9C5.4,78.9,5.1,78.6,4.8,78.3z"/>
		<path class="st12" d="M4.4,77.9c-0.2-0.3-0.5-0.5-0.8-0.8C3.9,77.3,4.2,77.6,4.4,77.9z"/>
		<path class="st12" d="M3.2,76.7c-0.3-0.3-0.6-0.6-0.9-0.8C2.7,76.2,3,76.4,3.2,76.7z"/>
		<path class="st12" d="M2,75.6c-0.4-0.3-0.8-0.7-1.1-1.1C1.3,74.9,1.6,75.2,2,75.6z"/>
		<path class="st12" d="M2,75.6c0.1,0.1,0.2,0.2,0.3,0.3c0.3,0.3,0.6,0.6,0.9,0.8c0.1,0.1,0.3,0.3,0.4,0.4c0.3,0.3,0.5,0.5,0.8,0.8
			c0.1,0.1,0.3,0.3,0.4,0.4c0.3,0.3,0.6,0.6,0.8,0.9c1,1.1,1.8,2.3,2.5,3.7c0.4-1.2,0.2-2.5-0.1-3.6c-0.8-3.1-2.1-6.1-3.7-8.8
			c-1.2-2.1-2.7-4-4.6-5.6v8.6c0.4,0.3,0.7,0.6,1.1,0.9C1.3,74.9,1.6,75.2,2,75.6z"/>
	</g>
	<g>
		<ellipse class="st13" cx="356.3" cy="166.5" rx="1.3" ry="1.5"/>
		<ellipse class="st13" cx="360.5" cy="166.5" rx="1.3" ry="1.5"/>
		<ellipse class="st13" cx="364.7" cy="166.5" rx="1.3" ry="1.5"/>
	</g>
	<g class="st1">
		<path class="st4" d="M271.2,175.4v4.6c0,0.6,0,1.1,0,1.5c0,1.1-0.3,1.9-1,2.4c-0.3,0.3-0.7,0.5-1.3,0.5c-0.2,0-0.4,0-0.6,0
			c-0.3,0-0.7,0-1.2-0.1l0.1-0.5c0.5,0.1,0.9,0.1,1.2,0.1c0.6,0,1.1-0.2,1.5-0.5c0.5-0.4,0.7-1.1,0.7-2c0-0.1,0-0.2,0-0.3v-0.7v-0.3
			c-0.1,0.2-0.3,0.4-0.5,0.6c-0.5,0.4-1,0.6-1.6,0.6c-0.7,0-1.3-0.3-1.8-0.9c-0.4-0.6-0.6-1.2-0.6-2c0-0.2,0-0.4,0-0.6
			c0.1-0.8,0.5-1.5,1.1-2c0.5-0.5,1.2-0.7,2-0.6C269.8,175.3,270.4,175.3,271.2,175.4z M270.7,175.8c-0.9-0.1-1.4-0.1-1.6-0.1
			c-0.6,0-1.1,0.2-1.6,0.6c-0.3,0.2-0.5,0.6-0.7,1c-0.1,0.4-0.2,0.8-0.2,1.2c0,0.5,0.1,0.9,0.3,1.3c0.4,0.7,0.9,1,1.5,1
			c0.5,0,0.9-0.2,1.4-0.6c0.5-0.5,0.8-1.1,0.8-1.9C270.7,176.9,270.7,176,270.7,175.8z"/>
		<path class="st4" d="M275.5,174.4H275v-0.5h0.5V174.4z M275.5,175.4v5.8H275v-5.8H275.5z"/>
		<path class="st4" d="M284,175.4v5.7h-0.5v-0.7v-0.3c-0.1,0.2-0.3,0.4-0.5,0.6c-0.5,0.4-1,0.6-1.6,0.6c-0.7,0-1.3-0.3-1.8-0.9
			c-0.4-0.6-0.6-1.2-0.6-1.9c0-0.2,0-0.4,0-0.6c0.1-0.8,0.5-1.5,1.1-2c0.5-0.5,1.2-0.7,2-0.6C282.6,175.3,283.3,175.3,284,175.4z
			 M283.5,178.4v-2.6c-0.9-0.1-1.4-0.1-1.6-0.1c-0.6,0-1.1,0.1-1.6,0.6c-0.3,0.2-0.5,0.6-0.7,1c-0.1,0.4-0.2,0.8-0.2,1.2
			c0,0.5,0.1,0.9,0.3,1.3c0.4,0.7,0.9,1,1.5,1c0.5,0,0.9-0.2,1.4-0.6C283.3,179.8,283.5,179.2,283.5,178.4z"/>
		<path class="st4" d="M292.7,178v3.1h-0.5V178c0-0.6-0.1-1.1-0.3-1.5c-0.2-0.3-0.3-0.5-0.5-0.6s-0.5-0.2-0.8-0.3
			c-0.1,0-0.1,0-0.2,0c-0.5,0-0.9,0.2-1.4,0.6c-0.5,0.5-0.8,1-0.8,1.7v3.2h-0.5v-5.8h0.5v1c0.2-0.4,0.6-0.7,0.9-0.9
			c0.4-0.2,0.8-0.3,1.2-0.3c0.1,0,0.2,0,0.4,0c0.4,0.1,0.8,0.2,1,0.3c0.2,0.2,0.5,0.4,0.7,0.7C292.6,176.7,292.7,177.3,292.7,178z"
			/>
		<path class="st4" d="M301.5,178v3.1h-0.5V178c0-0.6-0.1-1.1-0.3-1.5c-0.2-0.3-0.3-0.5-0.5-0.6c-0.2-0.1-0.5-0.2-0.8-0.3
			c-0.1,0-0.1,0-0.2,0c-0.5,0-0.9,0.2-1.4,0.6c-0.5,0.5-0.8,1-0.8,1.7v3.2h-0.5v-5.8h0.5v1c0.2-0.4,0.6-0.7,0.9-0.9s0.8-0.3,1.2-0.3
			c0.1,0,0.2,0,0.3,0c0.4,0.1,0.8,0.2,1,0.3s0.5,0.4,0.7,0.7C301.3,176.7,301.5,177.3,301.5,178z"/>
		<path class="st4" d="M309.7,175.4v5.7h-0.5v-0.7v-0.3c-0.1,0.2-0.3,0.4-0.5,0.6c-0.5,0.4-1,0.6-1.6,0.6c-0.7,0-1.3-0.3-1.8-0.9
			c-0.4-0.6-0.6-1.2-0.6-1.9c0-0.2,0-0.4,0-0.6c0.1-0.8,0.5-1.5,1.1-2c0.5-0.5,1.2-0.7,2-0.6C308.3,175.3,308.9,175.3,309.7,175.4z
			 M309.2,178.4v-2.6c-0.9-0.1-1.4-0.1-1.6-0.1c-0.6,0-1.1,0.1-1.6,0.6c-0.3,0.2-0.5,0.6-0.7,1c-0.1,0.4-0.2,0.8-0.2,1.2
			c0,0.5,0.1,0.9,0.3,1.3c0.4,0.7,0.9,1,1.5,1c0.5,0,0.9-0.2,1.4-0.6C308.9,179.8,309.2,179.2,309.2,178.4z"/>
		<path class="st4" d="M321.4,175.4l-2,5.8h-0.5l-1.8-5l-1.8,5h-0.5l-2.1-5.8h0.5l1.8,5l1.8-5h0.5h0l1.8,5l1.8-5H321.4z"/>
		<path class="st4" d="M329.2,175.4v5.7h-0.5v-0.7v-0.3c-0.1,0.2-0.3,0.4-0.5,0.6c-0.5,0.4-1,0.6-1.6,0.6c-0.7,0-1.3-0.3-1.8-0.9
			c-0.4-0.6-0.6-1.2-0.6-1.9c0-0.2,0-0.4,0-0.6c0.1-0.8,0.5-1.5,1.1-2c0.5-0.5,1.2-0.7,2-0.6C327.7,175.3,328.4,175.3,329.2,175.4z
			 M328.7,178.4v-2.6c-0.9-0.1-1.4-0.1-1.6-0.1c-0.6,0-1.1,0.1-1.6,0.6c-0.3,0.2-0.5,0.6-0.7,1c-0.1,0.4-0.2,0.8-0.2,1.2
			c0,0.5,0.1,0.9,0.3,1.3c0.4,0.7,0.9,1,1.5,1c0.5,0,0.9-0.2,1.4-0.6C328.4,179.8,328.7,179.2,328.7,178.4z"/>
		<path class="st4" d="M332.9,172h0.5v9.2h-0.5V172z"/>
		<path class="st4" d="M341.9,172v9.2h-0.5v-0.7v-0.3c-0.1,0.2-0.3,0.4-0.5,0.6c-0.5,0.4-1,0.6-1.6,0.6c-0.7,0-1.3-0.3-1.8-0.9
			c-0.4-0.6-0.6-1.2-0.6-1.9c0-0.2,0-0.4,0-0.6c0.1-0.8,0.5-1.5,1.1-2c0.5-0.4,1.1-0.6,2-0.6c0.3,0,0.8,0,1.5,0.1V172H341.9z
			 M341.4,175.9c-0.9-0.1-1.4-0.1-1.6-0.1c-0.6,0-1.1,0.1-1.6,0.6c-0.3,0.2-0.5,0.6-0.7,1c-0.1,0.4-0.2,0.8-0.2,1.2
			c0,0.5,0.1,0.9,0.3,1.3c0.4,0.7,0.9,1,1.5,1c0.5,0,0.9-0.2,1.4-0.6c0.5-0.5,0.8-1.1,0.8-1.9C341.4,176.9,341.4,176,341.4,175.9z"
			/>
		<path class="st4" d="M347.6,175.4v0.5c-0.3,0.1-0.5,0.2-0.7,0.4c-0.4,0.4-0.7,1-0.8,1.7c0,0.2-0.1,0.4-0.1,0.5v2.7h-0.5v-5.8h0.5
			v1.3c0.2-0.3,0.4-0.5,0.6-0.8C346.9,175.6,347.2,175.5,347.6,175.4z"/>
		<path class="st4" d="M355,176.1c0.5,0.6,0.8,1.3,0.8,2.1c0,0.9-0.2,1.7-0.7,2.2c-0.5,0.5-1.1,0.8-2,0.8c-0.8,0-1.4-0.3-1.9-0.8
			c-0.5-0.5-0.7-1.3-0.7-2.2c0-0.8,0.3-1.5,0.8-2.1c0.5-0.6,1.2-0.9,1.9-0.9C353.8,175.2,354.5,175.5,355,176.1z M354.7,180.1
			c0.4-0.5,0.6-1.1,0.6-1.8c0-0.7-0.2-1.3-0.6-1.8c-0.4-0.5-0.9-0.7-1.5-0.7s-1.1,0.2-1.5,0.7c-0.4,0.5-0.7,1.1-0.7,1.8
			c0,0.8,0.2,1.4,0.6,1.8c0.4,0.5,0.9,0.7,1.6,0.7C353.8,180.8,354.3,180.6,354.7,180.1z"/>
		<path class="st4" d="M364.3,178v3.1h-0.5V178c0-0.6-0.1-1.1-0.3-1.5c-0.2-0.3-0.3-0.5-0.5-0.6s-0.5-0.2-0.8-0.3
			c-0.1,0-0.1,0-0.2,0c-0.5,0-0.9,0.2-1.4,0.6c-0.5,0.5-0.8,1-0.8,1.7v3.2h-0.5v-5.8h0.5v1c0.2-0.4,0.6-0.7,0.9-0.9
			c0.4-0.2,0.8-0.3,1.2-0.3c0.1,0,0.2,0,0.4,0c0.4,0.1,0.8,0.2,1,0.3c0.2,0.2,0.5,0.4,0.7,0.7C364.1,176.7,364.3,177.3,364.3,178z"
			/>
		<path class="st4" d="M374.4,179h-2.5c0-0.2,0-0.3,0-0.4c-0.3,0.3-0.7,0.5-1.1,0.5c-0.5,0-0.8-0.2-1.1-0.6
			c-0.3-0.3-0.4-0.8-0.4-1.2c0-0.1,0-0.2,0-0.4c0.1-0.5,0.3-0.9,0.6-1.2c0.3-0.3,0.8-0.5,1.3-0.4c0.5,0,0.9,0,1.2,0.1l0.1,0v3.1h1.5
			c0.1-0.4,0.2-0.8,0.2-1.3c0-1-0.3-1.8-0.8-2.5c-0.6-0.8-1.4-1.2-2.3-1.2s-1.7,0.4-2.2,1.2c-0.5,0.7-0.7,1.5-0.7,2.5
			c0,1,0.2,1.8,0.7,2.5c0.5,0.8,1.3,1.2,2.2,1.2c0.8,0,1.4-0.3,2-0.8l0.5,0.2c-0.7,0.7-1.5,1.1-2.5,1.1c-1.1,0-2-0.4-2.6-1.3
			c-0.6-0.8-0.9-1.7-0.9-2.9c0-1.1,0.3-2.1,0.9-2.9c0.6-0.9,1.5-1.3,2.6-1.3c1.1,0,2,0.4,2.7,1.3c0.6,0.8,1,1.8,1,2.9
			C374.7,177.8,374.6,178.4,374.4,179L374.4,179z M371.9,177.3c0-0.1,0-0.3,0-0.8v-0.6c-0.4,0-0.7,0-0.8,0c-0.3,0-0.6,0.1-0.8,0.3
			c-0.3,0.3-0.5,0.7-0.5,1.2c0,0.3,0.1,0.5,0.2,0.7c0.2,0.4,0.5,0.5,0.8,0.5c0.3,0,0.6-0.1,0.8-0.4
			C371.8,177.9,371.9,177.6,371.9,177.3L371.9,177.3z"/>
		<path class="st4" d="M382.8,175.4v4.6c0,0.6,0,1.1,0,1.5c0,1.1-0.3,1.9-1,2.4c-0.3,0.3-0.7,0.5-1.3,0.5c-0.2,0-0.4,0-0.6,0
			c-0.3,0-0.7,0-1.2-0.1l0.1-0.5c0.5,0.1,0.9,0.1,1.2,0.1c0.6,0,1.1-0.2,1.5-0.5c0.5-0.4,0.7-1.1,0.7-2c0-0.1,0-0.2,0-0.3v-0.7v-0.3
			c-0.1,0.2-0.3,0.4-0.5,0.6c-0.5,0.4-1,0.6-1.6,0.6c-0.7,0-1.3-0.3-1.8-0.9c-0.4-0.6-0.6-1.2-0.6-2c0-0.2,0-0.4,0-0.6
			c0.1-0.8,0.5-1.5,1.1-2c0.5-0.5,1.2-0.7,2-0.6C381.3,175.3,382,175.3,382.8,175.4z M382.3,175.8c-0.9-0.1-1.4-0.1-1.6-0.1
			c-0.6,0-1.1,0.2-1.6,0.6c-0.3,0.2-0.5,0.6-0.7,1c-0.1,0.4-0.2,0.8-0.2,1.2c0,0.5,0.1,0.9,0.3,1.3c0.4,0.7,0.9,1,1.5,1
			c0.5,0,0.9-0.2,1.4-0.6c0.5-0.5,0.8-1.1,0.8-1.9C382.3,176.9,382.3,176,382.3,175.8z"/>
		<path class="st4" d="M395.3,178v3.1h-0.5V178c0-0.6-0.1-1.1-0.3-1.5c-0.2-0.5-0.7-0.8-1.4-0.8c-0.5,0-0.9,0.2-1.3,0.6
			c-0.3,0.3-0.5,0.7-0.6,1.2c0,0.1,0,0.3,0,0.6v3.1h-0.5V178c0-0.6-0.1-1.1-0.3-1.5c-0.2-0.5-0.7-0.8-1.4-0.8
			c-0.5,0-0.9,0.2-1.3,0.6c-0.2,0.2-0.4,0.4-0.5,0.7v4.2h-0.5v-5.8h0.5v0.7c0.5-0.6,1.1-0.9,1.8-0.9c0.1,0,0.2,0,0.3,0
			c0.9,0.1,1.4,0.5,1.7,1.3c0.1-0.3,0.3-0.5,0.6-0.7c0.5-0.4,1-0.6,1.5-0.6c0.1,0,0.2,0,0.3,0c0.8,0.1,1.3,0.4,1.6,0.9
			C395.2,176.6,395.3,177.2,395.3,178z"/>
		<path class="st4" d="M403.6,175.4v5.7h-0.5v-0.7v-0.3c-0.1,0.2-0.3,0.4-0.5,0.6c-0.5,0.4-1,0.6-1.6,0.6c-0.7,0-1.3-0.3-1.8-0.9
			c-0.4-0.6-0.6-1.2-0.6-1.9c0-0.2,0-0.4,0-0.6c0.1-0.8,0.5-1.5,1.1-2c0.5-0.5,1.2-0.7,1.9-0.6C402.2,175.3,402.8,175.3,403.6,175.4
			z M403.1,178.4v-2.6c-0.9-0.1-1.4-0.1-1.6-0.1c-0.6,0-1.1,0.1-1.6,0.6c-0.3,0.2-0.5,0.6-0.6,1c-0.1,0.4-0.2,0.8-0.2,1.2
			c0,0.5,0.1,0.9,0.3,1.3c0.4,0.7,0.9,1,1.5,1c0.5,0,0.9-0.2,1.4-0.6C402.8,179.8,403.1,179.2,403.1,178.4z"/>
		<path class="st4" d="M407.8,174.4h-0.5v-0.5h0.5V174.4z M407.8,175.4v5.8h-0.5v-5.8H407.8z"/>
		<path class="st4" d="M411.7,172h0.5v9.2h-0.5V172z"/>
		<path class="st4" d="M416.3,180.4h0.7v0.7h-0.7V180.4z"/>
		<path class="st4" d="M425.1,180.9c0,0.1,0,0.1,0,0.1c-0.4,0.1-0.9,0.2-1.3,0.3c-0.2,0-0.4,0-0.5,0c-0.8,0-1.4-0.2-1.9-0.6
			c-0.6-0.5-0.9-1.2-1-2.2c0-0.1,0-0.2,0-0.2c0-0.1,0-0.2,0-0.2c0-0.1,0-0.1,0-0.2c0-0.9,0.3-1.6,0.9-2.1c0.4-0.4,1.1-0.6,2-0.6
			c0.3,0,0.8,0,1.4,0.1v0.5c-0.7-0.1-1.2-0.1-1.5-0.1c-0.7,0-1.2,0.2-1.6,0.5c-0.4,0.4-0.6,1-0.7,1.7c0,0.1,0,0.2,0,0.3
			c0,0.1,0,0.2,0,0.3c0.1,0.8,0.4,1.3,0.8,1.7c0.4,0.4,0.9,0.6,1.5,0.6c0.4,0,0.8,0,1.1-0.1c0.1,0,0.4-0.1,0.8-0.2
			C425.1,180.6,425.1,180.8,425.1,180.9z"/>
		<path class="st4" d="M432.4,176.1c0.5,0.6,0.8,1.3,0.8,2.1c0,0.9-0.2,1.7-0.7,2.2s-1.1,0.8-2,0.8c-0.8,0-1.4-0.3-1.9-0.8
			c-0.5-0.5-0.7-1.3-0.7-2.2c0-0.8,0.3-1.5,0.8-2.1c0.5-0.6,1.2-0.9,1.9-0.9C431.3,175.2,431.9,175.5,432.4,176.1z M432.1,180.1
			c0.4-0.5,0.6-1.1,0.6-1.8c0-0.7-0.2-1.3-0.7-1.8c-0.4-0.5-0.9-0.7-1.5-0.7c-0.6,0-1.1,0.2-1.5,0.7c-0.4,0.5-0.6,1.1-0.6,1.8
			c0,0.8,0.2,1.4,0.6,1.8s0.9,0.7,1.6,0.7C431.2,180.8,431.7,180.6,432.1,180.1z"/>
		<path class="st4" d="M445.4,178v3.1h-0.5V178c0-0.6-0.1-1.1-0.3-1.5c-0.2-0.5-0.7-0.8-1.4-0.8c-0.5,0-0.9,0.2-1.3,0.6
			c-0.3,0.3-0.5,0.7-0.6,1.2c0,0.1,0,0.3,0,0.6v3.1h-0.5V178c0-0.6-0.1-1.1-0.3-1.5c-0.2-0.5-0.7-0.8-1.4-0.8
			c-0.5,0-0.9,0.2-1.3,0.6c-0.2,0.2-0.4,0.4-0.5,0.7v4.2h-0.5v-5.8h0.5v0.7c0.5-0.6,1.1-0.9,1.8-0.9c0.1,0,0.2,0,0.3,0
			c0.9,0.1,1.4,0.5,1.7,1.3c0.1-0.3,0.3-0.5,0.6-0.7c0.5-0.4,1-0.6,1.5-0.6c0.1,0,0.2,0,0.3,0c0.8,0.1,1.3,0.4,1.6,0.9
			C445.2,176.6,445.4,177.2,445.4,178z"/>
	</g>
</g>
<g id="Layer_2_1_">
</g>
</svg>
